STARTCHAR uni4E00
ENCODING -1
SWIDTH 1000 0
DWIDTH 24 0
BBX 21 1 2 8
BITMAP
FFFFF8
ENDCHAR
STARTCHAR uni4E01
ENCODING -1
SWIDTH 1000 0
DWIDTH 24 0
BBX 21 20 2 -3
BITMAP
000038
FFFFC0
002000
002000
002000
002000
002000
002000
002000
002000
002000
002000
002000
002000
002000
002000
002000
002000
002000
03E000
ENDCHAR
STARTCHAR uni4E03
ENCODING -1
SWIDTH 1000 0
DWIDTH 24 0
BBX 22 17 1 -1
BITMAP
030000
030000
020000
020000
020008
02001C
0207E0
03F800
FE0000
020000
020000
020000
020010
020010
020010
030030
01FFF0
ENDCHAR
STARTCHAR uni4E07
ENCODING -1
SWIDTH 1000 0
DWIDTH 24 0
BBX 21 20 2 -3
BITMAP
000038
FFFFC0
010000
010000
010000
010000
010000
01FFC0
010040
0200C0
020080
020080
040080
040080
080080
080080
100100
200100
404300
803E00
ENDCHAR
STARTCHAR uni4E08
ENCODING -1
SWIDTH 1000 0
DWIDTH 24 0
BBX 21 21 2 -3
BITMAP
000800
000800
000800
000800
000818
FFFFE0
001000
041000
0C1000
0C1000
121000
222000
012000
00A000
004000
006000
009000
010800
060600
0801C0
700078
ENDCHAR
STARTCHAR uni4E09
ENCODING -1
SWIDTH 1000 0
DWIDTH 24 0
BBX 22 18 1 -1
BITMAP
000020
3FFFF0
000000
000000
000000
000000
000000
000000
0000C0
07FF00
000000
000000
000000
000000
000000
000000
000008
FFFFFC
ENDCHAR
STARTCHAR uni4E0A
ENCODING -1
SWIDTH 1000 0
DWIDTH 24 0
BBX 21 20 2 -2
BITMAP
004000
004000
008000
008000
008000
008000
008000
008040
007FA0
008000
008000
008000
008000
008000
008000
008000
008000
008000
008010
FFFFF8
ENDCHAR
STARTCHAR uni4E0B
ENCODING -1
SWIDTH 1000 0
DWIDTH 24 0
BBX 21 21 2 -4
BITMAP
000038
FFFFC0
004000
004000
004000
004000
007000
004C00
004300
004080
004040
004000
004000
004000
004000
004000
004000
004000
004000
004000
004000
ENDCHAR
STARTCHAR uni4E0C
ENCODING -1
SWIDTH 1000 0
DWIDTH 24 0
BBX 22 20 1 -3
BITMAP
000008
80001C
7FFFE0
010200
010200
010200
010200
010200
010200
010200
010200
010200
010200
010200
020200
020200
040200
080200
100200
200300
ENDCHAR
STARTCHAR uni4E0D
ENCODING -1
SWIDTH 1000 0
DWIDTH 24 0
BBX 20 20 2 -3
BITMAP
000030
7FFFC0
002000
002000
006000
006000
00C400
014200
024180
044040
084060
304030
C04010
004000
004000
004000
004000
004000
004000
004000
ENDCHAR
STARTCHAR uni4E0E
ENCODING -1
SWIDTH 1000 0
DWIDTH 24 0
BBX 18 21 3 -3
BITMAP
0C0000
180000
100000
1000C0
1FFF00
100000
200000
200000
200180
5FFE80
400080
000080
000180
001100
03E100
7C0100
C00100
000100
000200
000200
003C00
ENDCHAR
STARTCHAR uni4E0F
ENCODING -1
SWIDTH 1000 0
DWIDTH 24 0
BBX 21 21 2 -4
BITMAP
FFFFF8
004000
004000
004000
304000
207FF0
204020
204020
204020
204020
7FFFE0
400020
400040
000040
000040
000040
000040
000080
000180
001F00
000400
ENDCHAR
STARTCHAR uni4E10
ENCODING -1
SWIDTH 1000 0
DWIDTH 24 0
BBX 21 21 2 -4
BITMAP
FFFFF8
004000
004000
004000
304080
207FC0
204000
204000
204000
204000
7FFFF0
400020
400020
000020
000020
000040
000040
000040
000080
001F80
000200
ENDCHAR
STARTCHAR uni4E11
ENCODING -1
SWIDTH 1000 0
DWIDTH 24 0
BBX 22 20 1 -3
BITMAP
1FFFC0
008080
008080
008080
008080
010180
010100
010100
01010C
FFFFF0
010100
010100
020100
020100
020100
020100
020300
020300
020318
7FFFFC
ENDCHAR
STARTCHAR uni4E14
ENCODING -1
SWIDTH 1000 0
DWIDTH 24 0
BBX 19 21 3 -3
BITMAP
000400
0FFE00
080400
080400
080400
080400
080400
0FFC00
080400
080400
080400
080400
080400
0FFC00
080400
080400
080400
080400
080400
080440
F7FBA0
ENDCHAR
STARTCHAR uni4E15
ENCODING -1
SWIDTH 1000 0
DWIDTH 24 0
BBX 21 19 2 -2
BITMAP
000030
7FFFC0
002000
002000
004000
00C000
014400
024300
044080
084040
304020
404030
804000
004000
004000
004000
004000
000000
FFFFF8
ENDCHAR
STARTCHAR uni4E16
ENCODING -1
SWIDTH 1000 0
DWIDTH 24 0
BBX 22 22 1 -4
BITMAP
002080
0830C0
082080
082080
082080
082080
08209C
FFFFE0
082080
082080
082080
082080
082080
082080
083F80
082080
080000
080000
080000
080018
0FFFE0
080000
ENDCHAR
STARTCHAR uni4E18
ENCODING -1
SWIDTH 1000 0
DWIDTH 24 0
BBX 22 19 1 -2
BITMAP
0003C0
001C00
00E000
0F0000
080000
080000
080000
080030
0FFFF8
080100
080100
080100
080100
080100
080100
080100
080100
080100
FFFFFC
ENDCHAR
STARTCHAR uni4E19
ENCODING -1
SWIDTH 1000 0
DWIDTH 24 0
BBX 22 20 1 -3
BITMAP
00001C
FFFFE0
002000
002000
202010
3FFFF0
202010
202010
205010
208C10
208210
210110
220090
2C0090
200010
200010
200010
200010
200390
200060
ENDCHAR
STARTCHAR uni4E1E
ENCODING -1
SWIDTH 1000 0
DWIDTH 24 0
BBX 22 20 1 -3
BITMAP
1FFFC0
000180
000200
000400
001800
001010
7FD820
0094C0
011500
011200
021100
041080
081040
101030
20101C
401008
00F000
002000
000008
FFFFFC
ENDCHAR
STARTCHAR uni4E1F
ENCODING -1
SWIDTH 1000 0
DWIDTH 24 0
BBX 21 21 2 -3
BITMAP
000020
FFFFF0
004000
004000
004000
004040
3FFFA0
004000
004000
004000
004018
7FFFE0
00C000
008000
008400
010200
020100
020080
040740
3FF860
600020
ENDCHAR
STARTCHAR uni4E26
ENCODING -1
SWIDTH 1000 0
DWIDTH 24 0
BBX 22 20 1 -3
BITMAP
060180
010100
010200
000210
7FFFF8
008400
008400
008400
208430
208420
108420
108420
088440
088440
088480
008480
008400
008400
008408
FFFFFC
ENDCHAR
STARTCHAR uni4E2B
ENCODING -1
SWIDTH 1000 0
DWIDTH 24 0
BBX 15 22 5 -4
BITMAP
0002
C006
2004
1008
0810
0420
00C0
0100
0100
0100
0100
0100
0100
0100
0100
0100
0100
0100
0100
0100
0100
0100
ENDCHAR
STARTCHAR uni4E2D
ENCODING -1
SWIDTH 1000 0
DWIDTH 24 0
BBX 19 22 3 -4
BITMAP
00C000
008000
008000
008000
808060
FEFFC0
808040
808040
808040
808040
808040
808040
808040
FFFFC0
008040
008000
008000
008000
008000
008000
008000
008000
ENDCHAR
STARTCHAR uni4E2E
ENCODING -1
SWIDTH 1000 0
DWIDTH 24 0
BBX 21 22 2 -4
BITMAP
000080
FFFFC0
010080
010080
010080
010080
011080
3FE880
010080
010080
010080
010080
431C80
3DE080
010080
010040
010048
010048
010028
010038
010018
010008
ENDCHAR
STARTCHAR uni4E30
ENCODING -1
SWIDTH 1000 0
DWIDTH 24 0
BBX 21 22 2 -4
BITMAP
007000
004000
0041E0
004E00
01F000
FE4000
004000
004000
004040
7FFFE0
004000
004000
004000
004000
004018
FFFFE0
004000
004000
004000
004000
004000
004000
ENDCHAR
STARTCHAR uni4E31
ENCODING -1
SWIDTH 1000 0
DWIDTH 24 0
BBX 21 22 1 -4
BITMAP
00C600
008400
008400
008400
208408
208410
208410
208410
208410
208410
208410
208410
208410
3F87F0
610418
010400
010400
020400
040400
080400
100400
E00400
ENDCHAR
STARTCHAR uni4E32
ENCODING -1
SWIDTH 1000 0
DWIDTH 24 0
BBX 19 22 3 -4
BITMAP
006000
008000
008080
7FFF80
408080
408080
408080
7FFF80
408080
008000
00C060
FFFFE0
808040
808040
808040
FFFFC0
808040
008000
008000
008000
00C000
008000
ENDCHAR
STARTCHAR uni4E33
ENCODING -1
SWIDTH 1000 0
DWIDTH 24 0
BBX 19 22 3 -4
BITMAP
031800
021000
021000
7FFFC0
421080
421080
421080
7FFF80
421080
021000
021020
FFFFE0
821040
821040
821040
FFFFE0
841020
041000
041000
081000
101000
201000
ENDCHAR
STARTCHAR uni4E38
ENCODING -1
SWIDTH 1000 0
DWIDTH 24 0
BBX 21 21 2 -3
BITMAP
018000
010000
010000
010000
010200
7FFE00
010200
010200
010200
010200
010200
028200
026200
021200
040A00
040A08
080208
100208
200208
400208
8003F8
ENDCHAR
STARTCHAR uni4E39
ENCODING -1
SWIDTH 1000 0
DWIDTH 24 0
BBX 22 20 1 -3
BITMAP
0FFFE0
080040
080040
084040
082040
081040
081840
080040
08004C
FFFFF0
080040
080040
080040
080040
080040
100040
100040
200040
200040
400780
ENDCHAR
STARTCHAR uni4E3B
ENCODING -1
SWIDTH 1000 0
DWIDTH 24 0
BBX 22 21 1 -3
BITMAP
008000
004000
002000
001000
001030
3FFFC0
001000
001000
001000
001000
001000
001060
0FFF80
001000
001000
001000
001000
001000
001000
001008
FFFFFC
ENDCHAR
STARTCHAR uni4E3C
ENCODING -1
SWIDTH 1000 0
DWIDTH 24 0
BBX 22 22 1 -4
BITMAP
030180
020100
020100
020100
020100
7FFFF8
020100
020100
026100
021100
021900
020900
020100
86031C
7DFDE0
040100
040100
080100
080100
100100
200100
400100
ENDCHAR
STARTCHAR uni4E42
ENCODING -1
SWIDTH 1000 0
DWIDTH 24 0
BBX 20 20 2 -3
BITMAP
0000C0
100080
080080
080100
080100
040300
040200
020400
010400
010800
009800
005000
002000
007000
008800
010400
020300
0C0180
300070
C00030
ENDCHAR
STARTCHAR uni4E43
ENCODING -1
SWIDTH 1000 0
DWIDTH 24 0
BBX 22 20 1 -3
BITMAP
000180
3FFF80
008100
008100
008100
008200
008200
0103FC
010608
010008
020008
020008
020008
040018
040010
080010
100010
200020
400360
800080
ENDCHAR
STARTCHAR uni4E45
ENCODING -1
SWIDTH 1000 0
DWIDTH 24 0
BBX 20 22 2 -4
BITMAP
018000
010000
020000
020400
05FE00
040400
080800
100800
201000
401000
801000
003000
002800
004800
008400
008400
010200
060100
0800C0
300070
400010
800000
ENDCHAR
STARTCHAR uni4E47
ENCODING -1
SWIDTH 1000 0
DWIDTH 24 0
BBX 21 21 2 -3
BITMAP
000180
000700
003800
07C000
788000
008000
008000
008000
008000
008018
009FE0
7FE000
808000
008000
008000
008000
008000
008010
008010
008018
007FF0
ENDCHAR
STARTCHAR uni4E48
ENCODING -1
SWIDTH 1000 0
DWIDTH 24 0
BBX 20 21 2 -3
BITMAP
002000
006000
004000
008000
018000
010000
020000
040000
081000
101800
602000
802000
004000
008000
010100
010080
020040
040020
081FF0
7FE010
200000
ENDCHAR
STARTCHAR uni4E4B
ENCODING -1
SWIDTH 1000 0
DWIDTH 24 0
BBX 21 21 2 -3
BITMAP
006000
004000
004000
004000
7FFFE0
0000C0
000180
000100
000200
000400
000800
001000
002000
20C000
210000
520000
4C0000
480000
840000
838000
007FF8
ENDCHAR
STARTCHAR uni4E4D
ENCODING -1
SWIDTH 1000 0
DWIDTH 24 0
BBX 21 22 1 -4
BITMAP
030000
020000
040000
040018
0BFFE0
102000
102000
202000
402060
803FE0
002000
002000
002000
002020
003FF0
002000
002000
002000
002000
002000
002000
002000
ENDCHAR
STARTCHAR uni4E4E
ENCODING -1
SWIDTH 1000 0
DWIDTH 24 0
BBX 21 21 2 -3
BITMAP
0000E0
000F80
07F000
782000
002040
102060
082080
042080
042100
042200
002030
FFFFC8
002000
002000
002000
002000
002000
002000
002000
002000
03E000
ENDCHAR
STARTCHAR uni4E4F
ENCODING -1
SWIDTH 1000 0
DWIDTH 24 0
BBX 21 20 2 -3
BITMAP
0003C0
003C00
1FC000
604000
004000
004000
004000
3FBFC0
000180
000200
000400
000800
001000
206000
618000
620000
5C0000
880000
860000
81FFF8
ENDCHAR
STARTCHAR uni4E52
ENCODING -1
SWIDTH 1000 0
DWIDTH 24 0
BBX 22 21 1 -3
BITMAP
000180
001E40
07E000
040000
040000
040020
07FFF0
040200
040200
040200
040200
040200
040200
040218
FBFDE4
000000
030000
060000
0C0000
100000
600000
ENDCHAR
STARTCHAR uni4E53
ENCODING -1
SWIDTH 1000 0
DWIDTH 24 0
BBX 22 21 1 -3
BITMAP
000180
000FC0
07F000
040000
040000
040000
040070
07FF80
040200
040200
040200
040200
040200
040208
FFFFDC
000020
000000
000600
000180
000060
000030
ENDCHAR
STARTCHAR uni4E56
ENCODING -1
SWIDTH 1000 0
DWIDTH 24 0
BBX 22 22 1 -4
BITMAP
0000E0
003F00
3FF000
001000
001008
FFFFFC
001000
031100
021100
021108
02113C
3E11C0
021100
021100
021100
061108
7A1108
4211FC
001000
001000
003000
003000
ENDCHAR
STARTCHAR uni4E58
ENCODING -1
SWIDTH 1000 0
DWIDTH 24 0
BBX 21 22 2 -4
BITMAP
0003C0
007C00
3FA000
002000
002038
FFFFC0
002000
062200
042270
7C2380
042200
046210
1C7338
E4A8C0
012800
022600
042300
082180
302060
C02030
002000
002000
ENDCHAR
STARTCHAR uni4E59
ENCODING -1
SWIDTH 1000 0
DWIDTH 24 0
BBX 19 19 3 -2
BITMAP
000200
7FFF00
000C00
001800
003000
006000
008000
010000
020000
040000
080000
100000
300000
600020
400040
800040
800040
800060
7FFFC0
ENDCHAR
STARTCHAR uni4E5C
ENCODING -1
SWIDTH 1000 0
DWIDTH 24 0
BBX 22 20 1 -3
BITMAP
0C0000
080000
080030
0800F0
080F20
08F020
0F0020
F80020
080020
080020
080020
080020
080060
0803C0
080004
080008
080008
080008
0C003C
03FFE0
ENDCHAR
STARTCHAR uni4E5D
ENCODING -1
SWIDTH 1000 0
DWIDTH 24 0
BBX 22 21 1 -3
BITMAP
00C000
008000
008000
008000
008000
008000
7FFF80
008100
008100
008100
010100
010100
010100
010100
020100
020100
040108
040108
080108
300104
C000FC
ENDCHAR
STARTCHAR uni4E5E
ENCODING -1
SWIDTH 1000 0
DWIDTH 24 0
BBX 21 21 1 -3
BITMAP
030000
020000
040000
040030
0BFFC0
080000
100000
200000
4FFF00
800C00
001800
002000
004000
008000
010000
020008
040010
080010
100010
100018
0FFFF8
ENDCHAR
STARTCHAR uni4E5F
ENCODING -1
SWIDTH 1000 0
DWIDTH 24 0
BBX 22 21 1 -3
BITMAP
001000
001000
0C1000
081000
081030
0811F0
081E20
08F020
0F1020
F81020
081020
081020
081020
081020
081060
0811C0
081004
080008
080008
08000C
07FFFC
ENDCHAR
STARTCHAR uni4E69
ENCODING -1
SWIDTH 1000 0
DWIDTH 24 0
BBX 22 22 1 -4
BITMAP
060180
040100
040100
040100
041100
07E100
040100
040100
040100
040100
040100
841100
FBF100
801100
801100
801100
801104
801104
801104
C01104
BFF1FC
801000
ENDCHAR
STARTCHAR uni4E73
ENCODING -1
SWIDTH 1000 0
DWIDTH 24 0
BBX 22 21 1 -3
BITMAP
002100
00D100
3F0100
202100
221100
410900
810900
800100
7FF100
003100
004100
008100
030100
021100
03E100
1F0104
620104
020104
020104
020104
0E01FC
ENDCHAR
STARTCHAR uni4E7E
ENCODING -1
SWIDTH 1000 0
DWIDTH 24 0
BBX 22 22 1 -4
BITMAP
060200
040300
044400
FF8408
040FFC
040800
7FD000
40A000
408030
7F87F0
408020
408040
408080
7F8100
040200
040200
FFE404
040804
040808
041804
040FFC
0C0000
ENDCHAR
STARTCHAR uni4E7F
ENCODING -1
SWIDTH 1000 0
DWIDTH 24 0
BBX 22 22 1 -4
BITMAP
00C600
070400
380400
206400
422400
421400
880400
118400
230400
120400
1C4400
102400
7FE400
422400
020400
328400
224408
222408
422408
82040C
0203FC
020000
ENDCHAR
STARTCHAR uni4E82
ENCODING -1
SWIDTH 1000 0
DWIDTH 24 0
BBX 22 22 1 -4
BITMAP
00F0C0
3F0080
201080
210880
402480
8FF080
00C080
030080
010480
7FFC80
420880
446880
5FE880
400880
5FE880
404880
428884
418884
424884
4C0884
4038FC
400000
ENDCHAR
STARTCHAR uni4E83
ENCODING -1
SWIDTH 1000 0
DWIDTH 24 0
BBX 22 22 1 -4
BITMAP
030100
223100
1A2100
0A4100
7BF900
070100
0AC100
123100
621900
020100
303100
262100
3DF900
442100
C9A100
292100
092104
11FD04
212104
202104
4021FC
002000
ENDCHAR
STARTCHAR uni4E84
ENCODING -1
SWIDTH 1000 0
DWIDTH 24 0
BBX 22 21 1 -3
BITMAP
038180
010100
7FF900
020100
020100
1FD100
000100
3FFD00
400900
802100
1FC100
000100
203100
3FE100
202100
302100
2FE100
004104
084104
088104
3FFDFC
ENDCHAR
STARTCHAR uni4E86
ENCODING -1
SWIDTH 1000 0
DWIDTH 24 0
BBX 18 20 3 -3
BITMAP
0000C0
FFFFC0
000100
000600
000800
00F000
00C000
008000
008000
008000
008000
008000
008000
008000
008000
008000
008000
008000
0C8000
038000
ENDCHAR
STARTCHAR uni4E88
ENCODING -1
SWIDTH 1000 0
DWIDTH 24 0
BBX 21 20 2 -3
BITMAP
3FFFC0
000100
000600
018800
007000
002000
000010
FFFFF8
002020
002040
002180
002200
002000
002000
002000
002000
002000
002000
002000
03C000
ENDCHAR
STARTCHAR uni4E8B
ENCODING -1
SWIDTH 1000 0
DWIDTH 24 0
BBX 22 22 1 -4
BITMAP
001800
001008
7FFFF4
001000
001060
0FFFE0
081040
081040
0FFFC0
001000
001020
0FFFE0
001020
00102C
FFFFF0
001020
001020
1FFFE0
001020
001000
01F000
006000
ENDCHAR
STARTCHAR uni4E8C
ENCODING -1
SWIDTH 1000 0
DWIDTH 24 0
BBX 21 15 2 0
BITMAP
0001C0
3FFE00
000000
000000
000000
000000
000000
000000
000000
000000
000000
000000
000000
000030
FFFFF8
ENDCHAR
STARTCHAR uni4E8D
ENCODING -1
SWIDTH 1000 0
DWIDTH 24 0
BBX 22 21 1 -4
BITMAP
200070
1FFF80
000000
000000
000000
000008
FFEFFC
001000
001000
001000
001000
001000
001000
001000
001000
001000
001000
001000
001000
01E000
004000
ENDCHAR
STARTCHAR uni4E8E
ENCODING -1
SWIDTH 1000 0
DWIDTH 24 0
BBX 21 21 2 -4
BITMAP
4000E0
3FFF00
002000
002000
002000
002000
002000
002010
FFFFE8
002000
002000
002000
002000
002000
002000
002000
002000
002000
006000
03C000
008000
ENDCHAR
STARTCHAR uni4E91
ENCODING -1
SWIDTH 1000 0
DWIDTH 24 0
BBX 22 20 1 -3
BITMAP
000040
1FFFE0
000000
000000
000000
000000
000008
FFBFFC
004000
004000
008000
008000
008200
010100
010080
020040
020060
04FFA0
7F0010
000010
ENDCHAR
STARTCHAR uni4E92
ENCODING -1
SWIDTH 1000 0
DWIDTH 24 0
BBX 22 20 1 -3
BITMAP
000038
7FFFC0
008000
010000
010000
010080
03FFC0
020080
020100
040100
040100
040100
080300
0FFE00
080200
100200
000200
000400
000418
FFFFFC
ENDCHAR
STARTCHAR uni4E93
ENCODING -1
SWIDTH 1000 0
DWIDTH 24 0
BBX 20 21 2 -4
BITMAP
0000C0
3FFF00
000000
000000
000000
000030
FFFFC0
020400
020400
020400
020400
020400
020400
020400
040400
040400
080400
080400
100400
600400
000400
ENDCHAR
STARTCHAR uni4E94
ENCODING -1
SWIDTH 1000 0
DWIDTH 24 0
BBX 21 19 2 -2
BITMAP
000060
7FFF80
008000
008000
008000
010000
010000
010000
3FFF00
020100
020100
020100
020100
040100
040100
040100
040100
040100
FFFFF8
ENDCHAR
STARTCHAR uni4E95
ENCODING -1
SWIDTH 1000 0
DWIDTH 24 0
BBX 21 22 2 -4
BITMAP
030700
020400
020400
020400
020430
FFFFC0
020400
020400
020400
020400
020400
020400
040438
FFFFC0
040400
040400
080400
080400
100400
200400
400400
800400
ENDCHAR
STARTCHAR uni4E99
ENCODING -1
SWIDTH 1000 0
DWIDTH 24 0
BBX 22 20 1 -3
BITMAP
000038
7FFFC0
010000
010000
010000
01FF80
020180
020100
024100
043100
041900
040200
048200
084200
082200
082200
100200
000400
000408
FFFFFC
ENDCHAR
STARTCHAR uni4E9B
ENCODING -1
SWIDTH 1000 0
DWIDTH 24 0
BBX 21 21 2 -3
BITMAP
060C00
040800
040800
040800
640800
46E870
450F80
440800
440800
440810
444810
478818
F807F8
800000
000100
1FFF80
000000
000000
000000
000030
FFFFF8
ENDCHAR
STARTCHAR uni4E9E
ENCODING -1
SWIDTH 1000 0
DWIDTH 24 0
BBX 22 20 1 -3
BITMAP
80001C
7FFFE0
008400
008400
008400
218410
3F87F0
200010
200010
200010
200010
200010
3F87F0
208410
008400
008400
008400
008400
008408
FFFFFC
ENDCHAR
STARTCHAR uni4E9F
ENCODING -1
SWIDTH 1000 0
DWIDTH 24 0
BBX 22 21 1 -3
BITMAP
000010
7FFFF8
010000
020000
021800
05F000
0017F8
011218
3F9210
211210
211210
211120
211120
2110C0
2110C0
3F11A0
201218
001408
00E000
000008
FFFFFC
ENDCHAR
STARTCHAR uni4EA1
ENCODING -1
SWIDTH 1000 0
DWIDTH 24 0
BBX 20 21 2 -3
BITMAP
006000
004000
004000
004000
C04070
BFBF80
800000
800000
800000
800000
800000
800000
800000
800000
800000
800000
800000
800000
800000
600070
1FFFC0
ENDCHAR
STARTCHAR uni4EA2
ENCODING -1
SWIDTH 1000 0
DWIDTH 24 0
BBX 21 21 2 -3
BITMAP
006000
004000
004000
004030
FFBFC0
000000
000000
000000
03FC00
020400
020400
020400
020400
020400
020400
040400
040400
080410
080410
100408
6007F8
ENDCHAR
STARTCHAR uni4EA4
ENCODING -1
SWIDTH 1000 0
DWIDTH 24 0
BBX 22 22 1 -4
BITMAP
003000
002000
002018
FFFFFC
000000
030000
020300
0400C0
080060
110330
630200
050400
048400
004800
003000
003000
002800
00C400
010300
0600E0
180038
E00000
ENDCHAR
STARTCHAR uni4EA5
ENCODING -1
SWIDTH 1000 0
DWIDTH 24 0
BBX 22 22 1 -4
BITMAP
001000
001000
001000
00301C
7FEFE0
004000
008300
090300
060400
030C00
019800
00B0C0
004180
008300
030600
0C0C00
701400
006300
0080C0
030060
1C0030
E00000
ENDCHAR
STARTCHAR uni4EA6
ENCODING -1
SWIDTH 1000 0
DWIDTH 24 0
BBX 22 22 1 -4
BITMAP
001800
001000
001000
001008
7FEFF4
008200
008200
008200
008200
0C8240
108220
108210
208210
210208
41020C
810204
020204
040200
080200
100200
203C00
400000
ENDCHAR
STARTCHAR uni4EA8
ENCODING -1
SWIDTH 1000 0
DWIDTH 24 0
BBX 21 22 2 -4
BITMAP
003000
002000
002038
FFDFC0
000000
0FFF80
080100
080100
080100
0FFF00
000000
FFFFE0
0000C0
000300
003C00
002000
002000
002000
002000
002000
03C000
008000
ENDCHAR
STARTCHAR uni4EAB
ENCODING -1
SWIDTH 1000 0
DWIDTH 24 0
BBX 21 22 2 -4
BITMAP
003000
002010
FFDFE0
000000
080180
0FFF00
080100
080100
0FFF00
080100
000000
3FFF80
000100
000600
003800
002030
FFFFC8
002000
002000
002000
03E000
004000
ENDCHAR
STARTCHAR uni4EAC
ENCODING -1
SWIDTH 1000 0
DWIDTH 24 0
BBX 22 22 1 -4
BITMAP
001800
001000
001008
FFFFFC
000000
000000
0FFFE0
080040
080040
080040
080040
080040
0FFFC0
001000
021000
031100
0410C0
081020
101010
601018
01F000
002000
ENDCHAR
STARTCHAR uni4EAD
ENCODING -1
SWIDTH 1000 0
DWIDTH 24 0
BBX 22 22 1 -4
BITMAP
001800
002000
FFFFFC
000000
000080
07FFC0
040080
040080
07FF80
000000
000008
7FFFFC
400010
C00090
1FFF40
002000
002000
002000
002000
002000
01E000
004000
ENDCHAR
STARTCHAR uni4EAE
ENCODING -1
SWIDTH 1000 0
DWIDTH 24 0
BBX 21 22 2 -4
BITMAP
003000
002010
FFFFF8
000000
080100
0FFF00
080100
080100
0FFF00
080100
000000
7FFFF0
400020
C18840
810800
010800
020800
020810
020810
040810
180FF8
E00000
ENDCHAR
STARTCHAR uni4EB3
ENCODING -1
SWIDTH 1000 0
DWIDTH 24 0
BBX 21 21 2 -3
BITMAP
003000
002018
FFDFE0
000000
080180
0FFE80
080080
080180
0FFE80
400000
7FFFF8
800010
801F20
07E000
184000
0040E0
7FFF00
004008
004010
004008
007FF8
ENDCHAR
STARTCHAR uni4EB6
ENCODING -1
SWIDTH 1000 0
DWIDTH 24 0
BBX 22 21 1 -3
BITMAP
003000
002008
FFDFF4
000020
1FFFE0
100020
11FE20
110220
11FE20
100020
1FFFE0
000000
040080
07FF80
040080
07FF80
040080
040080
07FF80
000008
FFFFFC
ENDCHAR
STARTCHAR uni4EB9
ENCODING -1
SWIDTH 1000 0
DWIDTH 24 0
BBX 22 21 1 -3
BITMAP
003000
00301C
7FCFE0
068460
18FCA0
10F420
1C84E0
10F420
1ED5C0
10F440
7FFFFC
400008
860190
85FE80
040080
07FF80
040080
040080
07FF80
040088
FFFFFC
ENDCHAR
STARTCHAR uni4EBA
ENCODING -1
SWIDTH 1000 0
DWIDTH 24 0
BBX 21 21 2 -3
BITMAP
006000
004000
004000
004000
004000
004000
004000
006000
00A000
00A000
009000
009000
010800
010800
020400
040200
040300
080180
1000C0
600070
800018
ENDCHAR
STARTCHAR uni4EC0
ENCODING -1
SWIDTH 1000 0
DWIDTH 24 0
BBX 22 22 1 -4
BITMAP
060300
040200
040200
080200
080200
100200
180200
30020C
51FFFC
900200
100200
100200
100200
100200
100200
100200
100200
100200
100200
100200
100200
100200
ENDCHAR
STARTCHAR uni4EC1
ENCODING -1
SWIDTH 1000 0
DWIDTH 24 0
BBX 22 22 1 -4
BITMAP
060000
040000
040000
080010
08FFF8
100000
180000
300000
300000
500000
900000
100000
100000
100000
100000
100000
100000
100000
10000C
11FFF0
100000
180000
ENDCHAR
STARTCHAR uni4EC2
ENCODING -1
SWIDTH 1000 0
DWIDTH 24 0
BBX 22 22 1 -4
BITMAP
060400
040400
040400
040400
080400
080408
10FFFC
180408
300408
500408
900808
100808
100808
100808
101008
101008
102008
104010
104010
108010
1301E0
100000
ENDCHAR
STARTCHAR uni4EC3
ENCODING -1
SWIDTH 1000 0
DWIDTH 24 0
BBX 22 21 1 -4
BITMAP
060000
04801C
087FE0
080100
100100
180100
300100
300100
500100
900100
100100
100100
100100
100100
100100
100100
100100
100100
100100
100F00
100200
ENDCHAR
STARTCHAR uni4EC4
ENCODING -1
SWIDTH 1000 0
DWIDTH 24 0
BBX 22 20 1 -3
BITMAP
20001C
3FFFE0
200000
201800
201000
201000
201000
201800
201800
201800
201800
202400
202400
202200
204100
408100
408080
410040
860030
08001C
ENDCHAR
STARTCHAR uni4EC6
ENCODING -1
SWIDTH 1000 0
DWIDTH 24 0
BBX 22 22 1 -4
BITMAP
018300
010200
010200
020200
020200
040200
040200
0C0200
140380
240260
440218
84020C
040200
040200
040200
040200
040200
040200
040200
040200
040200
040200
ENDCHAR
STARTCHAR uni4EC7
ENCODING -1
SWIDTH 1000 0
DWIDTH 24 0
BBX 22 22 1 -4
BITMAP
061800
041000
041000
081000
081000
101000
13FFC0
301040
501040
901040
901040
101040
102040
102040
102040
104040
104044
108044
110044
110044
12007C
100000
ENDCHAR
STARTCHAR uni4EC8
ENCODING -1
SWIDTH 1000 0
DWIDTH 24 0
BBX 22 22 1 -4
BITMAP
060000
0400C0
0807C0
080080
080080
103080
182080
302080
502080
502080
902040
104040
104040
104020
104020
108020
108010
110010
110008
12000C
140000
100000
ENDCHAR
STARTCHAR uni4EC9
ENCODING -1
SWIDTH 1000 0
DWIDTH 24 0
BBX 22 22 1 -4
BITMAP
060000
0410C0
041F40
081040
081040
081040
101040
181040
301040
501040
501040
901040
101040
102040
102040
102040
102044
104044
104044
10804C
10807C
100000
ENDCHAR
STARTCHAR uni4ECA
ENCODING -1
SWIDTH 1000 0
DWIDTH 24 0
BBX 22 22 1 -4
BITMAP
003000
005000
004800
008400
010200
020100
0400C0
080260
37FF1C
400000
800000
000000
0000C0
1FFF80
000080
000100
000100
000100
000200
000200
000400
000400
ENDCHAR
STARTCHAR uni4ECB
ENCODING -1
SWIDTH 1000 0
DWIDTH 24 0
BBX 22 22 1 -4
BITMAP
003000
003000
004800
008400
010200
020100
0400C0
180060
23021C
C20200
020200
020200
020200
020200
020200
020200
040200
040200
080200
100200
200200
000200
ENDCHAR
STARTCHAR uni4ECD
ENCODING -1
SWIDTH 1000 0
DWIDTH 24 0
BBX 23 22 1 -4
BITMAP
060000
040040
047FE0
081040
081040
101080
181080
301080
5010FE
501084
901004
102004
102004
102008
102008
104008
104008
108008
108008
110410
1203F0
100000
ENDCHAR
STARTCHAR uni4ED4
ENCODING -1
SWIDTH 1000 0
DWIDTH 24 0
BBX 22 22 1 -4
BITMAP
0C0000
080018
08FFFC
100020
100040
100180
300600
300400
500400
900400
10040C
17FFF0
100400
100400
100400
100400
100400
100400
100400
100400
107C00
100000
ENDCHAR
STARTCHAR uni4ED5
ENCODING -1
SWIDTH 1000 0
DWIDTH 24 0
BBX 22 22 1 -4
BITMAP
060600
040400
0C0400
080400
080400
100400
100400
300408
53FFFC
900400
900400
100400
100400
100400
100400
100400
100400
100400
100400
100418
11FBE0
100000
ENDCHAR
STARTCHAR uni4ED6
ENCODING -1
SWIDTH 1000 0
DWIDTH 24 0
BBX 22 22 1 -4
BITMAP
040200
0C0200
084400
084400
104418
104478
184790
305C10
50E410
574410
904410
104410
104410
104410
104420
1044E0
104404
104004
104004
10400C
107FF8
100000
ENDCHAR
STARTCHAR uni4ED7
ENCODING -1
SWIDTH 1000 0
DWIDTH 24 0
BBX 22 22 1 -4
BITMAP
060300
0C0200
080200
080200
100200
10021C
33FFE0
300200
504200
90C200
90C200
112200
112400
101400
100C00
100C00
100C00
101300
1020C0
104070
11801C
160000
ENDCHAR
STARTCHAR uni4ED8
ENCODING -1
SWIDTH 1000 0
DWIDTH 24 0
BBX 22 22 1 -4
BITMAP
060040
040040
0C0040
080040
080040
1200DC
19FF60
300040
500040
904040
902040
101040
101040
100840
100040
100040
100040
100040
100040
1000C0
100F80
100100
ENDCHAR
STARTCHAR uni4ED9
ENCODING -1
SWIDTH 1000 0
DWIDTH 24 0
BBX 22 22 1 -4
BITMAP
060300
040200
080200
080200
088200
10C20C
188208
308208
508208
908208
908208
108208
108208
108208
108208
108208
108208
108208
108208
10FDF8
108008
100000
ENDCHAR
STARTCHAR uni4EDA
ENCODING -1
SWIDTH 1000 0
DWIDTH 24 0
BBX 22 22 1 -4
BITMAP
003000
003000
004800
008400
010200
020180
040040
080038
30000C
C03000
003000
002000
302010
302018
202010
202010
202010
202010
202010
303010
2FCFF0
200010
ENDCHAR
STARTCHAR uni4EDC
ENCODING -1
SWIDTH 1000 0
DWIDTH 24 0
BBX 22 22 1 -4
BITMAP
040000
0C0000
080010
08FFF8
100400
100400
180400
300400
500400
500400
900400
100400
100400
100400
100400
100400
100400
100400
100408
13FFFC
100000
100000
ENDCHAR
STARTCHAR uni4EDD
ENCODING -1
SWIDTH 1000 0
DWIDTH 24 0
BBX 21 21 2 -3
BITMAP
006000
006000
00A000
009000
010800
020400
040200
080100
1000C0
200070
C00318
07FC00
004000
004000
004000
004000
004000
004000
004000
004020
FFFFF0
ENDCHAR
STARTCHAR uni4EDE
ENCODING -1
SWIDTH 1000 0
DWIDTH 24 0
BBX 22 22 1 -4
BITMAP
060000
040004
04FFFC
080404
080404
100404
180404
304404
302408
501808
900808
100808
100808
101008
101008
102008
102008
104008
108010
118630
1201E0
100000
ENDCHAR
STARTCHAR uni4EDF
ENCODING -1
SWIDTH 1000 0
DWIDTH 24 0
BBX 22 22 1 -4
BITMAP
060030
0400E0
080F00
09F200
080200
100200
180200
300200
50020C
53FFFC
900200
100200
100200
100200
100200
100200
100200
100200
100200
100200
100600
100000
ENDCHAR
STARTCHAR uni4EE1
ENCODING -1
SWIDTH 1000 0
DWIDTH 24 0
BBX 22 22 1 -4
BITMAP
061000
0C1000
082000
082018
107FFC
108000
110000
320000
5000C0
503FE0
900100
100200
100400
100800
101000
102000
104008
10C008
108008
10800C
107FF8
100000
ENDCHAR
STARTCHAR uni4EE3
ENCODING -1
SWIDTH 1000 0
DWIDTH 24 0
BBX 22 22 1 -4
BITMAP
030400
020480
040460
040410
080400
080408
18043C
183FC0
29C400
480400
880400
080400
080200
080200
080200
080100
080104
080084
080048
080028
080018
080004
ENDCHAR
STARTCHAR uni4EE4
ENCODING -1
SWIDTH 1000 0
DWIDTH 24 0
BBX 22 22 1 -4
BITMAP
003000
005000
004800
008400
010200
020100
0400C0
1BFF70
20001C
C00000
000000
3FBFE0
004040
004040
004040
004040
004040
004040
004640
0041C0
004000
004000
ENDCHAR
STARTCHAR uni4EE5
ENCODING -1
SWIDTH 1000 0
DWIDTH 24 0
BBX 22 20 1 -3
BITMAP
180060
108020
104020
102040
101040
101040
100840
100040
100040
100040
100040
100080
101080
106080
108140
130230
1C0418
600808
C03004
00C000
ENDCHAR
STARTCHAR uni4EE8
ENCODING -1
SWIDTH 1000 0
DWIDTH 24 0
BBX 22 22 1 -4
BITMAP
060000
040000
040000
080030
087FC8
100000
180000
300000
300000
500000
900060
103F90
100000
100000
100000
100000
100000
100000
10000C
11FFF0
100000
180000
ENDCHAR
STARTCHAR uni4EE9
ENCODING -1
SWIDTH 1000 0
DWIDTH 24 0
BBX 22 22 1 -4
BITMAP
060C00
040800
0C0800
080800
080800
100800
100800
300800
500FFC
900800
900800
100800
100800
100800
100800
100800
100800
100800
100800
10080C
11F7F0
100000
ENDCHAR
STARTCHAR uni4EF0
ENCODING -1
SWIDTH 1000 0
DWIDTH 24 0
BBX 22 22 1 -4
BITMAP
0C0000
081B0C
0962F8
118208
110208
110208
310208
310208
510208
910208
110208
110208
110208
110208
111A08
11E208
130278
120210
100200
100200
100200
100200
ENDCHAR
STARTCHAR uni4EF1
ENCODING -1
SWIDTH 1000 0
DWIDTH 24 0
BBX 23 22 1 -4
BITMAP
060E00
040C00
081200
081100
102080
104040
184060
308110
533E8E
540000
900000
100000
11FFE0
100040
100040
100080
100080
100100
100100
100200
100200
100400
ENDCHAR
STARTCHAR uni4EF2
ENCODING -1
SWIDTH 1000 0
DWIDTH 24 0
BBX 22 22 1 -4
BITMAP
060300
040200
080200
080200
08820C
10FFFC
188208
308208
508208
508208
908208
108208
10FFF8
10820C
108200
100200
100200
100200
100200
100200
100200
100200
ENDCHAR
STARTCHAR uni4EF3
ENCODING -1
SWIDTH 1000 0
DWIDTH 24 0
BBX 22 22 1 -4
BITMAP
06C180
048100
0C8100
088100
088100
108100
108100
308918
50F1E0
508100
908100
108100
108100
108100
108100
108100
108104
108504
109904
10E104
1181FC
100000
ENDCHAR
STARTCHAR uni4EF4
ENCODING -1
SWIDTH 1000 0
DWIDTH 24 0
BBX 22 22 1 -4
BITMAP
060000
047FFC
042008
082008
082008
102008
182008
303FF8
502008
902008
102008
104008
107FF8
104008
104008
104008
104008
108008
108008
108008
110078
100000
ENDCHAR
STARTCHAR uni4EF5
ENCODING -1
SWIDTH 1000 0
DWIDTH 24 0
BBX 23 22 0 -4
BITMAP
021800
061000
041000
04200C
083FF0
084100
188100
188100
280100
480100
880106
087FF8
080100
080100
080100
080100
080100
080100
080100
080100
080100
080100
ENDCHAR
STARTCHAR uni4EF6
ENCODING -1
SWIDTH 1000 0
DWIDTH 24 0
BBX 22 22 1 -4
BITMAP
040300
0C0200
087200
084200
104200
108210
30FFE8
310200
510200
920200
900200
100208
13FFFC
100200
100200
100200
100200
100200
100200
100200
100600
100400
ENDCHAR
STARTCHAR uni4EF7
ENCODING -1
SWIDTH 1000 0
DWIDTH 24 0
BBX 22 22 1 -4
BITMAP
060600
040A00
080A00
081100
081080
102040
104030
308018
5130CC
562080
902080
102080
102080
102080
102080
102080
104080
104080
108080
110080
120080
140000
ENDCHAR
STARTCHAR uni4EFB
ENCODING -1
SWIDTH 1000 0
DWIDTH 24 0
BBX 22 22 1 -4
BITMAP
060000
040070
040780
09FC00
080400
100400
100400
380400
500400
500408
93FFFC
100400
100400
100400
100400
100400
100400
100400
100400
100418
11FBE0
100000
ENDCHAR
STARTCHAR uni4EFD
ENCODING -1
SWIDTH 1000 0
DWIDTH 24 0
BBX 22 22 1 -4
BITMAP
060080
040380
080080
082080
104040
104040
388020
308010
51001C
920020
103FE0
101020
101020
101020
101020
102020
102020
104040
104040
108040
1307C0
100000
ENDCHAR
STARTCHAR uni4EFF
ENCODING -1
SWIDTH 1000 0
DWIDTH 24 0
BBX 22 22 1 -4
BITMAP
040600
040400
080400
080400
11FFFC
100800
100800
300800
500800
500FF0
901010
101010
101010
101020
102020
102020
102020
104020
104020
108860
1107C0
100000
ENDCHAR
STARTCHAR uni4F00
ENCODING -1
SWIDTH 1000 0
DWIDTH 24 0
BBX 22 22 1 -4
BITMAP
060000
040780
080080
081880
082080
102040
102020
304020
504010
50860C
910404
120800
100800
100800
101080
101040
102020
102030
105FD0
11E008
100008
100000
ENDCHAR
STARTCHAR uni4F01
ENCODING -1
SWIDTH 1000 0
DWIDTH 24 0
BBX 22 21 1 -3
BITMAP
003000
003000
004800
008400
010200
020100
041880
081060
10103C
601008
061000
041000
0410E0
041F00
041000
041000
041000
041000
041000
041008
FFFFFC
ENDCHAR
STARTCHAR uni4F02
ENCODING -1
SWIDTH 1000 0
DWIDTH 24 0
BBX 22 22 1 -4
BITMAP
060300
040200
0C0200
08020C
087FF0
100200
180200
300208
507FF8
504208
904208
104208
104208
104208
104208
104208
104208
1042D8
104230
100200
100200
100200
ENDCHAR
STARTCHAR uni4F04
ENCODING -1
SWIDTH 1000 0
DWIDTH 24 0
BBX 22 22 1 -4
BITMAP
0C0000
08FFF8
080410
080410
100410
100410
10FFF0
308410
508400
510400
910400
11040C
11FFFC
120408
100408
100408
100408
100490
100470
100400
100400
100400
ENDCHAR
STARTCHAR uni4F05
ENCODING -1
SWIDTH 1000 0
DWIDTH 24 0
BBX 22 22 1 -4
BITMAP
040600
060400
080438
0804E0
080700
11FC00
180400
300410
50C410
508410
908410
108410
108410
108410
10FFF0
108410
100404
100404
100404
100404
1003FC
100000
ENDCHAR
STARTCHAR uni4F08
ENCODING -1
SWIDTH 1000 0
DWIDTH 24 0
BBX 22 22 1 -4
BITMAP
040000
061000
080C00
080300
080180
103000
102000
302000
502000
502000
912010
112008
112008
112004
112004
122020
162020
102020
102020
103030
100FE0
100000
ENDCHAR
STARTCHAR uni4F09
ENCODING -1
SWIDTH 1000 0
DWIDTH 24 0
BBX 22 22 1 -4
BITMAP
060300
040200
080200
08021C
08FDE0
100000
180000
300040
501FC0
901040
901040
101040
102040
102040
102040
102040
104044
104044
108044
110044
12007C
100000
ENDCHAR
STARTCHAR uni4F0A
ENCODING -1
SWIDTH 1000 0
DWIDTH 24 0
BBX 22 22 1 -4
BITMAP
0C0000
0C0030
08FFF0
100820
100820
100820
30082C
23FFF0
600820
A00820
200820
200820
23FFE0
200820
201000
201000
202000
202000
204000
208000
310000
200000
ENDCHAR
STARTCHAR uni4F0B
ENCODING -1
SWIDTH 1000 0
DWIDTH 24 0
BBX 22 22 1 -4
BITMAP
040000
0C00C0
087F40
082040
102080
102080
302080
302080
503FF8
903018
903010
102810
104820
104420
104440
108280
108180
110180
110640
120830
14300C
104000
ENDCHAR
STARTCHAR uni4F0D
ENCODING -1
SWIDTH 1000 0
DWIDTH 24 0
BBX 22 22 1 -4
BITMAP
0C0000
080018
09FFE0
100800
100800
101000
301000
301000
501000
91FFE0
101020
102020
102020
102020
102020
102020
102020
104020
104020
10402C
13BFD0
100000
ENDCHAR
STARTCHAR uni4F0E
ENCODING -1
SWIDTH 1000 0
DWIDTH 24 0
BBX 22 22 1 -4
BITMAP
060600
040400
080400
080408
13FFFC
100400
300400
300400
500400
91FFF0
104020
104040
104040
102080
101080
101100
100E00
100600
101980
1060E0
11803C
120000
ENDCHAR
STARTCHAR uni4F0F
ENCODING -1
SWIDTH 1000 0
DWIDTH 24 0
BBX 22 22 1 -4
BITMAP
060400
040480
040440
080420
080400
100400
180418
31FFE0
500400
500C00
900A00
100A00
100A00
101100
101100
102080
102040
104020
108030
11001C
120008
100000
ENDCHAR
STARTCHAR uni4F10
ENCODING -1
SWIDTH 1000 0
DWIDTH 24 0
BBX 22 22 1 -4
BITMAP
060C00
040880
040860
080820
080800
08080C
100FF0
1BF800
300800
500410
900420
900460
100440
100280
100300
100300
100580
101884
106044
118034
10001C
100000
ENDCHAR
STARTCHAR uni4F11
ENCODING -1
SWIDTH 1000 0
DWIDTH 24 0
BBX 22 22 1 -4
BITMAP
060600
040400
080400
080400
080400
100418
19FFE0
300C00
300E00
501600
901500
102500
102480
104440
108420
110430
120418
14040C
100400
100400
100400
100000
ENDCHAR
STARTCHAR uni4F12
ENCODING -1
SWIDTH 1000 0
DWIDTH 24 0
BBX 23 22 1 -4
BITMAP
060070
040780
08F800
088000
108000
108000
30800C
30FFFE
508100
908100
108100
108100
108100
108100
108100
108100
110100
110100
110100
120100
120180
100000
ENDCHAR
STARTCHAR uni4F13
ENCODING -1
SWIDTH 1000 0
DWIDTH 24 0
BBX 22 22 1 -4
BITMAP
040008
0DFDFC
080200
080200
100400
100400
100C00
300E00
501400
5024C0
902420
104418
108408
130404
100400
100400
100400
100400
100400
100400
100400
100400
ENDCHAR
STARTCHAR uni4F14
ENCODING -1
SWIDTH 1000 0
DWIDTH 24 0
BBX 22 22 1 -4
BITMAP
0C0000
088008
08FFFC
090010
110000
100000
3000C0
301FC0
501080
901080
901080
101080
101080
101080
102080
102080
102084
104084
104084
108044
11007C
100000
ENDCHAR
STARTCHAR uni4F15
ENCODING -1
SWIDTH 1000 0
DWIDTH 24 0
BBX 22 22 1 -4
BITMAP
060600
040400
080400
080400
080400
100438
18FFC0
300400
500400
500400
900C1C
11FFE0
100C00
100A00
101200
101100
102080
102040
104060
108038
13000C
100000
ENDCHAR
STARTCHAR uni4F18
ENCODING -1
SWIDTH 1000 0
DWIDTH 24 0
BBX 22 22 1 -4
BITMAP
020600
060480
040460
040420
080400
080400
18FFFC
180400
280400
480500
880500
080500
080900
080900
080900
080900
081104
082104
082104
084104
0981FC
080000
ENDCHAR
STARTCHAR uni4F19
ENCODING -1
SWIDTH 1000 0
DWIDTH 24 0
BBX 22 21 1 -3
BITMAP
060000
040600
040400
080400
080400
102400
18241C
302410
304620
504640
90C780
108600
100500
100900
100880
101080
102040
102060
104030
11801C
1A0008
ENDCHAR
STARTCHAR uni4F1D
ENCODING -1
SWIDTH 1000 0
DWIDTH 24 0
BBX 22 22 1 -4
BITMAP
060000
040010
08FFF8
080000
080000
100000
180000
300008
31F3FC
500C00
900800
100800
101000
101000
101020
102010
102010
104038
104FCC
11F004
110004
100000
ENDCHAR
STARTCHAR uni4F22
ENCODING -1
SWIDTH 1000 0
DWIDTH 24 0
BBX 22 22 1 -4
BITMAP
060000
0CFFF8
080080
086080
104080
104080
104080
308080
50808C
50FFF0
900180
100280
100480
100880
101080
102080
104080
108080
130080
100080
100780
100000
ENDCHAR
STARTCHAR uni4F2C
ENCODING -1
SWIDTH 1000 0
DWIDTH 24 0
BBX 22 21 1 -3
BITMAP
020000
062018
043FF8
042010
082010
082010
182010
302010
302010
503FF0
902200
102100
102100
102100
102080
104080
104040
104020
108030
110018
19000C
ENDCHAR
STARTCHAR uni4F2D
ENCODING -1
SWIDTH 1000 0
DWIDTH 24 0
BBX 22 22 1 -4
BITMAP
060200
040200
040200
08020C
09FFF0
100400
100800
300800
501000
501060
90E080
102080
103100
101100
100200
100400
100810
100808
101008
11FFF4
110004
100000
ENDCHAR
STARTCHAR uni4F2F
ENCODING -1
SWIDTH 1000 0
DWIDTH 24 0
BBX 22 21 1 -3
BITMAP
060300
040200
040200
080400
08441C
107BE8
184008
304008
304008
504008
904008
107FF8
104008
104008
104008
104008
104008
104008
104008
107FF8
184008
ENDCHAR
STARTCHAR uni4F30
ENCODING -1
SWIDTH 1000 0
DWIDTH 24 0
BBX 22 22 1 -4
BITMAP
060200
040200
040200
080200
080200
10020C
19FFF0
300200
300200
500200
900200
100200
10FFF8
108010
108010
108010
108010
108010
108010
10FFF0
108010
100000
ENDCHAR
STARTCHAR uni4F33
ENCODING -1
SWIDTH 1000 0
DWIDTH 24 0
BBX 22 22 1 -4
BITMAP
06C420
0CC420
088420
088420
108420
108420
10C42C
31BFF0
508420
908420
908420
108420
108420
108420
1087E0
108420
108000
108000
108018
10FFE0
108000
100000
ENDCHAR
STARTCHAR uni4F34
ENCODING -1
SWIDTH 1000 0
DWIDTH 24 0
BBX 22 22 1 -4
BITMAP
040200
060200
082240
084220
084210
108208
110204
320220
50FFF0
500200
900200
100200
100200
13FFFC
100200
100200
100200
100200
100200
100200
100200
100400
ENDCHAR
STARTCHAR uni4F36
ENCODING -1
SWIDTH 1000 0
DWIDTH 24 0
BBX 22 22 1 -4
BITMAP
060600
040C00
040A00
081100
082080
104040
108030
31019C
361E00
500000
900000
13FFF0
100810
100810
100810
100810
100810
1009F0
100860
100800
101800
100000
ENDCHAR
STARTCHAR uni4F38
ENCODING -1
SWIDTH 1000 0
DWIDTH 24 0
BBX 22 22 1 -4
BITMAP
060300
040200
0C0200
080200
08820C
10FFFC
188208
308208
508208
50FFF8
908208
108208
108208
108208
10FFF8
108208
100200
100200
100200
100200
100200
100200
ENDCHAR
STARTCHAR uni4F3A
ENCODING -1
SWIDTH 1000 0
DWIDTH 24 0
BBX 23 22 0 -4
BITMAP
030000
020006
043FFC
040004
080004
0800C4
187F04
180004
280004
484084
887F84
084084
084084
084084
084084
087F84
084084
080004
080004
080004
08007C
080000
ENDCHAR
STARTCHAR uni4F3B
ENCODING -1
SWIDTH 1000 0
DWIDTH 24 0
BBX 22 22 1 -4
BITMAP
0C0000
080038
08FFC0
080400
103480
102440
304420
304410
508418
910408
900400
100408
13FFFC
100400
100400
100400
100400
100400
100400
100400
100400
100400
ENDCHAR
STARTCHAR uni4F3C
ENCODING -1
SWIDTH 1000 0
DWIDTH 24 0
BBX 22 22 1 -4
BITMAP
060000
04C030
0C8020
088820
088420
108220
188220
308020
508020
908020
908020
108020
108040
108440
108840
10B0A0
10C090
110108
110208
100404
101804
100000
ENDCHAR
STARTCHAR uni4F3D
ENCODING -1
SWIDTH 1000 0
DWIDTH 24 0
BBX 23 22 0 -4
BITMAP
023000
062000
042000
042000
08207E
09FE42
182242
182242
282242
482242
884242
084242
084242
084442
084442
088442
088442
088442
090442
0A0C7E
0A38C2
080000
ENDCHAR
STARTCHAR uni4F3E
ENCODING -1
SWIDTH 1000 0
DWIDTH 24 0
BBX 22 22 1 -4
BITMAP
040000
0C000C
087FF0
080200
100200
100400
180E00
300A40
501220
902210
904208
108204
100200
100200
100200
100200
100200
100200
100200
100008
11FFFC
100000
ENDCHAR
STARTCHAR uni4F3F
ENCODING -1
SWIDTH 1000 0
DWIDTH 24 0
BBX 22 22 1 -4
BITMAP
060000
040018
0C7FF0
084010
084010
104010
104010
304010
504010
504010
904010
107FF0
10C010
100000
1018C0
101020
102010
104008
108008
110004
120004
100000
ENDCHAR
STARTCHAR uni4F41
ENCODING -1
SWIDTH 1000 0
DWIDTH 24 0
BBX 22 22 1 -4
BITMAP
030400
040600
040400
040800
080800
081020
101010
382008
3043FC
51FC04
900000
100000
104018
107FF8
104010
104010
104010
104010
104010
107FF0
104010
100000
ENDCHAR
STARTCHAR uni4F43
ENCODING -1
SWIDTH 1000 0
DWIDTH 24 0
BBX 22 22 1 -4
BITMAP
040000
0C0000
09FFFC
090208
110208
110208
310208
310208
510208
910208
91FFF8
110208
110208
110208
110208
110208
110208
110208
110208
11FFF8
110008
100000
ENDCHAR
STARTCHAR uni4F46
ENCODING -1
SWIDTH 1000 0
DWIDTH 24 0
BBX 22 22 1 -4
BITMAP
060000
040000
087FF0
084020
084020
104020
184020
304020
307FE0
504020
904020
104020
104020
104020
104020
107FE0
104000
100000
100000
10001C
13FFE0
100000
ENDCHAR
STARTCHAR uni4F47
ENCODING -1
SWIDTH 1000 0
DWIDTH 24 0
BBX 22 22 1 -4
BITMAP
060700
040400
080400
08060C
09F9FC
110008
1A0010
300000
500000
50000C
91FFF0
100400
100400
100400
100400
100400
100400
100400
100400
100400
101C00
100000
ENDCHAR
STARTCHAR uni4F48
ENCODING -1
SWIDTH 1000 0
DWIDTH 24 0
BBX 22 22 1 -4
BITMAP
040400
060800
0C0800
08081C
09F7E0
101000
182300
302200
504208
50FFF8
90C210
114210
164210
104210
104210
104210
104210
104210
104270
104200
100200
100200
ENDCHAR
STARTCHAR uni4F49
ENCODING -1
SWIDTH 1000 0
DWIDTH 24 0
BBX 22 22 1 -4
BITMAP
060600
040400
0C0400
080400
080430
10FFC0
100400
300400
500400
500400
90040C
11FFF0
100800
100800
101000
101040
102020
104010
1041E8
13FE08
100008
100000
ENDCHAR
STARTCHAR uni4F4C
ENCODING -1
SWIDTH 1000 0
DWIDTH 24 0
BBX 22 22 1 -4
BITMAP
060000
0C3180
082100
082100
11A100
112100
312100
312D18
5131E0
912100
912100
112100
112100
112100
112100
112100
112100
112D08
113108
13C108
1300FC
100000
ENDCHAR
STARTCHAR uni4F4D
ENCODING -1
SWIDTH 1000 0
DWIDTH 24 0
BBX 22 22 1 -4
BITMAP
040400
060600
080400
080400
080410
11FFFC
100000
300000
500030
508040
904040
104040
102040
102080
102080
101080
101100
100100
100100
10020C
11FDF0
100000
ENDCHAR
STARTCHAR uni4F4E
ENCODING -1
SWIDTH 1000 0
DWIDTH 24 0
BBX 22 22 1 -4
BITMAP
060000
0401F0
08DE00
08A200
108200
108200
188200
308210
50FFE8
908200
908100
108100
108100
108080
108080
108244
10FC44
13C024
10001C
1000C4
10FF00
100000
ENDCHAR
STARTCHAR uni4F4F
ENCODING -1
SWIDTH 1000 0
DWIDTH 24 0
BBX 22 22 1 -4
BITMAP
060000
040800
080400
080400
080018
11FFE4
180400
300400
500400
900400
900400
100630
10FDC0
100400
100400
100400
100400
100400
100400
10040C
13FBF0
100000
ENDCHAR
STARTCHAR uni4F50
ENCODING -1
SWIDTH 1000 0
DWIDTH 24 0
BBX 22 22 1 -4
BITMAP
040800
0C0800
080800
080800
101008
13FFF4
301000
302000
502000
502000
904000
104038
10BFC0
110200
110200
120200
140200
100200
100200
10020C
13FDF0
100000
ENDCHAR
STARTCHAR uni4F51
ENCODING -1
SWIDTH 1000 0
DWIDTH 24 0
BBX 22 22 1 -4
BITMAP
040C00
080800
080800
080800
101000
12181C
31F7E0
302000
502000
902000
904000
10FFF8
10C010
114010
124010
144010
104010
104010
104010
107FF0
104010
100010
ENDCHAR
STARTCHAR uni4F52
ENCODING -1
SWIDTH 1000 0
DWIDTH 24 0
BBX 23 22 1 -4
BITMAP
060600
040400
080400
088430
10F7F0
108420
308420
308420
508420
908420
908424
13FFFE
100600
100600
100900
100900
101080
101040
102020
104018
11800C
100000
ENDCHAR
STARTCHAR uni4F53
ENCODING -1
SWIDTH 1000 0
DWIDTH 24 0
BBX 23 21 1 -3
BITMAP
040600
040400
080400
080400
100408
13FFFC
100E00
301600
501500
902500
902480
104480
108440
108420
110410
120458
14FF8E
100400
100400
100400
100400
ENDCHAR
STARTCHAR uni4F54
ENCODING -1
SWIDTH 1000 0
DWIDTH 24 0
BBX 22 22 1 -4
BITMAP
040400
060600
040400
080400
080400
10041C
1807E0
300400
300400
500400
900400
100410
10FBF8
108010
108010
108010
108010
108010
108010
108010
10FFF0
100010
ENDCHAR
STARTCHAR uni4F55
ENCODING -1
SWIDTH 1000 0
DWIDTH 24 0
BBX 24 22 0 -4
BITMAP
060000
040004
04FFFF
080010
080010
080010
180110
287F10
284110
484110
884110
084110
084110
084310
08FD10
08C010
080010
080010
080010
080010
0800F0
080020
ENDCHAR
STARTCHAR uni4F56
ENCODING -1
SWIDTH 1000 0
DWIDTH 24 0
BBX 22 22 1 -4
BITMAP
041000
080C10
080230
080120
100020
101020
101040
301040
501080
501080
909090
111108
111208
111204
111404
121800
101000
103020
105020
109030
110FC0
120000
ENDCHAR
STARTCHAR uni4F57
ENCODING -1
SWIDTH 1000 0
DWIDTH 24 0
BBX 22 22 1 -4
BITMAP
060600
040400
0C0400
080400
09FBFC
110008
190010
322000
502000
502000
902070
102080
102300
103C00
102000
102000
102008
102008
102008
102008
101FF8
100000
ENDCHAR
STARTCHAR uni4F58
ENCODING -1
SWIDTH 1000 0
DWIDTH 24 0
BBX 21 22 2 -4
BITMAP
006000
00E000
009000
010800
020400
040300
1800C0
200678
C3F800
000000
000000
000070
7FFF80
002000
062000
0C2300
082080
1020C0
202060
402020
81E000
008000
ENDCHAR
STARTCHAR uni4F59
ENCODING -1
SWIDTH 1000 0
DWIDTH 24 0
BBX 21 22 2 -4
BITMAP
007000
006000
009000
010800
020600
040100
1800C0
200638
CFF800
002000
002000
002020
FFFFF0
002000
042000
0C2200
082100
1020C0
202060
402020
01E000
004000
ENDCHAR
STARTCHAR uni4F5A
ENCODING -1
SWIDTH 1000 0
DWIDTH 24 0
BBX 22 22 1 -4
BITMAP
060600
040600
086400
084400
108400
108638
117FC0
310400
520400
900400
900408
13FFF4
100600
100600
100900
100900
101080
101040
102020
10C018
11000C
120000
ENDCHAR
STARTCHAR uni4F5B
ENCODING -1
SWIDTH 1000 0
DWIDTH 24 0
BBX 23 22 1 -4
BITMAP
061980
041100
081100
081118
10FFF8
101110
101110
311110
51FFF0
911100
921100
121104
13FFFE
122104
102104
102104
102108
104168
108110
108100
110100
100100
ENDCHAR
STARTCHAR uni4F5C
ENCODING -1
SWIDTH 1000 0
DWIDTH 24 0
BBX 22 22 1 -4
BITMAP
061000
043000
042000
08200C
087FF0
104400
188400
308400
510400
9007F8
100400
100400
100400
100400
100418
1007E0
100400
100400
100400
100400
100400
100400
ENDCHAR
STARTCHAR uni4F5D
ENCODING -1
SWIDTH 1000 0
DWIDTH 24 0
BBX 22 22 1 -4
BITMAP
043000
082000
082000
084000
107FFC
108008
310008
310008
520108
907F88
904108
104108
104108
104108
104108
107F08
100008
100010
100010
100030
1001E0
100040
ENDCHAR
STARTCHAR uni4F5E
ENCODING -1
SWIDTH 1000 0
DWIDTH 24 0
BBX 23 22 1 -4
BITMAP
060000
040030
047FC0
080000
080000
100000
1BFFFE
300000
500600
500800
900804
13FFF8
101020
102040
102040
104040
10B880
100700
1002C0
100C30
10F008
110000
ENDCHAR
STARTCHAR uni4F5F
ENCODING -1
SWIDTH 1000 0
DWIDTH 24 0
BBX 22 22 1 -4
BITMAP
060800
040C00
040800
081FF0
083020
105040
108840
390880
300500
500300
900500
1008C0
103030
10C00C
110F00
100080
100000
100008
100070
100780
103800
102000
ENDCHAR
STARTCHAR uni4F60
ENCODING -1
SWIDTH 1000 0
DWIDTH 24 0
BBX 22 22 1 -4
BITMAP
042000
063000
082000
084000
084000
10FFFC
108208
390210
320200
500200
906240
104240
104220
108210
108210
108208
110208
120208
120200
100200
101E00
100400
ENDCHAR
STARTCHAR uni4F61
ENCODING -1
SWIDTH 1000 0
DWIDTH 24 0
BBX 22 22 1 -4
BITMAP
040C00
060C00
080C00
081200
082100
102080
104040
308030
31001C
520400
940600
110410
110410
110410
110410
110410
110410
110410
110410
11FFF0
110010
110010
ENDCHAR
STARTCHAR uni4F62
ENCODING -1
SWIDTH 1000 0
DWIDTH 24 0
BBX 22 22 1 -4
BITMAP
060000
048038
08FFC0
088000
088000
108000
108010
30FFF0
508010
508010
908010
108010
108010
10FFF0
108010
108000
108000
108000
108008
10FFFC
108000
108000
ENDCHAR
STARTCHAR uni4F63
ENCODING -1
SWIDTH 1000 0
DWIDTH 24 0
BBX 22 21 1 -3
BITMAP
060000
04FFFC
088208
088208
088208
188208
108208
30FFF8
308208
508208
908208
108208
108608
10FFF8
108208
110208
110208
110208
110208
120678
120610
ENDCHAR
STARTCHAR uni4F64
ENCODING -1
SWIDTH 1000 0
DWIDTH 24 0
BBX 22 22 1 -4
BITMAP
040000
0C0018
08FFE0
082000
102000
102000
1020C0
303F80
502080
902080
902880
102480
102480
104280
104080
104084
104084
104184
105E84
11E084
1300FC
100000
ENDCHAR
STARTCHAR uni4F67
ENCODING -1
SWIDTH 1000 0
DWIDTH 24 0
BBX 22 22 1 -4
BITMAP
060E00
040C00
080800
080830
080FC0
100800
100800
300808
53FFFC
900800
900800
100C00
100B00
100880
100860
100830
100810
100800
100800
100800
100C00
100000
ENDCHAR
STARTCHAR uni4F69
ENCODING -1
SWIDTH 1000 0
DWIDTH 24 0
BBX 23 22 1 -4
BITMAP
0C0000
09FFF8
110018
110010
110190
313E10
310410
510410
517FD0
914490
914490
114490
114490
124490
124490
124492
12478C
12458C
14040C
140404
100406
100000
ENDCHAR
STARTCHAR uni4F6A
ENCODING -1
SWIDTH 1000 0
DWIDTH 24 0
BBX 22 21 1 -3
BITMAP
060000
0C0000
08801C
08FFE8
108008
108008
108008
309FC8
509088
909088
909088
109088
109088
109088
109F88
109088
108008
108008
108008
10FFF8
118008
ENDCHAR
STARTCHAR uni4F6B
ENCODING -1
SWIDTH 1000 0
DWIDTH 24 0
BBX 22 22 1 -4
BITMAP
041800
0C1000
083060
082FE0
1060C0
109080
111100
320A00
500600
900900
9010C0
106038
11800C
12C030
10BFE0
108020
108020
108020
108020
10C020
10BFE0
100000
ENDCHAR
STARTCHAR uni4F6C
ENCODING -1
SWIDTH 1000 0
DWIDTH 24 0
BBX 22 21 1 -3
BITMAP
060C00
040808
040808
080890
087F30
100820
180840
300880
500D9C
51F260
900400
100800
103010
106060
11A180
122600
103800
102008
102008
10300C
101FF8
ENDCHAR
STARTCHAR uni4F6E
ENCODING -1
SWIDTH 1000 0
DWIDTH 24 0
BBX 22 22 1 -4
BITMAP
060600
040600
080A00
081100
101080
102040
104030
30801C
517FE0
520000
900000
100000
108030
10FFD0
108010
108010
108010
108010
108010
10FFF0
108010
108000
ENDCHAR
STARTCHAR uni4F6F
ENCODING -1
SWIDTH 1000 0
DWIDTH 24 0
BBX 22 22 1 -4
BITMAP
060020
044060
082040
081080
080108
11FEF4
180400
300400
500400
900638
90FDC0
100400
100400
100400
13FFFC
100400
100400
100400
100400
100400
100400
100400
ENDCHAR
STARTCHAR uni4F70
ENCODING -1
SWIDTH 1000 0
DWIDTH 24 0
BBX 22 22 1 -4
BITMAP
060000
0C0008
09FFF4
080600
080400
100400
180800
307FF8
504010
504010
904010
104010
104010
107FF0
104010
104010
104010
104010
104010
10FFF0
10C010
100000
ENDCHAR
STARTCHAR uni4F73
ENCODING -1
SWIDTH 1000 0
DWIDTH 24 0
BBX 23 22 0 -4
BITMAP
020300
060200
040200
040200
08FFF8
080200
180200
180200
280204
49FDFA
880200
080200
080200
080218
08FFE0
080200
080200
080200
080200
080206
09FDF8
080000
ENDCHAR
STARTCHAR uni4F74
ENCODING -1
SWIDTH 1000 0
DWIDTH 24 0
BBX 22 22 1 -4
BITMAP
0C0000
08001C
08FFE0
104020
104020
104020
307FE0
304020
504020
904020
904020
107FE0
104020
104020
104020
1041E0
10FE20
110020
100020
100020
100060
100040
ENDCHAR
STARTCHAR uni4F75
ENCODING -1
SWIDTH 1000 0
DWIDTH 24 0
BBX 22 22 1 -4
BITMAP
063020
042060
082040
084080
089898
1061E0
182080
302080
502080
902080
902480
103880
10E08C
1127F0
102080
104080
104080
104080
108080
108080
110080
120080
ENDCHAR
STARTCHAR uni4F76
ENCODING -1
SWIDTH 1000 0
DWIDTH 24 0
BBX 22 22 1 -4
BITMAP
040300
060200
080200
080200
10020C
10FFF0
180200
300200
500200
900218
90FDE0
100000
100000
100010
107FF0
104010
104010
104010
104010
10C010
10FFF0
10C000
ENDCHAR
STARTCHAR uni4F77
ENCODING -1
SWIDTH 1000 0
DWIDTH 24 0
BBX 22 21 1 -3
BITMAP
060000
0C7FF0
084020
084020
104020
107FE0
304020
304020
504020
904020
907FE0
104400
104418
104260
104180
104100
104080
104440
107860
13C038
12000C
ENDCHAR
STARTCHAR uni4F78
ENCODING -1
SWIDTH 1000 0
DWIDTH 24 0
BBX 22 22 1 -4
BITMAP
060000
0C00F8
080F00
09F400
100400
100400
380408
33FFFC
500400
900400
100400
100400
108410
10FBF0
108010
108010
108010
108010
108010
10C010
10BFF0
100000
ENDCHAR
STARTCHAR uni4F79
ENCODING -1
SWIDTH 1000 0
DWIDTH 24 0
BBX 22 22 1 -4
BITMAP
061800
0C1000
083FC0
084040
104080
108700
33000C
31FFF0
510000
910000
911FE0
111020
111020
111020
111020
111040
1111C0
111008
121008
12100C
120FFC
100000
ENDCHAR
STARTCHAR uni4F7A
ENCODING -1
SWIDTH 1000 0
DWIDTH 24 0
BBX 22 22 1 -4
BITMAP
040000
0CFE00
080400
080A00
101100
102080
106040
308030
51001C
5600E0
907F00
100400
100400
100400
10FFF0
100400
100400
100400
100400
100418
13FFF8
100000
ENDCHAR
STARTCHAR uni4F7B
ENCODING -1
SWIDTH 1000 0
DWIDTH 24 0
BBX 23 22 0 -4
BITMAP
030CC0
020880
040880
040880
080884
09088E
088890
1848A0
2828C0
480880
880880
0818E0
086898
09888C
0B1086
081080
082080
082082
084082
088082
09007E
080000
ENDCHAR
STARTCHAR uni4F7C
ENCODING -1
SWIDTH 1000 0
DWIDTH 24 0
BBX 22 22 1 -4
BITMAP
060600
040400
080400
08041C
09FBE0
100000
183080
306060
50C010
910008
9220C0
106080
109100
101100
100A00
100600
100600
100B00
101080
106070
118018
120000
ENDCHAR
STARTCHAR uni4F7D
ENCODING -1
SWIDTH 1000 0
DWIDTH 24 0
BBX 22 22 1 -4
BITMAP
0C0200
080600
080400
086400
1387FC
100808
300988
301110
502110
900100
900100
102100
104180
108280
130280
120440
100440
100820
100810
103018
10400C
100000
ENDCHAR
STARTCHAR uni4F7E
ENCODING -1
SWIDTH 1000 0
DWIDTH 24 0
BBX 23 22 1 -4
BITMAP
060080
043380
082080
084080
104040
108020
388010
317FEE
524040
944040
104040
107FC0
104040
104040
104040
107FC0
104040
108040
108040
108040
1101C0
100000
ENDCHAR
STARTCHAR uni4F7F
ENCODING -1
SWIDTH 1000 0
DWIDTH 24 0
BBX 22 22 1 -4
BITMAP
080600
180400
100418
13FFE0
200400
200400
31FFF0
610410
610410
A10410
210410
210410
21FFF0
204400
20C400
212400
211800
200C00
201300
2020E0
21C03C
2E0000
ENDCHAR
STARTCHAR uni4F80
ENCODING -1
SWIDTH 1000 0
DWIDTH 24 0
BBX 22 22 1 -4
BITMAP
060008
08060C
09F868
084848
104848
104848
304848
304848
504848
93FF48
908848
108848
108848
108848
108848
108848
110808
110808
110808
120808
120838
100800
ENDCHAR
STARTCHAR uni4F81
ENCODING -1
SWIDTH 1000 0
DWIDTH 24 0
BBX 22 21 1 -3
BITMAP
060600
0C7400
084400
084400
104430
10BFC0
110400
310400
500400
900400
93FFFC
101100
101100
101100
101100
102100
102100
102108
104104
10810C
1300FC
ENDCHAR
STARTCHAR uni4F82
ENCODING -1
SWIDTH 1000 0
DWIDTH 24 0
BBX 22 21 1 -3
BITMAP
060300
0C0200
09831C
097CE0
110030
1100E0
110F00
311400
510400
910400
91040C
110470
111F80
116400
110400
110400
110400
110400
120408
120408
1203FC
ENDCHAR
STARTCHAR uni4F83
ENCODING -1
SWIDTH 1000 0
DWIDTH 24 0
BBX 23 22 1 -4
BITMAP
040000
04C030
08BFF0
088020
108020
108020
108020
30C020
50BFD0
900000
904460
104440
104440
104440
104440
104440
104440
108444
108444
110444
12007E
100000
ENDCHAR
STARTCHAR uni4F84
ENCODING -1
SWIDTH 1000 0
DWIDTH 24 0
BBX 22 21 1 -3
BITMAP
040000
0C0018
08FFE0
081000
101080
102040
304020
3040F0
51FF18
900008
900400
100400
100400
100410
10FFE8
100400
100400
100400
100400
100400
13FFFC
ENDCHAR
STARTCHAR uni4F85
ENCODING -1
SWIDTH 1000 0
DWIDTH 24 0
BBX 22 22 1 -4
BITMAP
060600
040400
080400
080408
11FFF4
100800
101000
3020C0
50C080
904100
103300
101610
100C20
101060
1020C0
10C180
110300
1004C0
101830
106018
11800C
120000
ENDCHAR
STARTCHAR uni4F86
ENCODING -1
SWIDTH 1000 0
DWIDTH 24 0
BBX 21 22 2 -4
BITMAP
003000
002000
002000
006038
FFBFC0
0C2180
082100
082100
182280
264440
426420
807820
00F000
00A800
012400
022200
042180
1820C0
202070
C02018
006000
006000
ENDCHAR
STARTCHAR uni4F87
ENCODING -1
SWIDTH 1000 0
DWIDTH 24 0
BBX 23 22 0 -4
BITMAP
030300
060200
04830E
047EF0
080200
08020C
187FFC
180208
280208
48FFF8
888200
088200
08FFFE
098202
080502
080484
08088C
080840
081020
082018
084006
018000
ENDCHAR
STARTCHAR uni4F88
ENCODING -1
SWIDTH 1000 0
DWIDTH 24 0
BBX 22 22 1 -4
BITMAP
060600
040400
080830
0817F0
102060
10E040
391080
300900
500600
9008C0
103100
11C3FC
100C0C
101008
107010
118C20
100440
100080
100300
100C00
103000
13C000
ENDCHAR
STARTCHAR uni4F89
ENCODING -1
SWIDTH 1000 0
DWIDTH 24 0
BBX 23 22 1 -4
BITMAP
040C00
0C0800
081018
08FFE0
102100
104080
304060
318030
527F8E
940000
900000
100018
10FFE0
104000
104000
10FFF0
100020
100020
100020
100040
1007C0
100300
ENDCHAR
STARTCHAR uni4F8B
ENCODING -1
SWIDTH 1000 0
DWIDTH 24 0
BBX 22 22 1 -4
BITMAP
0C000C
08060C
09F808
1040C8
104088
108088
30FE88
508488
510488
910488
110888
12C888
144888
103088
101088
102088
104008
104008
108008
110008
160078
100010
ENDCHAR
STARTCHAR uni4F8D
ENCODING -1
SWIDTH 1000 0
DWIDTH 24 0
BBX 23 22 0 -4
BITMAP
020300
060200
040200
04021C
08FFE0
080200
1C0200
19020E
28FDF0
480030
880020
080026
09FFF8
080020
082020
081020
080820
080820
080020
080020
0803E0
080000
ENDCHAR
STARTCHAR uni4F8F
ENCODING -1
SWIDTH 1000 0
DWIDTH 24 0
BBX 22 22 1 -4
BITMAP
060200
042200
086200
084200
088218
10FFE0
190200
320200
500200
50020C
93FFF0
100B00
101B00
101280
102240
104220
108230
11021C
120204
100200
100200
100200
ENDCHAR
STARTCHAR uni4F90
ENCODING -1
SWIDTH 1000 0
DWIDTH 24 0
BBX 22 21 1 -3
BITMAP
060800
0C0800
081000
081000
111060
11EFA0
312220
312220
512220
912220
912220
112220
112220
112220
112220
112220
112220
112220
112220
11222C
16DDD0
ENDCHAR
STARTCHAR uni4F91
ENCODING -1
SWIDTH 1000 0
DWIDTH 24 0
BBX 22 22 1 -4
BITMAP
060C00
040800
080800
08180C
09F7F0
101000
102000
302010
507FF8
50A010
912010
122010
103FF0
102010
102010
103FF0
102010
102010
102010
102010
1020F0
102000
ENDCHAR
STARTCHAR uni4F92
ENCODING -1
SWIDTH 1000 0
DWIDTH 24 0
BBX 22 22 1 -4
BITMAP
060600
0C0400
080408
09FBFC
110008
120C10
300800
300800
501000
94101C
93FFE0
102080
102080
104080
104100
10B100
100E00
100700
1008C0
101030
10E010
010000
ENDCHAR
STARTCHAR uni4F94
ENCODING -1
SWIDTH 1000 0
DWIDTH 24 0
BBX 22 22 1 -4
BITMAP
060C00
0C0800
081840
081030
1023F8
11FC08
300000
304200
504200
908210
90FFF8
110200
120200
100200
100208
13FFFC
100200
100200
100200
100200
100200
100200
ENDCHAR
STARTCHAR uni4F95
ENCODING -1
SWIDTH 1000 0
DWIDTH 24 0
BBX 23 22 0 -4
BITMAP
060000
04000E
04FFF0
040200
080200
080400
18440C
187FF4
284444
484444
884444
084444
084444
084444
084444
084444
084444
084444
084444
084444
08441C
084000
ENDCHAR
STARTCHAR uni4F96
ENCODING -1
SWIDTH 1000 0
DWIDTH 24 0
BBX 22 22 1 -4
BITMAP
003000
005000
004800
008400
010200
020100
0400C0
0A0730
31F81C
C00000
000020
1FFFF0
108420
108420
108420
1FFFE0
108420
108420
108420
108420
1084E0
100000
ENDCHAR
STARTCHAR uni4F97
ENCODING -1
SWIDTH 1000 0
DWIDTH 24 0
BBX 22 22 1 -4
BITMAP
040000
0CFFFC
088008
088008
108008
109FE8
308008
308008
508008
908FC8
908848
108848
108848
108848
108FC8
108848
108808
108008
108008
108008
108078
108010
ENDCHAR
STARTCHAR uni4F98
ENCODING -1
SWIDTH 1000 0
DWIDTH 24 0
BBX 22 22 1 -4
BITMAP
0C0300
080200
080400
11FBFC
110008
110010
320060
300180
500E00
91F800
900800
10080C
100DF0
13FA00
100800
100800
100800
100808
100808
100C0C
1007F8
100000
ENDCHAR
STARTCHAR uni4F9A
ENCODING -1
SWIDTH 1000 0
DWIDTH 24 0
BBX 22 22 1 -4
BITMAP
066000
044000
088000
08800C
10FFFC
110008
120008
320108
54FF88
908108
908108
108108
10FF08
108108
108108
108108
10FF10
100010
100010
100010
1003E0
100000
ENDCHAR
STARTCHAR uni4F9B
ENCODING -1
SWIDTH 1000 0
DWIDTH 24 0
BBX 22 21 1 -3
BITMAP
0C2080
0830C0
082080
082080
102080
102098
31FFE0
302080
502080
902080
102080
102080
10209C
13DF60
100000
101000
102080
106060
10C030
110018
120008
ENDCHAR
STARTCHAR uni4F9C
ENCODING -1
SWIDTH 1000 0
DWIDTH 24 0
BBX 22 22 1 -4
BITMAP
060600
0C0400
080800
087FF0
104020
104020
304C20
304420
504220
904020
90402C
13FFF0
108420
108420
108420
108420
108420
108420
110420
110020
1200E0
000040
ENDCHAR
STARTCHAR uni4F9D
ENCODING -1
SWIDTH 1000 0
DWIDTH 24 0
BBX 22 22 1 -4
BITMAP
060400
040600
080400
080408
0BFFFC
100C00
180C00
301200
502208
50221C
906120
10A1C0
112100
122080
102080
102040
102020
102120
102E18
10F00C
118000
100000
ENDCHAR
STARTCHAR uni4F9E
ENCODING -1
SWIDTH 1000 0
DWIDTH 24 0
BBX 22 21 1 -3
BITMAP
066000
0C4000
088000
0881FC
108908
11FD08
108908
308908
510908
511108
911108
111108
111108
13A108
126108
106108
105108
108908
110908
1101F8
120100
ENDCHAR
STARTCHAR uni4FAE
ENCODING -1
SWIDTH 1000 0
DWIDTH 24 0
BBX 22 22 1 -4
BITMAP
0C6000
084000
084008
08BFF4
108000
110000
327FF8
304010
504C10
904310
908010
10803C
13FFE0
108020
108E20
108120
108020
11002C
11FFF0
100060
1003C0
100000
ENDCHAR
STARTCHAR uni4FAF
ENCODING -1
SWIDTH 1000 0
DWIDTH 24 0
BBX 22 22 1 -4
BITMAP
0C0040
08FFC0
080040
080040
100040
1200DC
21FF20
306000
704000
50C030
90BFC0
110400
120400
100808
13FFF4
100C00
101200
101100
102080
104070
11801C
320000
ENDCHAR
STARTCHAR uni4FB2
ENCODING -1
SWIDTH 1000 0
DWIDTH 24 0
BBX 22 22 1 -4
BITMAP
040000
0CFFFC
088000
088000
108000
109FF0
188000
308000
508000
50C01C
90BFE0
108900
108908
1088B0
1088C0
108840
110840
110820
110890
120F18
12700C
104000
ENDCHAR
STARTCHAR uni4FB3
ENCODING -1
SWIDTH 1000 0
DWIDTH 24 0
BBX 22 22 1 -4
BITMAP
040600
0C0400
086430
084420
108440
108440
18C440
30A460
512490
511488
921504
100400
100400
100430
10FFC0
100400
100400
100400
100400
10040C
13FBF0
100000
ENDCHAR
STARTCHAR uni4FB5
ENCODING -1
SWIDTH 1000 0
DWIDTH 24 0
BBX 22 22 1 -4
BITMAP
040000
0C7FE0
080060
080048
11FFFC
100040
300040
307FE0
500000
90000C
93FFFC
120008
140000
10FFE0
1020C0
102080
101100
100E00
100600
101980
10607C
138000
ENDCHAR
STARTCHAR uni4FB6
ENCODING -1
SWIDTH 1000 0
DWIDTH 24 0
BBX 22 22 1 -4
BITMAP
060000
047FF8
044010
084010
084010
104010
184010
307DF0
304210
500200
900400
100400
10880C
10F7FC
108008
108008
108008
108008
108008
108008
10FFF8
108000
ENDCHAR
STARTCHAR uni4FB7
ENCODING -1
SWIDTH 1000 0
DWIDTH 24 0
BBX 22 22 1 -4
BITMAP
0C0000
0CFFF8
088010
088010
108010
108010
38FFF0
308000
508000
90FFFC
908004
108008
109FC8
109088
109088
111088
111F88
111088
120008
120018
1400F0
100000
ENDCHAR
STARTCHAR uni4FB9
ENCODING -1
SWIDTH 1000 0
DWIDTH 24 0
BBX 22 22 1 -4
BITMAP
0C0000
080018
08F060
084780
104080
104080
108080
308080
513088
51D7FC
902080
112080
132080
132080
152080
14C080
10C098
10C360
112000
121800
1407FC
100000
ENDCHAR
STARTCHAR uni4FBA
ENCODING -1
SWIDTH 1000 0
DWIDTH 24 0
BBX 22 22 1 -4
BITMAP
040600
06C418
088410
088410
088410
10FFF0
108010
300600
500E00
501100
9020C0
10C030
11018C
123E00
100000
10FFE0
100040
100040
100080
100080
100100
100100
ENDCHAR
STARTCHAR uni4FBB
ENCODING -1
SWIDTH 1000 0
DWIDTH 24 0
BBX 22 22 1 -4
BITMAP
040180
0C3280
082080
084040
104020
108030
198038
32FFE8
508020
508020
908020
108020
10FFE0
109120
101100
102100
102100
104108
104108
108108
1301FC
100000
ENDCHAR
STARTCHAR uni4FBF
ENCODING -1
SWIDTH 1000 0
DWIDTH 24 0
BBX 22 22 1 -4
BITMAP
0C0000
08001C
08FFE0
100400
100400
10FFF8
310410
310410
50FFF0
910410
910410
118410
11FFF0
104400
10C400
10A400
111800
100C00
101300
1020E0
10C03C
170000
ENDCHAR
STARTCHAR uni4FC0
ENCODING -1
SWIDTH 1000 0
DWIDTH 24 0
BBX 22 22 1 -4
BITMAP
060030
0401C0
047E00
084030
084208
104108
10810C
310000
500000
500C00
900800
13FFDC
101020
102040
102040
1040C0
10F880
100780
1003C0
100430
101818
13E000
ENDCHAR
STARTCHAR uni4FC1
ENCODING -1
SWIDTH 1000 0
DWIDTH 24 0
BBX 22 22 1 -4
BITMAP
080000
0C3FE0
082040
112040
112040
112040
313FC0
312000
510000
91FFF0
910410
100410
100410
10041C
11FFE0
100A00
100900
101100
1020C0
104060
10801C
130000
ENDCHAR
STARTCHAR uni4FC2
ENCODING -1
SWIDTH 1000 0
DWIDTH 24 0
BBX 22 22 1 -4
BITMAP
060018
0401E0
04FE00
080400
080820
101060
1820C0
301980
500E00
D00410
901808
1021FC
10FE04
100200
100200
103220
104210
104208
108204
110204
100200
100200
ENDCHAR
STARTCHAR uni4FC3
ENCODING -1
SWIDTH 1000 0
DWIDTH 24 0
BBX 22 22 1 -4
BITMAP
060000
04C038
08BFD0
088010
088010
108010
108010
308010
50FFF0
500200
900200
104200
104210
1083F8
108200
10C200
10C200
112200
111200
120E00
1201FC
100000
ENDCHAR
STARTCHAR uni4FC4
ENCODING -1
SWIDTH 1000 0
DWIDTH 24 0
BBX 22 22 1 -4
BITMAP
081100
082100
10C130
174118
104100
204100
304108
23FFF4
604100
A04118
A04110
204120
2078A0
21C0C0
2740C0
204080
204144
204244
204428
204838
23C018
208000
ENDCHAR
STARTCHAR uni4FC5
ENCODING -1
SWIDTH 1000 0
DWIDTH 24 0
BBX 22 22 1 -4
BITMAP
040600
0C0440
080420
080400
10040C
13FFF0
180600
300600
508610
504528
904540
100580
100480
100C40
103440
10C420
130410
100418
10040C
100400
103C00
100800
ENDCHAR
STARTCHAR uni4FC7
ENCODING -1
SWIDTH 1000 0
DWIDTH 24 0
BBX 22 22 1 -4
BITMAP
061000
042008
08A7F0
084080
08C080
114080
124080
302080
502080
506088
9067FC
10A080
112080
122080
102080
102080
102080
102080
102080
10208C
11C770
100000
ENDCHAR
STARTCHAR uni4FC9
ENCODING -1
SWIDTH 1000 0
DWIDTH 24 0
BBX 22 22 1 -4
BITMAP
0C0000
0C0038
08FFC0
080800
100800
101060
387FA0
301020
502020
902020
90202C
11DFD0
100000
100010
10FFF0
108010
108020
108020
108020
108030
10FFF0
108000
ENDCHAR
STARTCHAR uni4FCA
ENCODING -1
SWIDTH 1000 0
DWIDTH 24 0
BBX 22 22 1 -4
BITMAP
0C0C00
081000
081060
102010
13FFF8
112100
302100
502104
504184
9080FC
131800
101000
102FE0
106040
109080
110880
120500
100200
100D80
101060
10E01C
170000
ENDCHAR
STARTCHAR uni4FCB
ENCODING -1
SWIDTH 1000 0
DWIDTH 24 0
BBX 22 22 1 -4
BITMAP
040000
0C7FE0
084020
084020
104020
107FE0
384020
300000
51FBF8
910410
910410
110410
110410
11FFF0
110010
110000
110000
110008
110004
11000C
10FFF8
100000
ENDCHAR
STARTCHAR uni4FCD
ENCODING -1
SWIDTH 1000 0
DWIDTH 24 0
BBX 22 22 1 -4
BITMAP
040600
0C0400
080400
08FFF0
108010
108010
188010
30FFF0
508010
508010
908010
10FFF0
108400
108408
10821C
108160
108180
108080
109860
10E030
13001C
100000
ENDCHAR
STARTCHAR uni4FCE
ENCODING -1
SWIDTH 1000 0
DWIDTH 24 0
BBX 23 21 1 -3
BITMAP
060000
041FF0
0C1010
081020
081020
141020
131020
211FE0
409020
801020
061020
041020
0C1020
081FE0
081020
161020
111020
219020
409020
801020
03FFFE
ENDCHAR
STARTCHAR uni4FCF
ENCODING -1
SWIDTH 1000 0
DWIDTH 24 0
BBX 22 22 1 -4
BITMAP
040300
060200
043240
084230
08C208
108204
130214
307DF0
304010
504010
904010
107FF0
104010
104010
104010
107FF0
104010
104010
104010
104010
1040F0
104020
ENDCHAR
STARTCHAR uni4FD0
ENCODING -1
SWIDTH 1000 0
DWIDTH 24 0
BBX 22 22 1 -4
BITMAP
04040C
0C1808
08E0C8
092088
102088
102088
302688
31F888
506088
907088
90A888
10A488
112088
122088
122088
142088
102088
102008
102008
102008
102078
102000
ENDCHAR
STARTCHAR uni4FD1
ENCODING -1
SWIDTH 1000 0
DWIDTH 24 0
BBX 22 22 1 -4
BITMAP
060000
047FF8
040030
080840
080480
100300
100104
30FEFC
308208
508208
908208
10FFF8
108208
108208
108208
10FFF8
108208
108208
108208
108208
108238
108000
ENDCHAR
STARTCHAR uni4FD3
ENCODING -1
SWIDTH 1000 0
DWIDTH 24 0
BBX 22 22 1 -4
BITMAP
0C0000
08FFF8
080000
102310
102230
104620
308440
310880
510880
908460
904230
102210
102000
100010
11FFF8
100400
100400
100400
100400
100400
12061C
11F9E0
ENDCHAR
STARTCHAR uni4FD4
ENCODING -1
SWIDTH 1000 0
DWIDTH 24 0
BBX 22 22 1 -4
BITMAP
040000
067FF0
0C4020
084020
084020
107FE0
104020
304020
304020
507FE0
904020
104020
104020
107FE0
104900
100900
101100
101104
102104
104104
1081FC
130000
ENDCHAR
STARTCHAR uni4FD6
ENCODING -1
SWIDTH 1000 0
DWIDTH 24 0
BBX 22 22 1 -4
BITMAP
060000
0C001C
087FE0
080600
100700
100A00
101AC0
301230
502208
50C204
910200
100200
100010
107FF0
104010
104010
104010
104010
104010
104030
107FD0
104000
ENDCHAR
STARTCHAR uni4FD7
ENCODING -1
SWIDTH 1000 0
DWIDTH 24 0
BBX 23 22 1 -4
BITMAP
060000
041100
0420C0
086020
084010
118608
120A00
300A00
301100
502080
904060
108030
11000E
167FE0
104040
104040
104040
104040
104040
104040
107FA0
100000
ENDCHAR
STARTCHAR uni4FD8
ENCODING -1
SWIDTH 1000 0
DWIDTH 24 0
BBX 22 22 1 -4
BITMAP
060070
0C03C0
08FC00
088430
110408
11020C
120204
300000
50FFF0
500040
900080
100300
100200
10020C
13FFF0
100200
100200
100200
100200
100200
103C00
100800
ENDCHAR
STARTCHAR uni4FD9
ENCODING -1
SWIDTH 1000 0
DWIDTH 24 0
BBX 22 22 1 -4
BITMAP
040020
0C3040
080F80
0806C0
101830
11E000
101800
30100C
53FFF0
502200
904300
104218
10FFF8
114210
164210
104210
104210
104210
104270
104210
100200
100200
ENDCHAR
STARTCHAR uni4FDA
ENCODING -1
SWIDTH 1000 0
DWIDTH 24 0
BBX 23 22 0 -4
BITMAP
060000
04000C
047FF8
044208
084208
084208
187FF8
184208
284208
484208
88C308
08FEF8
080200
080200
080208
08FFFC
080200
080200
080200
080206
09FFFE
080000
ENDCHAR
STARTCHAR uni4FDB
ENCODING -1
SWIDTH 1000 0
DWIDTH 24 0
BBX 22 22 1 -4
BITMAP
061800
041000
083FC0
084080
084100
108200
110418
33FFF8
510410
510410
910410
110410
11FFF0
110610
100B00
100A00
101200
102204
104204
108204
1101FC
120000
ENDCHAR
STARTCHAR uni4FDC
ENCODING -1
SWIDTH 1000 0
DWIDTH 24 0
BBX 22 22 1 -4
BITMAP
040600
060400
0C8638
08FDD0
088410
108610
10FDF0
388410
308410
50FBF0
900000
10000C
11FFF0
104000
104010
10BFF0
100010
100020
100020
100060
1007C0
100000
ENDCHAR
STARTCHAR uni4FDD
ENCODING -1
SWIDTH 1000 0
DWIDTH 24 0
BBX 22 22 1 -4
BITMAP
040020
08FFF0
088020
088020
108020
108020
308020
30FFE0
508420
900400
900400
17FFFC
100E00
101600
102500
102480
104440
108430
130418
140404
100400
100400
ENDCHAR
STARTCHAR uni4FDE
ENCODING -1
SWIDTH 1000 0
DWIDTH 24 0
BBX 22 21 1 -3
BITMAP
001000
0FF000
006800
004400
008200
030180
040660
18F81C
E00000
1FE018
102310
102210
1FE210
102210
102210
106210
1FA210
102210
102010
102010
31C070
ENDCHAR
STARTCHAR uni4FDF
ENCODING -1
SWIDTH 1000 0
DWIDTH 24 0
BBX 23 22 0 -4
BITMAP
020600
040400
040800
040830
081008
09FFFC
180004
181000
282000
483FF8
884200
088200
080200
08020C
08FFF2
080500
080500
080880
081060
082018
08C00E
090000
ENDCHAR
STARTCHAR uni4FE0
ENCODING -1
SWIDTH 1000 0
DWIDTH 24 0
BBX 22 22 1 -4
BITMAP
060600
040400
080400
080408
13FFFC
100400
30C430
308420
508420
908460
114450
112688
120604
140A00
100900
100880
101080
102040
104030
108018
11000C
120000
ENDCHAR
STARTCHAR uni4FE1
ENCODING -1
SWIDTH 1000 0
DWIDTH 24 0
BBX 22 22 1 -4
BITMAP
060000
040070
0C7F80
080000
0A001C
11FFE0
100000
300030
507FC0
500000
900030
107FC0
100000
100010
107FF0
104010
104010
104010
104010
104030
107FF0
104000
ENDCHAR
STARTCHAR uni4FEC
ENCODING -1
SWIDTH 1000 0
DWIDTH 24 0
BBX 22 22 1 -4
BITMAP
0C0800
083060
09E040
082040
102040
102040
33FE80
306080
506080
906080
90B900
10A500
112500
112100
122210
142208
102208
10220C
102474
102F84
102800
102000
ENDCHAR
STARTCHAR uni4FEE
ENCODING -1
SWIDTH 1000 0
DWIDTH 24 0
BBX 22 22 1 -4
BITMAP
040C00
080800
081018
081FE0
123040
124840
328480
620300
6206C0
A20838
227184
220300
220400
223860
2200C0
220300
220C1C
227020
2200C0
200300
201C00
206000
ENDCHAR
STARTCHAR uni4FEF
ENCODING -1
SWIDTH 1000 0
DWIDTH 24 0
BBX 23 22 0 -4
BITMAP
060180
040100
040106
08FEF8
088000
108C0C
188808
188808
28900A
4893FC
88B008
08B008
095108
091088
091088
091008
091008
091008
0A1008
0A1008
081070
181000
ENDCHAR
STARTCHAR uni4FF1
ENCODING -1
SWIDTH 1000 0
DWIDTH 24 0
BBX 23 22 1 -4
BITMAP
060000
047FF0
084020
084020
104020
107FE0
384020
304020
507FE0
904020
104020
104020
107FE0
104020
104024
13FFFE
100000
101080
102060
10C018
130004
100000
ENDCHAR
STARTCHAR uni4FF3
ENCODING -1
SWIDTH 1000 0
DWIDTH 24 0
BBX 22 22 1 -4
BITMAP
041180
061980
081100
081100
081108
13F1F4
101100
301100
501100
501118
91F1E0
101100
101100
101900
10710C
1391F0
122100
102100
104100
108100
110100
160100
ENDCHAR
STARTCHAR uni4FF4
ENCODING -1
SWIDTH 1000 0
DWIDTH 24 0
BBX 22 22 1 -4
BITMAP
061300
041080
041018
081FE0
09E810
100830
1004C0
300704
507988
D1807C
903300
102000
102018
101FE0
11F010
100820
100840
100584
100708
100988
10F07C
110000
ENDCHAR
STARTCHAR uni4FF5
ENCODING -1
SWIDTH 1000 0
DWIDTH 24 0
BBX 22 22 1 -4
BITMAP
040600
0C0400
080418
08FFE0
100400
100400
31FFF0
300400
500400
90040C
93FFF0
101200
10221C
104120
11C1C0
124080
104040
104260
104C30
10F01C
130004
300000
ENDCHAR
STARTCHAR uni4FF6
ENCODING -1
SWIDTH 1000 0
DWIDTH 24 0
BBX 22 22 1 -4
BITMAP
046000
0C6000
08420C
086DF8
107108
104108
304108
304508
53FE88
902090
902090
102090
11A860
112460
122460
122260
1422A0
142090
102108
10620C
10CC04
100000
ENDCHAR
STARTCHAR uni4FF7
ENCODING -1
SWIDTH 1000 0
DWIDTH 24 0
BBX 23 22 1 -4
BITMAP
0C1000
09F7F8
111488
111488
111488
211488
31F488
211488
611488
611488
A11778
211408
21F400
211400
211400
221400
221404
221404
221404
243606
3461F8
200000
ENDCHAR
STARTCHAR uni4FF8
ENCODING -1
SWIDTH 1000 0
DWIDTH 24 0
BBX 24 22 0 -4
BITMAP
060200
040400
04040C
09FFF0
080800
108C38
187BC0
101080
33FFFE
502040
904220
108218
11840C
127FE7
100400
100400
100218
10FFE0
100400
100400
100400
100600
ENDCHAR
STARTCHAR uni4FFA
ENCODING -1
SWIDTH 1000 0
DWIDTH 24 0
BBX 24 22 0 -4
BITMAP
060600
040400
040400
0C080E
09FFF0
081080
182040
182630
284418
49FFF7
8A8420
088420
088420
08FFE0
088420
088420
08FFE2
088402
080404
080402
08039E
080060
ENDCHAR
STARTCHAR uni4FFE
ENCODING -1
SWIDTH 1000 0
DWIDTH 24 0
BBX 23 22 1 -4
BITMAP
060600
040400
088808
08F7F8
088208
108208
18FFF8
308208
508208
508408
90FFF8
108C08
101080
106100
100104
13FFFE
100100
100100
100100
100100
100100
100180
ENDCHAR
STARTCHAR uni5000
ENCODING -1
SWIDTH 1000 0
DWIDTH 24 0
BBX 23 22 0 -4
BITMAP
020000
03201C
043FE0
042000
042018
083FE0
0C2000
182010
283FE8
482000
882004
09FFFA
082100
08210C
082098
0820A0
082040
082020
082130
083E18
08C006
080000
ENDCHAR
STARTCHAR uni5005
ENCODING -1
SWIDTH 1000 0
DWIDTH 24 0
BBX 23 22 0 -4
BITMAP
020300
040200
040204
05FFFE
080000
083020
182040
182040
2870A0
484898
888104
090200
0A0000
080200
080206
09FFF8
080200
080200
080200
080200
080200
080200
ENDCHAR
STARTCHAR uni5006
ENCODING -1
SWIDTH 1000 0
DWIDTH 24 0
BBX 23 22 0 -4
BITMAP
040000
06000E
047FF0
080200
080200
100202
18FFFE
110204
310204
513A74
911224
111224
111224
112A54
112A54
11468C
110204
110204
110204
110204
11021C
100000
ENDCHAR
STARTCHAR uni5007
ENCODING -1
SWIDTH 1000 0
DWIDTH 24 0
BBX 22 22 1 -4
BITMAP
0C0600
080400
080400
09FFFC
110010
124010
326000
304230
50DBD0
50AA10
908A10
111210
131210
149210
10A220
102220
104240
108200
108208
110208
1201FC
100000
ENDCHAR
STARTCHAR uni5009
ENCODING -1
SWIDTH 1000 0
DWIDTH 24 0
BBX 21 22 2 -4
BITMAP
006000
00D000
018800
030400
040300
09FCC0
300038
C00180
1FFF00
100100
0FFF00
100100
100100
1FFF00
100000
180080
2FFFC0
280080
480080
880080
0FFF80
080080
ENDCHAR
STARTCHAR uni500B
ENCODING -1
SWIDTH 1000 0
DWIDTH 24 0
BBX 21 22 1 -4
BITMAP
0C0000
09FFF8
090008
090208
110208
110208
3126E8
311B08
510208
510208
910208
111DC8
111088
111088
111088
111088
111F88
110008
110008
11FFF8
110008
100000
ENDCHAR
STARTCHAR uni500C
ENCODING -1
SWIDTH 1000 0
DWIDTH 24 0
BBX 22 22 1 -4
BITMAP
040300
060200
048200
08FFFC
088008
110010
194020
307FE0
304020
504020
904020
107FE0
104020
104000
104010
107FF0
104010
104010
104010
104010
107FF0
100000
ENDCHAR
STARTCHAR uni500D
ENCODING -1
SWIDTH 1000 0
DWIDTH 24 0
BBX 22 22 1 -4
BITMAP
060600
040400
080400
08061C
08F9E0
104060
102040
301040
501080
50010C
93FEF0
100000
100000
10FFF0
108020
108020
108020
108020
108020
10FFE0
108030
108000
ENDCHAR
STARTCHAR uni500E
ENCODING -1
SWIDTH 1000 0
DWIDTH 24 0
BBX 22 22 1 -4
BITMAP
0C1980
081100
081100
111110
11FFF0
111110
311110
311110
511110
51FFF0
911110
111110
111110
111110
17FFFC
100000
106100
1040C0
10C020
118010
120018
140000
ENDCHAR
STARTCHAR uni500F
ENCODING -1
SWIDTH 1000 0
DWIDTH 24 0
BBX 22 22 1 -4
BITMAP
0C0C00
080800
081020
081FF0
133040
1248C0
328580
220300
620580
A21878
22620C
220240
220220
22061C
22FFE0
220500
220500
220880
221040
222030
20401C
238000
ENDCHAR
STARTCHAR uni5011
ENCODING -1
SWIDTH 1000 0
DWIDTH 24 0
BBX 23 22 0 -4
BITMAP
060000
04FEFE
048484
048484
08FCFC
088484
188484
18FCFC
288484
488004
888004
088004
088004
088004
088004
088004
088004
088004
088004
088004
08801C
080000
ENDCHAR
STARTCHAR uni5012
ENCODING -1
SWIDTH 1000 0
DWIDTH 24 0
BBX 22 22 1 -4
BITMAP
0C0004
080604
09F808
104048
104848
108448
308248
31FE48
520248
903048
902048
102048
13FE48
102048
102048
102048
102048
103C08
13C008
120008
100078
000010
ENDCHAR
STARTCHAR uni5013
ENCODING -1
SWIDTH 1000 0
DWIDTH 24 0
BBX 22 22 1 -4
BITMAP
040600
0C0410
080430
084440
104480
118C00
300B00
3010C0
502030
90C008
930400
100400
100418
108430
108A40
118980
130900
101080
102040
104030
11800C
120000
ENDCHAR
STARTCHAR uni5014
ENCODING -1
SWIDTH 1000 0
DWIDTH 24 0
BBX 22 21 1 -3
BITMAP
0C0000
09FFF8
090010
110010
110010
11FFF0
310010
310180
513118
912108
112110
112110
113FF0
112100
110100
11610C
114108
124108
124108
144108
147EF8
ENDCHAR
STARTCHAR uni5015
ENCODING -1
SWIDTH 1000 0
DWIDTH 24 0
BBX 23 22 1 -4
BITMAP
0C0020
0803D0
09FC00
080400
100400
11FFF8
304440
304440
504440
504444
93FFFE
104440
104440
104440
104440
104478
11BF80
100400
100400
100408
13FFFC
100000
ENDCHAR
STARTCHAR uni5016
ENCODING -1
SWIDTH 1000 0
DWIDTH 24 0
BBX 23 22 0 -4
BITMAP
020300
060200
040218
047FE0
080200
080200
1C020E
19FDF0
282030
481040
881040
080098
087F60
080200
080200
080204
09FFFA
080200
080200
080200
080200
080200
ENDCHAR
STARTCHAR uni5017
ENCODING -1
SWIDTH 1000 0
DWIDTH 24 0
BBX 22 22 1 -4
BITMAP
040000
0CFCFC
088908
088908
108908
108908
108888
30F978
308908
508908
908908
108908
10F9F8
108908
110908
110908
110908
110908
120A08
124A08
103838
100000
ENDCHAR
STARTCHAR uni5018
ENCODING -1
SWIDTH 1000 0
DWIDTH 24 0
BBX 22 22 1 -4
BITMAP
040600
040600
083440
086420
084418
108404
110400
33861C
5179E8
510008
910008
111FC8
111088
111088
111088
111088
111F88
110008
110008
110088
110078
100000
ENDCHAR
STARTCHAR uni5019
ENCODING -1
SWIDTH 1000 0
DWIDTH 24 0
BBX 22 22 1 -4
BITMAP
080000
0C3FE0
080040
100040
120048
12FFFC
320000
321800
522000
923FF0
924200
124200
128200
120208
127FF0
120200
120500
120880
121040
122030
10401C
308000
ENDCHAR
STARTCHAR uni501A
ENCODING -1
SWIDTH 1000 0
DWIDTH 24 0
BBX 22 22 1 -4
BITMAP
040C00
080800
080810
0BFFE8
100800
101600
3021C0
30C060
570000
90000C
97FFF0
100020
100620
10FE20
108420
108420
108420
11FC20
108020
100020
1001E0
100040
ENDCHAR
STARTCHAR uni501B
ENCODING -1
SWIDTH 1000 0
DWIDTH 24 0
BBX 23 22 0 -4
BITMAP
021830
041020
041020
041024
087FFA
081020
181020
181020
281FE0
481020
881020
081020
081FE0
081020
081020
081026
08EFD8
080000
081C60
083018
08C004
090000
ENDCHAR
STARTCHAR uni501C
ENCODING -1
SWIDTH 1000 0
DWIDTH 24 0
BBX 22 22 1 -4
BITMAP
040000
06800C
0CFFF4
088304
088204
1093E4
188E04
308204
308204
509DE4
908004
108004
109FC4
109044
109044
111044
111FC4
111044
110004
12000C
100078
100000
ENDCHAR
STARTCHAR uni501E
ENCODING -1
SWIDTH 1000 0
DWIDTH 24 0
BBX 22 22 1 -4
BITMAP
0C0300
080200
080408
0BFFFC
100000
100000
300030
307FF0
504020
504020
904020
10C020
10FFF0
100400
100400
106440
10C430
108418
11040C
120404
103C00
100800
ENDCHAR
STARTCHAR uni501F
ENCODING -1
SWIDTH 1000 0
DWIDTH 24 0
BBX 22 22 1 -4
BITMAP
042080
0C3080
082080
082098
11FFE0
102080
302080
302080
50208C
91DF70
900000
108020
10FFF0
108020
108020
108020
10FFE0
108020
108020
108020
10FFE0
100000
ENDCHAR
STARTCHAR uni5020
ENCODING -1
SWIDTH 1000 0
DWIDTH 24 0
BBX 22 22 1 -4
BITMAP
0630C0
0C2080
084100
084100
10421C
10BDE0
188100
318100
328110
54FFF8
908100
108100
108100
108118
10FFE0
108100
108100
108100
108108
10FFFC
108000
100000
ENDCHAR
STARTCHAR uni5021
ENCODING -1
SWIDTH 1000 0
DWIDTH 24 0
BBX 22 22 1 -4
BITMAP
040000
067FF8
0C4010
084010
084010
107FF0
184010
304010
307FF0
504010
900000
10000C
10FFFC
108008
108008
108008
10FFF8
108008
108008
11FFF8
118008
100000
ENDCHAR
STARTCHAR uni5022
ENCODING -1
SWIDTH 1000 0
DWIDTH 24 0
BBX 22 21 1 -3
BITMAP
040600
080400
08041C
09FFE0
100400
100430
10FFF0
300420
50043C
51FFE0
900420
100420
107FE0
100400
10C400
108418
1087E0
114400
112400
121C00
1403F8
ENDCHAR
STARTCHAR uni5023
ENCODING -1
SWIDTH 1000 0
DWIDTH 24 0
BBX 23 22 1 -4
BITMAP
08C080
0880C0
108080
108900
13F100
2081FC
208110
208310
61BB10
A15510
A11110
211110
2110A0
2110A0
211040
221040
221040
2420A0
242110
282208
20EC06
200000
ENDCHAR
STARTCHAR uni5025
ENCODING -1
SWIDTH 1000 0
DWIDTH 24 0
BBX 23 22 1 -4
BITMAP
060300
0C0200
080200
08FDFC
110008
111990
181180
301100
501108
902108
90219C
104060
108000
100030
11FFC0
100400
100400
100400
100400
100408
13FFFE
100000
ENDCHAR
STARTCHAR uni5026
ENCODING -1
SWIDTH 1000 0
DWIDTH 24 0
BBX 22 22 1 -4
BITMAP
0C0400
086400
08C820
088810
110848
127FE0
301200
301100
50208C
97FF70
904020
108030
117FCC
124080
144080
104080
104480
104310
104010
102008
103FF8
100000
ENDCHAR
STARTCHAR uni5027
ENCODING -1
SWIDTH 1000 0
DWIDTH 24 0
BBX 22 22 1 -4
BITMAP
040300
060200
080200
08FFFC
088008
110010
110000
300040
503FE0
500000
900000
100018
107FE0
100200
102200
106260
104210
108208
110208
120200
101E00
100400
ENDCHAR
STARTCHAR uni5028
ENCODING -1
SWIDTH 1000 0
DWIDTH 24 0
BBX 23 22 1 -4
BITMAP
040000
0CFFF8
088010
088010
108010
10FFF8
308100
308100
508100
90FFFE
908100
108100
108100
10A108
10BEF8
112008
112008
112008
122008
122018
143FE8
100000
ENDCHAR
STARTCHAR uni5029
ENCODING -1
SWIDTH 1000 0
DWIDTH 24 0
BBX 22 22 1 -4
BITMAP
060300
040200
04FFFC
080200
080210
107FE0
180200
30020C
30FDF0
500000
904038
107FD0
104210
104210
104210
107DF0
104010
104010
104010
104010
104070
104020
ENDCHAR
STARTCHAR uni502A
ENCODING -1
SWIDTH 1000 0
DWIDTH 24 0
BBX 22 22 1 -4
BITMAP
040800
0C1C08
08E0F8
088010
108010
108010
30F8F0
308010
508010
908010
908018
11FFF8
101100
101100
101100
101100
102100
102104
104104
108104
1100FC
120000
ENDCHAR
STARTCHAR uni502B
ENCODING -1
SWIDTH 1000 0
DWIDTH 24 0
BBX 22 22 1 -4
BITMAP
060600
040C00
080A00
081100
102080
104060
108198
333E0C
540000
910018
91FFF8
111110
111110
111110
11FFF0
111110
111110
111110
111110
111110
111130
100000
ENDCHAR
STARTCHAR uni502C
ENCODING -1
SWIDTH 1000 0
DWIDTH 24 0
BBX 22 22 1 -4
BITMAP
0C0600
080400
080438
0807C0
100800
110C30
31F3F0
310020
510020
51FFE0
910020
110020
110030
11FFD0
100400
10040C
17FFF0
100400
100400
100400
100400
100400
ENDCHAR
STARTCHAR uni502D
ENCODING -1
SWIDTH 1000 0
DWIDTH 24 0
BBX 23 22 0 -4
BITMAP
030010
0201F8
04FE00
040200
080206
09FFF8
180A80
181260
282218
48C20E
8B0000
080400
080806
09F7F8
081020
082040
086040
085F80
0801C0
080638
08380C
09C000
ENDCHAR
STARTCHAR uni502F
ENCODING -1
SWIDTH 1000 0
DWIDTH 24 0
BBX 22 22 1 -4
BITMAP
0CC000
088060
088240
088340
108220
10B220
33C420
318410
51C410
51A808
92A9C8
129104
129100
148100
148200
108220
108410
108408
108408
108FF4
108804
108000
ENDCHAR
STARTCHAR uni5030
ENCODING -1
SWIDTH 1000 0
DWIDTH 24 0
BBX 22 22 1 -4
BITMAP
0C0600
0C0400
080430
08FFC0
100400
100408
19FBF4
302100
502100
504104
908078
131000
103040
102FE0
106040
109080
130900
100700
100700
1018C0
10603C
178000
ENDCHAR
STARTCHAR uni5031
ENCODING -1
SWIDTH 1000 0
DWIDTH 24 0
BBX 22 22 1 -4
BITMAP
040000
04FFF0
088020
088020
088020
10FFE0
108020
308020
50FFE0
508020
900000
108180
108100
108918
10F560
108180
108100
108100
108904
10F104
1381FC
100000
ENDCHAR
STARTCHAR uni5033
ENCODING -1
SWIDTH 1000 0
DWIDTH 24 0
BBX 22 22 1 -4
BITMAP
0C0600
080408
09FFF0
100400
100430
10FFF0
308420
308420
50FFE0
500400
900410
10FFF0
100410
10041C
13FFF0
100410
100410
10FFF0
100410
100400
103C00
100800
ENDCHAR
STARTCHAR uni5035
ENCODING -1
SWIDTH 1000 0
DWIDTH 24 0
BBX 22 22 1 -4
BITMAP
040080
0C0080
080C88
083084
100080
100098
11FFE0
300080
501880
501080
909080
109080
109E80
109040
109040
109044
109044
109224
109C28
11E018
13000C
100000
ENDCHAR
STARTCHAR uni5037
ENCODING -1
SWIDTH 1000 0
DWIDTH 24 0
BBX 22 22 1 -4
BITMAP
0C0C00
0C0800
080800
081830
10F7C0
101100
182080
302040
504160
509E30
91001C
120000
100060
107F80
100400
102480
104440
104420
108410
110410
101C00
100800
ENDCHAR
STARTCHAR uni503C
ENCODING -1
SWIDTH 1000 0
DWIDTH 24 0
BBX 22 22 1 -4
BITMAP
060300
0C0200
08020C
09FFF0
100200
100210
311DF0
311010
511010
911FF0
911010
111010
111010
111FF0
111010
111010
111010
111FF0
110000
11000C
11FFF0
110000
ENDCHAR
STARTCHAR uni5040
ENCODING -1
SWIDTH 1000 0
DWIDTH 24 0
BBX 22 22 1 -4
BITMAP
0630C0
042080
0930DC
08EFA0
082080
102000
180600
308420
50F7F0
508420
908420
108420
108420
13FFFC
100600
100A00
100900
101080
102040
104030
11800C
120000
ENDCHAR
STARTCHAR uni5041
ENCODING -1
SWIDTH 1000 0
DWIDTH 24 0
BBX 22 22 1 -4
BITMAP
0C0060
080F90
087000
104420
108218
110008
310404
300400
50FFF0
908420
108420
10842C
11FFF0
108420
108420
13FFFC
108020
108020
108020
108020
1081E0
108000
ENDCHAR
STARTCHAR uni5043
ENCODING -1
SWIDTH 1000 0
DWIDTH 24 0
BBX 22 22 1 -4
BITMAP
0C0000
09FFFC
090000
111030
111FD0
111010
311FF0
311010
511030
911FD0
910300
110408
117FF4
110840
111840
111780
1101E0
110630
117800
11000C
11FFF0
100000
ENDCHAR
STARTCHAR uni5045
ENCODING -1
SWIDTH 1000 0
DWIDTH 24 0
BBX 22 22 1 -4
BITMAP
060070
0C07C0
087C00
080400
10061C
11FDE0
100400
30FFF8
508410
508410
90C610
10BDF0
108410
108610
10FDF0
100400
100618
107FE0
100400
10040C
13FFFC
100000
ENDCHAR
STARTCHAR uni5046
ENCODING -1
SWIDTH 1000 0
DWIDTH 24 0
BBX 23 22 1 -4
BITMAP
040600
060400
080C38
08FBC0
080800
101870
187780
301100
50208C
51FF70
904020
108030
114078
127FC6
144040
104040
107FC0
104040
104040
104040
107FC0
100040
ENDCHAR
STARTCHAR uni5047
ENCODING -1
SWIDTH 1000 0
DWIDTH 24 0
BBX 22 22 1 -4
BITMAP
080008
0DFDF8
110808
110808
110808
310808
31F818
5108E8
510000
910000
111BFC
11E208
110208
110110
110110
1118A0
11E060
110060
1100B0
110318
110C04
110000
ENDCHAR
STARTCHAR uni5048
ENCODING -1
SWIDTH 1000 0
DWIDTH 24 0
BBX 22 21 1 -3
BITMAP
0C0000
087FF0
084020
104020
107FE0
104020
304020
304020
507FE0
901000
102004
107FFC
104208
118408
12C708
108888
109008
108008
10FFE8
108008
1000F0
ENDCHAR
STARTCHAR uni5049
ENCODING -1
SWIDTH 1000 0
DWIDTH 24 0
BBX 23 22 0 -4
BITMAP
060400
040800
048C60
087BA0
080820
101026
19EFD8
100000
307FF0
504010
904010
107FF0
100080
100080
11FFFC
102080
102080
102086
11DFF8
100100
100180
100100
ENDCHAR
STARTCHAR uni504A
ENCODING -1
SWIDTH 1000 0
DWIDTH 24 0
BBX 22 22 1 -4
BITMAP
040030
0C03C0
09FC00
080400
108410
10FFF0
308410
308410
508410
90FFF0
908400
100400
17FFFC
110408
110408
110448
1107A8
113828
110008
110008
110038
110000
ENDCHAR
STARTCHAR uni504B
ENCODING -1
SWIDTH 1000 0
DWIDTH 24 0
BBX 22 21 1 -3
BITMAP
0C0000
08FFF8
090010
110010
108010
117FE0
310C30
310820
511040
911CDC
112860
110840
110840
110E40
11786C
1149D0
110840
121040
121040
102040
104040
ENDCHAR
STARTCHAR uni504C
ENCODING -1
SWIDTH 1000 0
DWIDTH 24 0
BBX 22 22 1 -4
BITMAP
0C2080
082080
0BFFFC
102080
102080
202080
300C00
200800
60081C
A3FFE0
A01000
201000
202000
203008
206FF8
20A008
212008
222008
242008
202008
303FF8
200000
ENDCHAR
STARTCHAR uni504D
ENCODING -1
SWIDTH 1000 0
DWIDTH 24 0
BBX 22 21 1 -3
BITMAP
0C0020
087FF0
084020
104020
107FE0
104020
304020
307FE0
504020
900008
13FFFC
100200
104200
104210
1043F8
104200
10C200
10A200
111200
120E00
1401FC
ENDCHAR
STARTCHAR uni504E
ENCODING -1
SWIDTH 1000 0
DWIDTH 24 0
BBX 22 22 1 -4
BITMAP
040000
0CFFF8
088410
088410
108410
10FFF0
108410
308410
50FFF0
908000
900000
13FFFC
108400
108210
108238
108140
108080
1080C0
108860
10F018
13000C
100000
ENDCHAR
STARTCHAR uni504F
ENCODING -1
SWIDTH 1000 0
DWIDTH 24 0
BBX 22 22 1 -4
BITMAP
060030
0C03C0
09FC00
090000
110018
11FFF8
110010
310010
51FFF0
910000
910000
11400C
117FF4
114448
114448
117FF8
124448
124448
144448
144448
104458
104000
ENDCHAR
STARTCHAR uni5051
ENCODING -1
SWIDTH 1000 0
DWIDTH 24 0
BBX 22 22 1 -4
BITMAP
0C0000
08FFF8
088010
108010
1081D0
10BE10
308410
308410
50B7D0
90AC90
10A490
10A490
10A490
10BF90
112490
110410
110414
11044C
1207CC
127824
140024
100000
ENDCHAR
STARTCHAR uni5053
ENCODING -1
SWIDTH 1000 0
DWIDTH 24 0
BBX 22 21 1 -3
BITMAP
0C0000
08FFF8
088008
108008
108018
10FFE0
308000
30BFFC
508400
908420
108810
10BFF8
112008
110100
110100
110118
113FE0
120200
120200
140208
10FFFC
ENDCHAR
STARTCHAR uni5055
ENCODING -1
SWIDTH 1000 0
DWIDTH 24 0
BBX 22 22 1 -4
BITMAP
06C180
048100
088108
089934
10E1C0
108100
308104
308108
50B90C
93C0F8
920600
100400
10CC30
10B3D0
108010
108010
10FFF0
108010
108010
108030
10FFF0
100000
ENDCHAR
STARTCHAR uni5057
ENCODING -1
SWIDTH 1000 0
DWIDTH 24 0
BBX 22 22 1 -4
BITMAP
060300
040200
086220
084218
08822C
109644
110C80
300300
500400
901818
90E7F8
132010
102010
103FF0
102010
102010
103FF0
102010
102010
102010
103FF8
102000
ENDCHAR
STARTCHAR uni505A
ENCODING -1
SWIDTH 1000 0
DWIDTH 24 0
BBX 23 22 0 -4
BITMAP
062040
042080
044080
084080
084080
127C8E
19C178
184108
284308
484308
884508
09FC90
090890
090890
090860
090820
090860
09F890
090918
08020C
080C06
080000
ENDCHAR
STARTCHAR uni505B
ENCODING -1
SWIDTH 1000 0
DWIDTH 24 0
BBX 22 22 1 -4
BITMAP
040010
0C00F8
087F00
080200
100200
10020C
19FFF0
300200
500200
503208
90C278
108208
108208
108208
10FAF8
108208
108208
108208
108208
10FFF8
108008
100000
ENDCHAR
STARTCHAR uni505C
ENCODING -1
SWIDTH 1000 0
DWIDTH 24 0
BBX 22 22 1 -4
BITMAP
0C0600
080400
08041C
11FBE0
100000
20FFF0
308020
308020
50FFE0
900000
900004
13FFFC
120008
140020
10FFD0
100200
100200
100200
100200
100200
101E00
100400
ENDCHAR
STARTCHAR uni505D
ENCODING -1
SWIDTH 1000 0
DWIDTH 24 0
BBX 22 21 1 -3
BITMAP
0C1980
081108
08111C
10F1E0
101100
101108
307104
3190FC
501000
900030
107FF0
104020
104020
107FE0
104020
104020
107FE0
104020
104020
104120
1040E0
ENDCHAR
STARTCHAR uni505E
ENCODING -1
SWIDTH 1000 0
DWIDTH 24 0
BBX 22 22 1 -4
BITMAP
0C6660
084440
084440
09FFFC
104440
104440
104440
3047C0
504000
507FFC
904000
100600
100408
13FFFC
100D00
101480
102440
102460
104438
11840C
120400
100400
ENDCHAR
STARTCHAR uni505F
ENCODING -1
SWIDTH 1000 0
DWIDTH 24 0
BBX 23 22 1 -4
BITMAP
060400
0C0800
088818
08F7F8
108010
108010
10FFF0
308010
508010
50C010
90BFF0
100000
100018
11FFE0
100400
100410
10FFF8
100400
100400
100400
13FFFE
100000
ENDCHAR
STARTCHAR uni5060
ENCODING -1
SWIDTH 1000 0
DWIDTH 24 0
BBX 22 22 1 -4
BITMAP
0C0000
08001C
08FFE0
080900
108898
10FFF8
308910
308910
508910
50FFF0
908010
100C00
10080C
11F7F0
1010C0
102080
107180
104F00
1002C0
100C30
103008
11C000
ENDCHAR
STARTCHAR uni5061
ENCODING -1
SWIDTH 1000 0
DWIDTH 24 0
BBX 22 22 1 -4
BITMAP
0C30E0
082080
0820DC
10FFA0
102080
102080
303F80
302080
502080
903F80
102080
102088
13FFFC
108900
108910
109110
109110
10A0F0
10C000
108018
10FFF8
008000
ENDCHAR
STARTCHAR uni5062
ENCODING -1
SWIDTH 1000 0
DWIDTH 24 0
BBX 23 22 1 -4
BITMAP
0C0040
083040
09C040
104040
104040
10404C
33FA48
20C248
60C250
A0E4E0
A0D4C0
2150C0
2140C0
2240C0
244120
244120
204120
204210
204208
20440C
304806
200000
ENDCHAR
STARTCHAR uni5063
ENCODING -1
SWIDTH 1000 0
DWIDTH 24 0
BBX 22 22 1 -4
BITMAP
060700
040400
0C0418
08FBE0
084040
102060
182040
301080
50011C
51FEE0
900000
104030
107FF0
104020
104020
107FE0
104020
104020
104020
107FE0
104020
100000
ENDCHAR
STARTCHAR uni5064
ENCODING -1
SWIDTH 1000 0
DWIDTH 24 0
BBX 22 22 1 -4
BITMAP
040000
0C07C0
082040
084020
108030
111FD8
1A0904
300900
50BFF8
50C908
908910
109150
109130
10A1D0
108010
108010
10FFF0
108010
108010
108018
10FFE8
100000
ENDCHAR
STARTCHAR uni5065
ENCODING -1
SWIDTH 1000 0
DWIDTH 24 0
BBX 22 22 1 -4
BITMAP
080180
180100
13C330
108DD0
108110
21031C
313DF0
620110
626310
A5CDF0
204100
224110
224FE8
268100
2A8100
213FFC
210100
228100
224300
243000
280FFC
200000
ENDCHAR
STARTCHAR uni5068
ENCODING -1
SWIDTH 1000 0
DWIDTH 24 0
BBX 22 22 1 -4
BITMAP
0C6180
084100
084100
0B411C
127D60
124180
324104
324104
527904
53C18C
9300F0
100400
100408
13FFF4
101E00
101500
102480
104440
108430
13041C
100400
100000
ENDCHAR
STARTCHAR uni5069
ENCODING -1
SWIDTH 1000 0
DWIDTH 24 0
BBX 22 22 1 -4
BITMAP
040C00
0C1000
081FF0
082020
104040
1083C0
318008
30FFF8
508008
908008
90FFF8
108008
108008
10FFF8
108008
108008
10FFF8
108000
1018C0
102038
10C004
130000
ENDCHAR
STARTCHAR uni506A
ENCODING -1
SWIDTH 1000 0
DWIDTH 24 0
BBX 22 22 1 -4
BITMAP
0C0000
08801C
087FE0
080000
100010
103FF0
302010
302010
502010
901FF0
900000
10800C
10FFFC
108208
108208
108208
10FFF8
108208
108208
108208
10FDF8
100000
ENDCHAR
STARTCHAR uni506B
ENCODING -1
SWIDTH 1000 0
DWIDTH 24 0
BBX 22 22 1 -4
BITMAP
0C40C0
0C4080
088098
0887E0
110080
116080
324080
345FFC
508000
508030
918020
12BFFC
148020
108020
108420
108220
108220
108020
108020
108020
1081E0
008040
ENDCHAR
STARTCHAR uni506D
ENCODING -1
SWIDTH 1000 0
DWIDTH 24 0
BBX 22 21 1 -3
BITMAP
0C0000
08001C
09FFE0
100400
100400
100800
30FFF8
508888
508888
908888
108888
108F88
108888
108888
108888
108F88
108888
108888
108888
108888
10F778
ENDCHAR
STARTCHAR uni506E
ENCODING -1
SWIDTH 1000 0
DWIDTH 24 0
BBX 22 22 1 -4
BITMAP
040000
047FF0
084020
084020
084030
107FF0
180000
30001C
51FFE0
504020
904020
107FE0
104020
104020
107FE0
104020
104020
1047E0
13F820
120020
100020
100020
ENDCHAR
STARTCHAR uni506F
ENCODING -1
SWIDTH 1000 0
DWIDTH 24 0
BBX 22 22 1 -4
BITMAP
0C0600
080400
100408
13FFFC
100000
200000
30FFE0
208020
608020
A08020
A08020
20FFE0
201400
202210
20C238
214140
264080
204240
205C20
21E018
33000C
200000
ENDCHAR
STARTCHAR uni5070
ENCODING -1
SWIDTH 1000 0
DWIDTH 24 0
BBX 22 22 1 -4
BITMAP
0C6000
0843FC
09FC88
104088
104088
117888
30C108
304108
507A10
93C210
104CF0
104020
100C00
100800
13FFFC
100C00
101200
101100
102080
104060
108038
010000
ENDCHAR
STARTCHAR uni5072
ENCODING -1
SWIDTH 1000 0
DWIDTH 24 0
BBX 23 22 0 -4
BITMAP
060000
047FFC
044108
084108
084108
084108
187FF8
184108
284108
484108
887FF8
084008
080200
081900
081080
08104C
089002
089012
091012
0A1010
080FF0
080000
ENDCHAR
STARTCHAR uni5073
ENCODING -1
SWIDTH 1000 0
DWIDTH 24 0
BBX 22 22 1 -4
BITMAP
0C0300
08C218
088210
088210
108210
10FDF0
388000
30000C
51FFF0
900400
900800
11080C
11FFFC
110888
110888
110888
110888
110888
110888
1108A8
110018
100000
ENDCHAR
STARTCHAR uni5074
ENCODING -1
SWIDTH 1000 0
DWIDTH 24 0
BBX 22 22 1 -4
BITMAP
080000
090C0C
11FC08
110888
110888
210888
31F888
210888
610888
A10888
A1F888
210888
210888
210888
210888
23F888
200008
20D008
208808
210408
220238
240000
ENDCHAR
STARTCHAR uni5075
ENCODING -1
SWIDTH 1000 0
DWIDTH 24 0
BBX 22 22 1 -4
BITMAP
060700
040400
04061C
0805E0
080400
100408
187BF8
304008
504008
507FF8
904008
104008
104008
107FF8
104008
104008
10FFF8
104008
1008C0
103038
10C004
130000
ENDCHAR
STARTCHAR uni5076
ENCODING -1
SWIDTH 1000 0
DWIDTH 24 0
BBX 22 22 1 -4
BITMAP
068010
04FFF0
088410
088410
088410
10FFF0
108410
308410
50FFF0
508410
900400
120404
13FFFC
120404
120448
120428
123FE8
126008
120008
120008
120038
100000
ENDCHAR
STARTCHAR uni5077
ENCODING -1
SWIDTH 1000 0
DWIDTH 24 0
BBX 22 22 1 -4
BITMAP
040C00
040C00
081200
082100
102080
104060
218198
323E04
540000
521818
93E990
120910
131910
12E910
120910
13F910
120910
120910
120810
120810
123070
100000
ENDCHAR
STARTCHAR uni507A
ENCODING -1
SWIDTH 1000 0
DWIDTH 24 0
BBX 22 21 1 -3
BITMAP
063000
044030
087E20
088440
108440
118460
194898
32490C
503104
D03200
904C00
1083FC
110000
120030
10FFF0
108020
10C020
10BFE0
108020
10C020
10BFE0
ENDCHAR
STARTCHAR uni507D
ENCODING -1
SWIDTH 1000 0
DWIDTH 24 0
BBX 23 22 1 -4
BITMAP
0C00E0
088F00
08F000
088430
110408
120008
34FFE0
508040
508040
908058
10FFB0
108010
108010
10FFFE
110004
110244
110224
124928
124908
148008
1400F0
100020
ENDCHAR
STARTCHAR uni5080
ENCODING -1
SWIDTH 1000 0
DWIDTH 24 0
BBX 23 22 0 -4
BITMAP
020200
060400
040400
04FFFC
088208
088208
188208
18FFF8
288208
488208
888208
08FFF8
081200
081230
081220
081220
082248
0822F6
084202
088202
0901FE
080000
ENDCHAR
STARTCHAR uni5082
ENCODING -1
SWIDTH 1000 0
DWIDTH 24 0
BBX 22 22 1 -4
BITMAP
0C0070
091F80
09E200
090200
1103F0
110200
313FFC
314008
514200
5143F0
914E08
114208
1141F8
114000
124460
124440
124440
148440
148848
110844
11307C
104000
ENDCHAR
STARTCHAR uni5083
ENCODING -1
SWIDTH 1000 0
DWIDTH 24 0
BBX 22 22 1 -4
BITMAP
0C0600
080408
08FFF4
080400
100438
10FFC0
300400
320C1C
51FBE0
5010C0
90E180
102200
101C20
102010
13FFEC
100404
100400
10C4C0
108420
110418
120408
100400
ENDCHAR
STARTCHAR uni5085
ENCODING -1
SWIDTH 1000 0
DWIDTH 24 0
BBX 22 22 1 -4
BITMAP
0406C0
080420
08040C
09FFF0
100400
110430
31FFD0
310410
51FFF0
910410
118410
117FF0
110410
110040
10004C
13FFF0
100040
106040
101040
100040
1003C0
100080
ENDCHAR
STARTCHAR uni5087
ENCODING -1
SWIDTH 1000 0
DWIDTH 24 0
BBX 22 22 1 -4
BITMAP
0C60C0
084080
13FFFC
104080
104080
200000
30000C
67FFF0
608040
A08040
20FFC0
208040
208040
20FFC0
208040
208040
2083C0
27FC40
200040
200040
200040
200040
ENDCHAR
STARTCHAR uni508B
ENCODING -1
SWIDTH 1000 0
DWIDTH 24 0
BBX 22 22 1 -4
BITMAP
0C3180
082110
09FFE8
082100
1031B0
10EF40
302100
33FFFC
500400
500420
90FFE0
108420
10842C
11FFF0
108420
10842C
13FBF0
108020
108020
108020
1180E0
108040
ENDCHAR
STARTCHAR uni508C
ENCODING -1
SWIDTH 1000 0
DWIDTH 24 0
BBX 22 22 1 -4
BITMAP
0C0000
09FFFC
090200
090200
110210
11FFE0
310200
310200
518230
517FC0
910200
110200
11FFFC
110004
10000C
1004C8
112228
112228
122008
120010
1001F0
100040
ENDCHAR
STARTCHAR uni508D
ENCODING -1
SWIDTH 1000 0
DWIDTH 24 0
BBX 22 22 1 -4
BITMAP
0C0600
080400
080418
08FBE0
102060
101080
301080
31FFFC
520008
920600
900400
10040C
11FBF0
101000
101010
101FF0
102010
102020
104020
108020
1101C0
120000
ENDCHAR
STARTCHAR uni508E
ENCODING -1
SWIDTH 1000 0
DWIDTH 24 0
BBX 22 22 1 -4
BITMAP
0CC030
0881E0
08FE08
088008
108008
107FF8
300000
300020
537FE0
524020
927FE0
124020
127FE0
124020
124020
127FE0
120008
13FFF4
120000
1060F0
11800C
160004
ENDCHAR
STARTCHAR uni5091
ENCODING -1
SWIDTH 1000 0
DWIDTH 24 0
BBX 22 22 1 -4
BITMAP
044020
0C8020
088820
08FFFC
111020
131220
249420
342420
5027FC
504020
908020
110620
100400
17FFFC
100E00
101500
102480
104460
108430
13041C
100400
100400
ENDCHAR
STARTCHAR uni5092
ENCODING -1
SWIDTH 1000 0
DWIDTH 24 0
BBX 22 22 1 -4
BITMAP
0C0070
080380
08FC00
108410
110208
110204
321880
3020C0
506100
903600
901820
102030
11FFC8
100400
100C08
17FFFC
100C00
101200
102180
104060
11803C
120000
ENDCHAR
STARTCHAR uni5094
ENCODING -1
SWIDTH 1000 0
DWIDTH 24 0
BBX 22 22 1 -4
BITMAP
041820
0871C0
08A200
082208
13FFFC
102200
102330
30FEF0
502220
50233C
93FEE0
102220
102220
10FFE0
106280
10A280
112240
112230
12221C
142200
102200
102200
ENDCHAR
STARTCHAR uni5095
ENCODING -1
SWIDTH 1000 0
DWIDTH 24 0
BBX 22 22 1 -4
BITMAP
0C0C00
091000
091008
09FFFC
122010
122180
304200
308208
51FFF4
538400
948400
108418
10FFE0
108400
108400
108418
10FFE0
108400
108400
10840C
11FBF0
110000
ENDCHAR
STARTCHAR uni5096
ENCODING -1
SWIDTH 1000 0
DWIDTH 24 0
BBX 22 22 1 -4
BITMAP
060600
040A00
080900
081080
082040
1063B0
109C1C
318020
56FFF0
908020
90FFE0
108020
108020
10FFE0
108000
10A030
115FD0
114010
124010
123FF0
144010
100000
ENDCHAR
STARTCHAR uni5098
ENCODING -1
SWIDTH 1000 0
DWIDTH 24 0
BBX 22 22 1 -4
BITMAP
003000
004800
00C400
010200
020180
0C3060
1321B8
E22104
042300
0B24C0
10A820
622080
042100
0A2280
112460
20A800
00200C
7FFFF0
002000
002000
002000
002000
ENDCHAR
STARTCHAR uni5099
ENCODING -1
SWIDTH 1000 0
DWIDTH 24 0
BBX 22 21 1 -3
BITMAP
0C3080
082180
082118
13FFE0
102100
102100
30218C
37DE70
510000
914018
917FF0
114210
114210
127FF0
124210
124210
126310
125EF0
144210
144210
304230
ENDCHAR
STARTCHAR uni509A
ENCODING -1
SWIDTH 1000 0
DWIDTH 24 0
BBX 22 22 1 -4
BITMAP
0C6080
0840C0
184080
104C80
13B100
20010C
2191F8
210910
620310
A41310
241510
212110
20A120
2060A0
206040
205040
2090C0
211120
220210
240418
20080C
201000
ENDCHAR
STARTCHAR uni509B
ENCODING -1
SWIDTH 1000 0
DWIDTH 24 0
BBX 22 22 1 -4
BITMAP
0C0600
090400
09060C
09F9F8
120008
1630C0
304030
308418
510A0C
501100
902080
104060
108038
13802C
10FFE0
108020
108020
108020
108020
108020
10FFE0
108020
ENDCHAR
STARTCHAR uni509C
ENCODING -1
SWIDTH 1000 0
DWIDTH 24 0
BBX 22 22 1 -4
BITMAP
0C0C00
081020
082FF0
08E040
131080
108300
304400
301800
50E000
976000
907FF8
108400
110400
10040C
13FFF0
100400
118410
110410
110410
110430
11FBE0
100000
ENDCHAR
STARTCHAR uni509D
ENCODING -1
SWIDTH 1000 0
DWIDTH 24 0
BBX 22 22 1 -4
BITMAP
0C0000
09FFF8
090010
090010
11FFF0
110010
318010
317FF0
500000
50180C
93F8FC
105028
109048
111088
121308
103018
105028
109048
111188
161008
103038
100000
ENDCHAR
STARTCHAR uni509E
ENCODING -1
SWIDTH 1000 0
DWIDTH 24 0
BBX 23 22 1 -4
BITMAP
0C4060
0820C0
083080
080118
11FEE0
100400
300410
31FFE0
500400
500400
97FFFC
104000
104000
104010
10FFE0
108200
110200
110200
120200
120200
15FFFE
100000
ENDCHAR
STARTCHAR uni50A2
ENCODING -1
SWIDTH 1000 0
DWIDTH 24 0
BBX 22 22 1 -4
BITMAP
0C0600
080400
09040C
11FBF8
120000
220020
307FC0
301800
502808
90C838
910440
100B80
101200
106300
118780
100940
101130
10611C
118100
100200
101E00
100000
ENDCHAR
STARTCHAR uni50A3
ENCODING -1
SWIDTH 1000 0
DWIDTH 24 0
BBX 22 22 1 -4
BITMAP
0C0C00
080810
09FFF8
080800
101000
10FFF0
301200
302100
57FFFC
504080
904C40
108C20
110830
12C8DC
142D00
100B00
102880
10C860
110830
110818
103800
100000
ENDCHAR
STARTCHAR uni50AC
ENCODING -1
SWIDTH 1000 0
DWIDTH 24 0
BBX 22 22 1 -4
BITMAP
0C0300
08C218
088210
088210
10FFF0
108010
306180
304100
50C208
90BFF0
918200
128200
148238
10FFC0
108200
108208
10FFF0
108200
108200
10FFFC
108000
108000
ENDCHAR
STARTCHAR uni50AD
ENCODING -1
SWIDTH 1000 0
DWIDTH 24 0
BBX 23 22 0 -4
BITMAP
060300
040200
04FFFE
088100
08A118
109FE8
18810A
10FFFC
308108
509FF8
908100
108104
10BFFC
112104
113FFC
112104
112104
113FFC
122104
122104
102118
100000
ENDCHAR
STARTCHAR uni50AE
ENCODING -1
SWIDTH 1000 0
DWIDTH 24 0
BBX 22 22 1 -4
BITMAP
0C1080
081080
0BFFFC
081080
121080
13FFFC
321088
321088
53FFF8
521088
921088
13EF78
100000
10FFF0
108010
108010
108030
10FFD0
108010
108010
10FFF0
108000
ENDCHAR
STARTCHAR uni50AF
ENCODING -1
SWIDTH 1000 0
DWIDTH 24 0
BBX 22 21 1 -3
BITMAP
040600
0C0400
080818
08F7F8
108610
10A410
309CD0
309390
508190
9086D0
108850
109010
10FFF0
108010
100200
103100
10A010
112008
112044
132044
101FE0
ENDCHAR
STARTCHAR uni50B0
ENCODING -1
SWIDTH 1000 0
DWIDTH 24 0
BBX 22 22 1 -4
BITMAP
0C0300
088208
088208
108208
108208
10FDF8
300000
300804
51F9FC
910904
910904
11098C
11F974
110904
110904
11F9FC
110904
110904
120904
120A04
143A38
101000
ENDCHAR
STARTCHAR uni50B1
ENCODING -1
SWIDTH 1000 0
DWIDTH 24 0
BBX 22 22 1 -4
BITMAP
0CC630
088420
090420
090660
120550
126948
309084
309104
510000
510000
930180
150900
110900
111998
1111E0
111900
111900
112500
112300
114180
1140FC
110000
ENDCHAR
STARTCHAR uni50B2
ENCODING -1
SWIDTH 1000 0
DWIDTH 24 0
BBX 23 22 1 -4
BITMAP
086000
0C40C0
104080
13FC80
104080
20408C
22D978
712108
604308
A04288
27FE90
208090
210090
21F8A0
210860
210860
210860
221090
221110
24B208
286406
200800
ENDCHAR
STARTCHAR uni50B3
ENCODING -1
SWIDTH 1000 0
DWIDTH 24 0
BBX 22 22 1 -4
BITMAP
060600
0C0400
080418
09FFE0
100410
10FFF0
390410
30FFF0
510410
908410
917FF0
100440
100470
11FB90
100060
10004C
13FFF0
106040
101040
100040
1003C0
100000
ENDCHAR
STARTCHAR uni50B4
ENCODING -1
SWIDTH 1000 0
DWIDTH 24 0
BBX 22 22 1 -4
BITMAP
0C0000
090018
09FFE0
090000
110820
110FE0
310820
310820
510820
510FE0
910000
110088
113EF8
112488
112488
112488
113CF8
112488
110000
11000C
11FFF0
100000
ENDCHAR
STARTCHAR uni50B5
ENCODING -1
SWIDTH 1000 0
DWIDTH 24 0
BBX 22 22 1 -4
BITMAP
0C0600
080410
09FFE8
080400
108670
107D80
300404
31FBF8
500000
90FFF0
908010
108020
10FFE0
108020
10FFE0
108020
108030
10FFD0
101080
103070
11C00C
160000
ENDCHAR
STARTCHAR uni50B6
ENCODING -1
SWIDTH 1000 0
DWIDTH 24 0
BBX 22 22 1 -4
BITMAP
0C01A0
080110
080100
12010C
13FFF0
120100
323108
322108
522510
923910
122090
1226A0
12D8A0
1210A0
12D040
129440
129240
1512A4
151134
14121C
10640C
100000
ENDCHAR
STARTCHAR uni50B7
ENCODING -1
SWIDTH 1000 0
DWIDTH 24 0
BBX 22 22 1 -4
BITMAP
0C6000
084018
08FFE0
108000
117FF0
324020
304020
507FE0
504020
907FE0
10000C
13FFF0
106000
104018
10BFE8
110888
161108
106110
108210
130C10
1011E0
102040
ENDCHAR
STARTCHAR uni50B8
ENCODING -1
SWIDTH 1000 0
DWIDTH 24 0
BBX 22 22 1 -4
BITMAP
0C0600
080400
080408
0BFFFC
100400
122498
31C470
30C438
5124C8
900400
902408
124C90
118C70
114A48
122A00
101100
101100
102080
104060
108030
11000C
120000
ENDCHAR
STARTCHAR uni50BA
ENCODING -1
SWIDTH 1000 0
DWIDTH 24 0
BBX 22 22 1 -4
BITMAP
0C6200
084200
087E78
088510
10C920
1128A0
331040
349060
502030
504018
9180CC
123F00
100000
100010
11FFE8
100400
104400
108460
108410
130408
101C00
100800
ENDCHAR
STARTCHAR uni50BB
ENCODING -1
SWIDTH 1000 0
DWIDTH 24 0
BBX 22 22 1 -4
BITMAP
0C0C00
081000
09FFF8
090010
1119D0
110710
3118D0
310010
51FFF0
902100
902104
1049FC
109C00
111060
102FE0
1050C0
108880
110700
100700
1018E0
10E03C
130000
ENDCHAR
STARTCHAR uni50BD
ENCODING -1
SWIDTH 1000 0
DWIDTH 24 0
BBX 22 22 1 -4
BITMAP
0C0400
080410
08FBE0
0840C0
102080
102108
31DEF0
300000
51FFF0
510020
910020
11FFE0
110020
110020
11FFE0
100400
100408
17FFF4
100400
100400
100C00
100000
ENDCHAR
STARTCHAR uni50BE
ENCODING -1
SWIDTH 1000 0
DWIDTH 24 0
BBX 24 22 0 -4
BITMAP
040000
0C0806
0987F8
090080
110084
1107FE
193404
314404
518604
5105FC
910404
110404
1107FC
112404
112404
112604
11F7FC
100000
100398
100606
101803
102000
ENDCHAR
STARTCHAR uni50BF
ENCODING -1
SWIDTH 1000 0
DWIDTH 24 0
BBX 22 22 1 -4
BITMAP
0C0000
09FFFC
080400
10C400
108470
108780
308400
308408
517BF4
904000
908030
10FFC0
108000
10801C
117FE8
100108
100488
122258
122210
122030
3001E0
000080
ENDCHAR
STARTCHAR uni50C1
ENCODING -1
SWIDTH 1000 0
DWIDTH 24 0
BBX 22 22 1 -4
BITMAP
0C00E0
081F00
08E800
088860
104840
102880
300918
33FEE0
501A00
502900
904880
108860
11081C
160000
102400
102210
122108
122004
122044
142040
103FC0
100000
ENDCHAR
STARTCHAR uni50C2
ENCODING -1
SWIDTH 1000 0
DWIDTH 24 0
BBX 22 22 1 -4
BITMAP
0C0400
090430
09F7D0
090410
13FFFC
110410
310430
31FFD0
500400
51FFF8
910410
110410
11FFF0
101000
10200C
13DFF0
104080
10F100
110F00
1004E0
101818
13E000
ENDCHAR
STARTCHAR uni50C4
ENCODING -1
SWIDTH 1000 0
DWIDTH 24 0
BBX 22 22 1 -4
BITMAP
0C0000
09FFFC
080880
080880
11FFF8
110888
310888
310888
51FFF8
510008
900020
107FC0
100000
10000C
13FFF0
100200
106240
104230
108208
130204
101C00
100000
ENDCHAR
STARTCHAR uni50C5
ENCODING -1
SWIDTH 1000 0
DWIDTH 24 0
BBX 23 22 0 -4
BITMAP
042040
043040
082044
08FFF8
082040
1030C0
182F40
300200
30FFF8
508210
908210
10FFF0
108200
100204
11FFF8
100200
100200
10FFF8
100200
100200
13FFFE
100000
ENDCHAR
STARTCHAR uni50C6
ENCODING -1
SWIDTH 1000 0
DWIDTH 24 0
BBX 23 22 1 -4
BITMAP
0C0080
098080
085FFC
080080
100080
100FF8
318888
308888
500FF8
500888
909888
11DFF8
108080
108080
10808C
109FF0
108080
114080
112080
121802
1207FC
100000
ENDCHAR
STARTCHAR uni50C7
ENCODING -1
SWIDTH 1000 0
DWIDTH 24 0
BBX 22 22 1 -4
BITMAP
040000
0CFDFC
081828
082848
10C998
111838
303C68
304088
518608
900D00
901080
102260
10C71C
131800
102180
11C200
100C38
1070C0
118180
100600
103800
10C000
ENDCHAR
STARTCHAR uni50C8
ENCODING -1
SWIDTH 1000 0
DWIDTH 24 0
BBX 22 22 1 -4
BITMAP
064020
047FE0
044020
087FE0
084020
084020
187FE0
100000
33FFFC
521084
921088
131088
12EF7C
100020
107FF0
102040
1010C0
100980
100600
100D80
10707C
1B8000
ENDCHAR
STARTCHAR uni50C9
ENCODING -1
SWIDTH 1000 0
DWIDTH 24 0
BBX 22 22 1 -4
BITMAP
003000
007000
004800
008400
010300
060080
080660
31F81C
C00000
10CC70
1F4BA0
104820
104820
104820
1FCFE0
020100
020100
040300
0F0280
188460
204830
400010
ENDCHAR
STARTCHAR uni50CA
ENCODING -1
SWIDTH 1000 0
DWIDTH 24 0
BBX 22 22 1 -4
BITMAP
0C0000
09FFF8
081100
101110
11FFF8
111110
311110
311110
51EEF0
503000
902008
13FFF0
104080
108060
117FB8
16408C
104180
104308
104008
104008
107FF8
100000
ENDCHAR
STARTCHAR uni50CB
ENCODING -1
SWIDTH 1000 0
DWIDTH 24 0
BBX 22 22 1 -4
BITMAP
0C0C00
081400
083300
086080
109F60
11001C
3600C0
307F80
500100
51FFF0
910020
110020
11FFE0
110020
110020
11FFE0
110020
11FFE0
110020
1071C0
108038
130000
ENDCHAR
STARTCHAR uni50CE
ENCODING -1
SWIDTH 1000 0
DWIDTH 24 0
BBX 23 22 1 -4
BITMAP
0C0808
09F9F8
090908
110908
11F9F8
110100
310908
30CD8C
503070
900000
1030C0
102088
11FFF0
102080
102080
102084
17FFFE
100000
1038E0
104018
11800C
160000
ENDCHAR
STARTCHAR uni50CF
ENCODING -1
SWIDTH 1000 0
DWIDTH 24 0
BBX 23 22 0 -4
BITMAP
061800
041000
043FC0
042080
084100
08C30C
1BBEF8
188208
288208
48FFF8
888400
080A00
08320C
08C710
090DA0
0831C0
09C3A0
080C98
08308E
09C080
080700
080200
ENDCHAR
STARTCHAR uni50D1
ENCODING -1
SWIDTH 1000 0
DWIDTH 24 0
BBX 23 22 0 -4
BITMAP
020030
0603C0
047C00
040400
09FFFE
080880
181040
183FF0
28504C
499046
881FC0
081040
088006
08FFFC
088044
088FC4
088844
088844
088FC4
088004
08801C
088008
ENDCHAR
STARTCHAR uni50D3
ENCODING -1
SWIDTH 1000 0
DWIDTH 24 0
BBX 22 22 1 -4
BITMAP
0C0600
080410
08F7F0
088410
108410
10FFF0
300400
33FFFC
500000
50FFF8
910010
108010
10FFF0
110010
10FFF0
110010
118010
117FF0
1010C0
106030
11800C
160000
ENDCHAR
STARTCHAR uni50D4
ENCODING -1
SWIDTH 1000 0
DWIDTH 24 0
BBX 22 22 1 -4
BITMAP
0C0100
086300
084080
088160
111E18
161204
31FFF0
312210
512290
51C110
910010
11FFF0
110010
11FFF0
100080
10008C
13FFF0
104080
102080
100080
100380
100000
ENDCHAR
STARTCHAR uni50D5
ENCODING -1
SWIDTH 1000 0
DWIDTH 24 0
BBX 22 22 1 -4
BITMAP
0C1B00
091218
089220
105220
10124C
13EDB0
3040C0
302080
502108
93FFFC
900400
100400
11FFF0
100400
100808
13FFFC
101200
101100
102080
104060
11801C
120000
ENDCHAR
STARTCHAR uni50D6
ENCODING -1
SWIDTH 1000 0
DWIDTH 24 0
BBX 22 22 1 -4
BITMAP
040200
0C0200
08060C
09FFF0
100400
118638
1079C0
304030
507FE0
904020
904020
103FE0
101060
101080
13FFFC
100000
108030
10FFD0
108010
108010
10FFF0
108000
ENDCHAR
STARTCHAR uni50D7
ENCODING -1
SWIDTH 1000 0
DWIDTH 24 0
BBX 22 22 1 -4
BITMAP
0C4040
085848
0A9050
0AE2E0
128680
10C0C0
313130
320208
500400
51000C
92FFF8
120C10
140800
101830
10EFF0
101020
101020
101020
102020
104040
1183C0
160000
ENDCHAR
STARTCHAR uni50DA
ENCODING -1
SWIDTH 1000 0
DWIDTH 24 0
BBX 23 22 0 -4
BITMAP
060300
040400
050C0E
08FBF0
098888
105050
182020
106038
31DFEE
524020
906020
105FE0
104020
106020
105FE0
100200
103260
104210
10C208
110204
1A0E04
100400
ENDCHAR
STARTCHAR uni50DB
ENCODING -1
SWIDTH 1000 0
DWIDTH 24 0
BBX 23 22 1 -4
BITMAP
0D9880
091080
191100
111D00
13F100
2111FC
311208
61F250
A11450
211440
2110C0
21F0C0
2110C0
2114C0
27FEA0
2000A0
21A120
211110
220A18
220A0C
240406
200800
ENDCHAR
STARTCHAR uni50DD
ENCODING -1
SWIDTH 1000 0
DWIDTH 24 0
BBX 22 22 1 -4
BITMAP
0C0000
09FFF8
090008
098018
117FE0
113FF0
310040
310380
517FFC
510200
910600
110000
110408
113E7C
110810
111220
121C2C
12F1F0
121020
141020
1070E0
100000
ENDCHAR
STARTCHAR uni50E0
ENCODING -1
SWIDTH 1000 0
DWIDTH 24 0
BBX 22 22 1 -4
BITMAP
0C0020
0807D0
09FC00
088430
104440
102440
30048C
33FF70
503580
504440
908438
13040C
140010
11FFF0
110410
110410
11FFF0
110410
110410
110410
11FBF0
100000
ENDCHAR
STARTCHAR uni50E3
ENCODING -1
SWIDTH 1000 0
DWIDTH 24 0
BBX 22 22 1 -4
BITMAP
0C60C0
084080
084880
0BFFF8
104080
104880
37FFFC
30C1C0
50A120
509230
910418
120824
14FFE0
108020
108020
108020
10FFE0
108020
108020
108020
10FFE0
100000
ENDCHAR
STARTCHAR uni50E4
ENCODING -1
SWIDTH 1000 0
DWIDTH 24 0
BBX 22 22 1 -4
BITMAP
0C0000
09F9F8
091108
091108
111118
11E1E8
300000
30FFF8
510410
510410
90FFF0
110410
110410
10FFF0
100410
100400
10040C
13FFF0
100400
100400
100400
100400
ENDCHAR
STARTCHAR uni50E5
ENCODING -1
SWIDTH 1000 0
DWIDTH 24 0
BBX 23 22 1 -4
BITMAP
060600
080400
08FFF0
080400
100408
13FBF4
304080
304080
505898
91E7E0
904880
10F088
130374
100000
17FFFE
102100
102100
102104
104104
108104
1101FC
120000
ENDCHAR
STARTCHAR uni50E6
ENCODING -1
SWIDTH 1000 0
DWIDTH 24 0
BBX 22 22 1 -4
BITMAP
0C60C0
084080
084098
104088
13F880
10008C
300BF0
33F880
520880
9208A0
9208A0
13B8A0
1240A0
1040A0
135120
124920
124920
144220
184228
104428
11C83C
101000
ENDCHAR
STARTCHAR uni50E7
ENCODING -1
SWIDTH 1000 0
DWIDTH 24 0
BBX 22 22 1 -4
BITMAP
0C00C0
086340
084040
088020
110018
13FFFC
350410
3144D0
512490
910510
110410
11FBF0
100000
10FFE0
108040
108040
108040
10FFC0
108040
108040
10FFC0
100040
ENDCHAR
STARTCHAR uni50E8
ENCODING -1
SWIDTH 1000 0
DWIDTH 24 0
BBX 22 22 1 -4
BITMAP
0C0600
080400
09FFF8
080400
106440
10444C
33FBF0
3040C0
500000
50FFF0
908010
108010
10FFF0
108010
108030
10FFD0
108010
11FFF0
100000
1079E0
118018
120000
ENDCHAR
STARTCHAR uni50E9
ENCODING -1
SWIDTH 1000 0
DWIDTH 24 0
BBX 22 22 1 -4
BITMAP
0A190C
1BF9FC
120908
121908
13F9F8
320908
331908
52E9F8
920008
922188
123E88
122088
122188
123E88
122088
122088
123F88
122088
122088
1247C8
120138
100000
ENDCHAR
STARTCHAR uni50EA
ENCODING -1
SWIDTH 1000 0
DWIDTH 24 0
BBX 22 22 1 -4
BITMAP
0C0000
08FFF0
080040
080F80
13FBFC
100D0C
301110
306100
538F00
500200
93FFFC
121108
122128
1221E8
124008
121F88
122088
122088
121F88
120008
120038
120010
ENDCHAR
STARTCHAR uni50EC
ENCODING -1
SWIDTH 1000 0
DWIDTH 24 0
BBX 22 22 1 -4
BITMAP
0C6180
084100
088200
088208
11FFFC
110200
330200
358230
517FC0
510200
910200
11FFF8
110200
110200
110208
11FDF4
100000
100000
111118
12108C
161084
100000
ENDCHAR
STARTCHAR uni50ED
ENCODING -1
SWIDTH 1000 0
DWIDTH 24 0
BBX 22 21 1 -3
BITMAP
0C0000
081818
10E1E0
134340
125248
23E3F0
306060
30A0A0
50A4A4
913924
92623C
140000
108010
10FFF0
108010
108010
10FFF0
108010
108010
108010
30FFF0
ENDCHAR
STARTCHAR uni50EE
ENCODING -1
SWIDTH 1000 0
DWIDTH 24 0
BBX 22 22 1 -4
BITMAP
040600
0C0400
09FFFC
080040
103040
101080
30011C
31FEE0
508030
90FFF0
908420
10C620
10BDE0
108420
10FFE0
100400
100410
11FFF8
100400
100400
13FFFC
100000
ENDCHAR
STARTCHAR uni50EF
ENCODING -1
SWIDTH 1000 0
DWIDTH 24 0
BBX 22 22 1 -4
BITMAP
0C0600
08C430
082440
080488
13FFFC
101500
3024C0
30C438
530400
50C420
908020
11FFFC
111040
122340
152440
10A440
10446C
1083B0
108040
110040
160060
100000
ENDCHAR
STARTCHAR uni50F0
ENCODING -1
SWIDTH 1000 0
DWIDTH 24 0
BBX 22 22 1 -4
BITMAP
040180
0DD11C
760FE0
4C9110
779FF0
449110
459130
4C1380
1F0560
249938
C4610C
042100
042100
002000
006000
005000
00C800
008400
030300
0400C0
38003C
400000
ENDCHAR
STARTCHAR uni50F1
ENCODING -1
SWIDTH 1000 0
DWIDTH 24 0
BBX 22 22 1 -4
BITMAP
060020
0C03F8
08FC00
088000
10FFF8
108008
108008
308008
50FFF8
909CE0
911080
111FFC
112100
116100
113FF8
112100
112100
123FF8
122100
142100
103FFC
102000
ENDCHAR
STARTCHAR uni50F3
ENCODING -1
SWIDTH 1000 0
DWIDTH 24 0
BBX 22 22 1 -4
BITMAP
0C0000
08001C
08FFE0
081100
11FFF8
111108
311108
311108
51FFF8
510008
900600
106420
102440
10048C
13FF70
101D00
101480
102440
104460
118418
12040C
100400
ENDCHAR
STARTCHAR uni50F5
ENCODING -1
SWIDTH 1000 0
DWIDTH 24 0
BBX 23 22 1 -4
BITMAP
040000
0DFFFC
080000
087FF0
104210
104210
307FF0
304210
507FF0
500000
90000C
11FFF0
100010
10FFF8
108210
10FFF0
108210
108210
10FDF0
100000
13FFFE
100000
ENDCHAR
STARTCHAR uni50F6
ENCODING -1
SWIDTH 1000 0
DWIDTH 24 0
BBX 23 22 1 -4
BITMAP
060000
040008
09FFF8
091108
091108
119198
117160
301100
301108
51F1F8
911108
111108
111108
11F1F8
111108
111108
11F1F8
111100
101104
101104
100F9E
100060
ENDCHAR
STARTCHAR uni50F8
ENCODING -1
SWIDTH 1000 0
DWIDTH 24 0
BBX 22 22 1 -4
BITMAP
0C3040
082040
082448
11FFFC
1070E0
106960
30A550
31224C
522C44
902040
900000
10FFF0
100000
100000
13FFFC
100200
102200
104260
108210
110208
121E00
100400
ENDCHAR
STARTCHAR uni50F9
ENCODING -1
SWIDTH 1000 0
DWIDTH 24 0
BBX 22 22 1 -4
BITMAP
0C0000
09FFFC
081100
101108
11FFF8
111108
311108
51FFF8
500000
908030
10FFF0
108020
10FFE0
108020
108020
10FFE0
108020
10FFE0
100000
1038E0
10C018
170000
ENDCHAR
STARTCHAR uni50FB
ENCODING -1
SWIDTH 1000 0
DWIDTH 24 0
BBX 22 22 1 -4
BITMAP
080060
1BF840
121040
1210DC
121320
221218
321210
23F110
620120
A20020
A207FC
221040
23F840
231040
2510CC
251370
291040
291040
21F040
211040
210040
200000
ENDCHAR
STARTCHAR uni50FD
ENCODING -1
SWIDTH 1000 0
DWIDTH 24 0
BBX 22 21 1 -3
BITMAP
0C0040
0C3840
09C040
084040
10584C
11E250
30C2E0
30F4C0
6148A0
A14120
A24210
20440C
204800
200000
200400
203210
212108
222044
222044
202040
301FE0
ENDCHAR
STARTCHAR uni50FE
ENCODING -1
SWIDTH 1000 0
DWIDTH 24 0
BBX 22 22 1 -4
BITMAP
040030
0603E0
04FC00
084430
082220
100040
11FFFC
320008
521630
509110
909088
1119C0
100600
101800
102040
107FE0
10E0C0
111980
100700
100580
10387C
13C000
ENDCHAR
STARTCHAR uni50FF
ENCODING -1
SWIDTH 1000 0
DWIDTH 24 0
BBX 22 22 1 -4
BITMAP
060700
0C0400
09060C
09F9F8
111980
121100
18FFF0
301100
501120
503FC0
901100
101118
10FEE0
102040
104660
118438
1204CC
101F00
100400
100400
11FFFC
100000
ENDCHAR
STARTCHAR uni5100
ENCODING -1
SWIDTH 1000 0
DWIDTH 24 0
BBX 22 22 1 -4
BITMAP
0C2060
081080
080108
11FEF4
100400
108C70
307780
300408
53FBF4
900000
903DB0
11E110
10210C
13FFF0
102100
102518
10F8A0
1320C0
1020C4
102334
11EC1C
100004
ENDCHAR
STARTCHAR uni5102
ENCODING -1
SWIDTH 1000 0
DWIDTH 24 0
BBX 23 22 0 -4
BITMAP
020C80
060880
044CD8
046BA8
084888
087FF8
184888
184888
287778
480004
88FFF8
088000
089FF8
088000
08EEFE
089100
09108C
091090
091160
091E30
0A600E
084000
ENDCHAR
STARTCHAR uni5103
ENCODING -1
SWIDTH 1000 0
DWIDTH 24 0
BBX 22 22 1 -4
BITMAP
0C0700
080400
0BFFFC
080000
10BFF8
10C010
309190
309E90
509090
909F90
908010
10FFF0
100000
107FE0
104020
104060
107FA0
104020
107FE0
104000
10001C
13FFE0
ENDCHAR
STARTCHAR uni5104
ENCODING -1
SWIDTH 1000 0
DWIDTH 24 0
BBX 22 22 1 -4
BITMAP
080400
080410
13FBE0
104040
102080
202100
27FFFC
600000
608060
A0FFA0
208020
20FFE0
208020
208020
20FFE0
200800
206600
204210
224088
264084
2C3FC4
200000
ENDCHAR
STARTCHAR uni5105
ENCODING -1
SWIDTH 1000 0
DWIDTH 24 0
BBX 22 22 1 -4
BITMAP
060600
044430
082440
080480
08FFFC
110008
194020
327FE0
504040
904040
906040
105F80
100000
11FFF8
110410
110410
118410
117FF0
110410
110410
11FBF0
100000
ENDCHAR
STARTCHAR uni5106
ENCODING -1
SWIDTH 1000 0
DWIDTH 24 0
BBX 22 22 1 -4
BITMAP
0C0000
089060
089040
0BFE80
109080
10908C
300178
318108
510F08
92F518
940510
162510
13E490
1224A0
122460
132860
12E860
1208B0
100918
108A0C
107400
100000
ENDCHAR
STARTCHAR uni5107
ENCODING -1
SWIDTH 1000 0
DWIDTH 24 0
BBX 23 22 1 -4
BITMAP
060000
04FFF8
048888
088888
08CC98
08B360
180000
11FFFE
300000
504038
907FD0
104010
104010
107FF0
100908
101118
1070A0
109040
111030
101E1C
10F000
100000
ENDCHAR
STARTCHAR uni5108
ENCODING -1
SWIDTH 1000 0
DWIDTH 24 0
BBX 22 22 1 -4
BITMAP
060600
040E00
080900
0810C0
102020
105F9C
118000
32FFF8
508410
90A470
909490
108410
10FBF0
100000
103FE0
104020
104020
103FE0
104020
104020
103FE0
100000
ENDCHAR
STARTCHAR uni5109
ENCODING -1
SWIDTH 1000 0
DWIDTH 24 0
BBX 22 22 1 -4
BITMAP
040600
060C00
080A00
081100
0820C0
104020
10BF98
330004
500000
911918
91E9E8
110908
110908
110908
11F9F8
102040
104080
1040C0
10B120
110918
120208
140400
ENDCHAR
STARTCHAR uni510A
ENCODING -1
SWIDTH 1000 0
DWIDTH 24 0
BBX 22 22 1 -4
BITMAP
063040
0C2040
082040
09FFFC
1070E0
10A960
30AA50
31244C
562040
902040
900008
11FFF8
100410
106400
104420
1047D0
104400
10A400
109400
110E00
1201FC
100000
ENDCHAR
STARTCHAR uni510B
ENCODING -1
SWIDTH 1000 0
DWIDTH 24 0
BBX 23 22 1 -4
BITMAP
061C00
041000
043FC0
082080
08430C
10FCF0
194844
304878
307000
504FF0
904000
107FFE
108000
108FF8
108000
108FF8
108000
111FF8
111008
121008
101FF8
100000
ENDCHAR
STARTCHAR uni510C
ENCODING -1
SWIDTH 1000 0
DWIDTH 24 0
BBX 22 22 1 -4
BITMAP
0C2080
0840C0
084480
11BC80
110900
11090C
31F9F8
310908
510908
91FB08
902110
102090
126690
119890
1080A0
10FC60
108860
110860
110890
120918
14320C
100400
ENDCHAR
STARTCHAR uni5110
ENCODING -1
SWIDTH 1000 0
DWIDTH 24 0
BBX 22 22 1 -4
BITMAP
040300
060200
08820C
097DFC
090030
107FC0
100200
306270
508380
900400
903BF8
13E010
102010
103FF0
102010
103FF0
102010
103FF0
100000
101C70
10600C
108004
ENDCHAR
STARTCHAR uni5111
ENCODING -1
SWIDTH 1000 0
DWIDTH 24 0
BBX 22 21 1 -3
BITMAP
0C0000
08FFF8
088010
088010
10FFF0
108010
30C010
30BFF0
506020
904040
119188
109890
106060
104040
10889C
11F9E4
110000
100010
111108
110884
130884
ENDCHAR
STARTCHAR uni5112
ENCODING -1
SWIDTH 1000 0
DWIDTH 24 0
BBX 23 22 0 -4
BITMAP
040000
0CFFFC
080200
080204
09FFFE
110208
12FAF8
300200
301218
506260
900000
13FDFE
100200
100400
10FFFC
108888
108888
108888
108888
108888
108898
100000
ENDCHAR
STARTCHAR uni5113
ENCODING -1
SWIDTH 1000 0
DWIDTH 24 0
BBX 22 22 1 -4
BITMAP
060600
0C0410
08FFE8
080420
107BD0
100000
307FE0
304040
507FC0
900000
11FFFC
120008
14FFE0
101000
102060
10FFB0
100400
100420
107FC0
100400
10040C
13FBF0
ENDCHAR
STARTCHAR uni5114
ENCODING -1
SWIDTH 1000 0
DWIDTH 24 0
BBX 22 22 1 -4
BITMAP
060400
0C0430
09FFC0
080460
107B80
100008
19FFFC
300090
507F40
900400
91FFF0
100000
17FFFC
100020
111034
11F3F8
111020
111320
111120
11F020
1000E0
100040
ENDCHAR
STARTCHAR uni5115
ENCODING -1
SWIDTH 1000 0
DWIDTH 24 0
BBX 22 22 1 -4
BITMAP
040600
0C0400
0BFFFC
081000
100988
13F130
38A6D0
312490
512488
9224FC
944480
100000
104030
107FE0
104020
108020
10FFE0
108020
108020
110020
120020
100000
ENDCHAR
STARTCHAR uni5117
ENCODING -1
SWIDTH 1000 0
DWIDTH 24 0
BBX 22 22 1 -4
BITMAP
0C0000
0903FC
093810
09C020
1100C0
111040
319820
306000
5183FC
910048
111840
12E340
144240
104258
17FA60
104240
104240
10B640
109540
1108C0
12107C
100000
ENDCHAR
STARTCHAR uni5118
ENCODING -1
SWIDTH 1000 0
DWIDTH 24 0
BBX 24 22 0 -4
BITMAP
040600
040410
087FF8
080410
080416
13FFF8
180410
10FFF0
300400
500404
93FBF8
100110
100888
110884
120004
10FFF8
108910
108910
108910
108910
14D99F
132660
ENDCHAR
STARTCHAR uni511A
ENCODING -1
SWIDTH 1000 0
DWIDTH 24 0
BBX 22 22 1 -4
BITMAP
0C3180
082108
13E1F0
102100
100000
21FFF8
211110
711110
A19110
A16EF0
200004
27FFFC
240C08
281810
203FE0
2060C0
20A080
231100
200200
200C00
203000
23C000
ENDCHAR
STARTCHAR uni511C
ENCODING -1
SWIDTH 1000 0
DWIDTH 24 0
BBX 22 22 1 -4
BITMAP
060700
0C0400
08040C
09FBFC
111210
121110
389048
311064
500F80
908030
10FFF0
109120
109120
13FFFC
100000
100018
10FFE0
100400
100400
100400
103C00
100000
ENDCHAR
STARTCHAR uni511F
ENCODING -1
SWIDTH 1000 0
DWIDTH 24 0
BBX 22 22 1 -4
BITMAP
0C0620
186460
102440
11FFFC
120004
227FE8
344040
604040
607FC0
A00000
20FFF0
208020
208020
20FFE0
208020
20FFE0
208020
208020
20FFC0
2031C0
20C038
270000
ENDCHAR
STARTCHAR uni5120
ENCODING -1
SWIDTH 1000 0
DWIDTH 24 0
BBX 22 22 1 -4
BITMAP
066318
0C4610
098420
088C60
104210
100000
11FFF8
312188
511F08
9138C8
91FFF8
100000
118630
117520
1104E0
114420
1135A0
110414
111454
17E79C
14180C
100000
ENDCHAR
STARTCHAR uni5121
ENCODING -1
SWIDTH 1000 0
DWIDTH 24 0
BBX 22 22 1 -4
BITMAP
0C0000
08FFE0
108840
108840
108840
20FFC0
208840
608840
60FFC0
A08040
200000
27F3FC
249448
249448
249448
2592C8
26F578
249448
249448
249248
2775B8
200000
ENDCHAR
STARTCHAR uni5122
ENCODING -1
SWIDTH 1000 0
DWIDTH 24 0
BBX 24 22 0 -4
BITMAP
020600
060618
0405E0
048606
08F9FC
088860
18BF80
188408
2883F0
488008
889FF8
089108
089FF8
089108
089FF8
090000
090680
09044C
092412
0A4411
0807F8
080000
ENDCHAR
STARTCHAR uni5124
ENCODING -1
SWIDTH 1000 0
DWIDTH 24 0
BBX 22 22 1 -4
BITMAP
060000
047FF0
084020
087FE0
084020
104020
107FE0
301080
51BFF8
505080
901080
13FFFC
103080
104640
108430
1324DC
101700
101C80
106460
118410
101C00
100000
ENDCHAR
STARTCHAR uni5125
ENCODING -1
SWIDTH 1000 0
DWIDTH 24 0
BBX 23 22 0 -4
BITMAP
060380
040206
04FFF8
080208
087DF0
080000
18FFFE
188844
288844
48FFFC
880000
087FFC
084008
087FF8
084008
086008
085FF8
086008
081FF8
080C70
08700E
098000
ENDCHAR
STARTCHAR uni5126
ENCODING -1
SWIDTH 1000 0
DWIDTH 24 0
BBX 22 22 1 -4
BITMAP
060300
0C0200
09FFFC
090880
110880
11FFF8
310888
310888
51F778
913080
912098
113EA0
1120C0
112704
1178FC
114000
110000
120810
124888
124444
108444
100000
ENDCHAR
STARTCHAR uni5129
ENCODING -1
SWIDTH 1000 0
DWIDTH 24 0
BBX 22 22 1 -4
BITMAP
182000
13FFF8
122810
122810
222FF0
222810
33E810
622810
622FF0
A22200
23E200
2227FC
2225A4
222924
223228
23E448
200848
215088
222108
222210
2410F0
200000
ENDCHAR
STARTCHAR uni512A
ENCODING -1
SWIDTH 1000 0
DWIDTH 24 0
BBX 22 22 1 -4
BITMAP
0C0008
09FFF0
080800
107FF0
104020
207FE0
304020
507FE0
504024
93BFDC
123608
14A018
113048
101F80
101040
102FE0
1050C0
108980
130700
100DC0
10303C
13C000
ENDCHAR
STARTCHAR uni512D
ENCODING -1
SWIDTH 1000 0
DWIDTH 24 0
BBX 22 22 1 -4
BITMAP
0CE000
08C3FC
10D208
112208
121208
3123F8
212208
605208
A3A208
A0C3F8
20C208
209208
21E208
20C3F8
21E320
219120
229120
248224
208224
208424
30883C
208000
ENDCHAR
STARTCHAR uni512E
ENCODING -1
SWIDTH 1000 0
DWIDTH 24 0
BBX 22 21 1 -3
BITMAP
0C0000
09FFFC
110000
110E18
1171E0
311040
315F7C
5130E0
913CD0
9132C8
11514C
119040
111040
110300
110200
123200
1223F0
122200
122200
122208
31FFFC
ENDCHAR
STARTCHAR uni5130
ENCODING -1
SWIDTH 1000 0
DWIDTH 24 0
BBX 22 22 1 -4
BITMAP
0C3080
082088
09FFFC
082100
100000
1001E0
31FE00
310810
510408
52FFC8
908040
108080
10FF70
108020
108024
10FFDC
108044
112124
112508
124408
140078
100010
ENDCHAR
STARTCHAR uni5131
ENCODING -1
SWIDTH 1000 0
DWIDTH 24 0
BBX 22 22 1 -4
BITMAP
0C4300
084200
105A0C
11A3F0
121A00
311318
3122E8
507808
938008
9003F8
13FA00
121230
1213C0
13F200
1213F8
121200
13F210
1213E0
121204
121204
3231FC
020000
ENDCHAR
STARTCHAR uni5132
ENCODING -1
SWIDTH 1000 0
DWIDTH 24 0
BBX 22 22 1 -4
BITMAP
0C0080
082080
09C104
1001E8
100788
17F110
300110
302124
53C7F8
900080
900120
13F210
100718
1002E8
13F208
122208
1223F8
122208
122208
13E208
1223F8
100000
ENDCHAR
STARTCHAR uni5133
ENCODING -1
SWIDTH 1000 0
DWIDTH 24 0
BBX 23 22 0 -4
BITMAP
030C00
021FC0
043080
047FF8
08C008
087FF8
180000
184688
2878F0
484682
89FC7C
080840
0817C0
08208C
08DF7C
094208
087FF8
084680
08049A
081882
0860FE
098000
ENDCHAR
STARTCHAR uni5134
ENCODING -1
SWIDTH 1000 0
DWIDTH 24 0
BBX 22 22 1 -4
BITMAP
060700
0C0408
09FFFC
080000
10FDF8
108910
10F9F0
300000
501100
51FFF8
901100
10FFF0
101100
10110C
11EEF0
101210
106160
13A080
102240
107C38
11C00C
100000
ENDCHAR
STARTCHAR uni5135
ENCODING -1
SWIDTH 1000 0
DWIDTH 24 0
BBX 23 22 0 -4
BITMAP
0C0800
081008
081FFC
102860
1646C0
1403C0
340C3E
35F00C
547FFC
944208
145A68
144308
147FF8
140200
147FF8
140200
15FFFE
140000
140888
108444
110442
100000
ENDCHAR
STARTCHAR uni5137
ENCODING -1
SWIDTH 1000 0
DWIDTH 24 0
BBX 23 22 1 -4
BITMAP
081008
19E1F4
100008
13F9FC
225148
229148
321448
600400
63FFFC
A21100
221118
23FFE8
221108
223118
23CEE0
224180
22593C
2461C0
244104
244D04
21F0FE
210000
ENDCHAR
STARTCHAR uni5138
ENCODING -1
SWIDTH 1000 0
DWIDTH 24 0
BBX 22 21 1 -3
BITMAP
0C0000
09FFF8
091110
091110
11FFF0
100000
1061B0
308120
511A48
50A3F4
90C640
109240
111BFC
13EA40
104240
1043FC
115240
124A40
124A40
144BFC
104200
ENDCHAR
STARTCHAR uni5139
ENCODING -1
SWIDTH 1000 0
DWIDTH 24 0
BBX 22 22 1 -4
BITMAP
0C2040
09A340
09FBFC
082440
102844
11D1B8
3090A4
30B924
512218
928020
10FFE0
108020
10FFE0
108020
10FFE0
108020
108020
10FFE0
100000
1038E0
10C018
130004
ENDCHAR
STARTCHAR uni513A
ENCODING -1
SWIDTH 1000 0
DWIDTH 24 0
BBX 22 22 1 -4
BITMAP
191190
122118
133D20
21E22C
2223F0
21E620
208220
64DA20
67ABFC
A48A20
26DA20
25A220
208220
27FBFC
208220
208A20
23F220
208220
21632C
2212D0
240A00
200200
ENDCHAR
STARTCHAR uni513B
ENCODING -1
SWIDTH 1000 0
DWIDTH 24 0
BBX 22 22 1 -4
BITMAP
0C0620
086460
082440
11FFFC
120008
127FE0
304020
304040
507FE0
900000
10FFF8
10A450
109490
10FFF0
100400
11FFF0
100400
17FFFC
100000
101118
111084
121080
ENDCHAR
STARTCHAR uni513C
ENCODING -1
SWIDTH 1000 0
DWIDTH 24 0
BBX 22 22 1 -4
BITMAP
080000
0DFBF0
090A10
110A10
11FBF0
200000
33FFFC
240000
65FCC0
A42080
22248C
23D978
248910
24FB10
248C90
248890
24F860
248860
24F860
298890
280B0C
200000
ENDCHAR
STARTCHAR uni513D
ENCODING -1
SWIDTH 1000 0
DWIDTH 24 0
BBX 22 22 1 -4
BITMAP
0C0000
08FFE0
088420
10FFE0
10C420
20BBC0
23FBFC
324A48
62D248
A373F8
225248
23A9B8
200880
2031C0
201200
200C10
23FFE8
200400
206460
208418
230404
200400
ENDCHAR
STARTCHAR uni513F
ENCODING -1
SWIDTH 1000 0
DWIDTH 24 0
BBX 21 20 2 -3
BITMAP
030C00
020800
020800
020800
020800
020800
020800
020800
020800
020800
020800
020800
040800
040800
080800
080808
100808
200808
400C18
8003F8
ENDCHAR
STARTCHAR uni5140
ENCODING -1
SWIDTH 1000 0
DWIDTH 24 0
BBX 22 20 1 -3
BITMAP
000008
FFFFF4
010400
010400
010400
010400
010400
010400
010400
010400
020400
020400
020400
040400
040400
080404
080404
100404
200404
4003F8
ENDCHAR
STARTCHAR uni5141
ENCODING -1
SWIDTH 1000 0
DWIDTH 24 0
BBX 22 22 1 -4
BITMAP
006000
004000
004000
008000
008100
010080
020060
0FFFB0
718410
008400
010400
010400
010400
010400
010400
020400
020400
040408
080408
10040C
2007FC
C00000
ENDCHAR
STARTCHAR uni5143
ENCODING -1
SWIDTH 1000 0
DWIDTH 24 0
BBX 21 20 2 -3
BITMAP
000180
3FFE40
000000
000000
000000
000020
FFFFF0
021000
021000
021000
021000
021000
041000
041000
041000
081010
101010
201010
401FF8
800000
ENDCHAR
STARTCHAR uni5144
ENCODING -1
SWIDTH 1000 0
DWIDTH 24 0
BBX 21 21 2 -4
BITMAP
3FFFC0
200080
200080
200080
200080
200080
200080
200080
3FFF80
210880
010800
010800
020800
020800
020800
040808
040808
080808
300818
4007F8
800000
ENDCHAR
STARTCHAR uni5145
ENCODING -1
SWIDTH 1000 0
DWIDTH 24 0
BBX 22 22 1 -4
BITMAP
003800
002000
002008
FFFFFC
004000
008000
008200
010100
0200C0
03FFA0
3C8810
008800
008800
010800
010800
010800
010808
020808
040808
080C08
1007F8
600000
ENDCHAR
STARTCHAR uni5146
ENCODING -1
SWIDTH 1000 0
DWIDTH 24 0
BBX 22 21 2 -3
BITMAP
011800
011000
011000
011000
C11070
2110C0
111100
191200
091C00
011000
031C00
051300
1A10C0
E21060
821020
021000
041008
081008
081008
10081C
6007E0
ENDCHAR
STARTCHAR uni5147
ENCODING -1
SWIDTH 1000 0
DWIDTH 24 0
BBX 22 21 1 -4
BITMAP
180370
100440
110440
10C840
103840
102C40
104640
118340
120140
100040
1FFFC0
108860
010800
010800
010800
010808
020808
040808
080C0C
3007F8
C00000
ENDCHAR
STARTCHAR uni5148
ENCODING -1
SWIDTH 1000 0
DWIDTH 24 0
BBX 22 22 1 -4
BITMAP
003800
061000
042000
0C2080
0FFFE0
082000
102000
202000
002000
002008
FFFFFC
010400
010400
010400
010400
010400
020400
020408
040408
08040C
3003FC
400000
ENDCHAR
STARTCHAR uni5149
ENCODING -1
SWIDTH 1000 0
DWIDTH 24 0
BBX 22 22 1 -4
BITMAP
001000
001000
101020
081040
041040
061080
021100
021300
001000
00301C
7FCFE0
010800
010800
010800
010800
010800
020800
040808
040808
180808
2007FC
C00000
ENDCHAR
STARTCHAR uni514B
ENCODING -1
SWIDTH 1000 0
DWIDTH 24 0
BBX 22 22 1 -4
BITMAP
003800
002000
002008
FFFFFC
002000
002000
082040
0FDFC0
080040
080040
080040
080040
0FFFC0
088840
008800
008800
008800
010808
010808
060404
0807FC
700000
ENDCHAR
STARTCHAR uni514C
ENCODING -1
SWIDTH 1000 0
DWIDTH 24 0
BBX 22 22 1 -4
BITMAP
000200
030E00
020200
040100
080080
080040
1401B0
67FE9C
840080
040080
040080
040080
07FF80
008800
008800
008800
010800
010808
020808
040808
1807FC
E00000
ENDCHAR
STARTCHAR uni514D
ENCODING -1
SWIDTH 1000 0
DWIDTH 24 0
BBX 21 22 2 -4
BITMAP
000080
7FFFC0
010080
010080
020100
040F00
180000
600060
BFFFC0
204040
204040
204040
204040
3FFFC0
009000
009000
011008
021008
041008
081008
301FF8
400000
ENDCHAR
STARTCHAR uni5152
ENCODING -1
SWIDTH 1000 0
DWIDTH 24 0
BBX 22 22 1 -4
BITMAP
00C000
030060
1C07A0
100020
100020
108020
1FC3E0
100020
100020
100020
100020
1FFFE0
108420
008400
008400
010400
010404
020404
040404
080404
1003F8
E00000
ENDCHAR
STARTCHAR uni5154
ENCODING -1
SWIDTH 1000 0
DWIDTH 24 0
BBX 22 22 1 -4
BITMAP
030000
060800
05FC00
081000
101000
102020
3FFFE0
D02040
102040
102040
102040
102060
1FFFE0
102800
004800
004980
008844
010824
020804
0C0804
1007FC
E00000
ENDCHAR
STARTCHAR uni5155
ENCODING -1
SWIDTH 1000 0
DWIDTH 24 0
BBX 21 22 2 -4
BITMAP
410020
7F0FE0
410820
410820
410820
41F820
400020
400020
400020
400020
600060
5FFF80
010800
010800
010800
010800
020800
020810
040810
180808
600FF8
800000
ENDCHAR
STARTCHAR uni5157
ENCODING -1
SWIDTH 1000 0
DWIDTH 24 0
BBX 22 22 1 -4
BITMAP
001800
00100C
7FEFF0
000000
019F00
030100
020080
040060
0BFFFC
320080
C20080
020080
020080
03FF80
008400
008400
008400
010408
010408
06040C
1807FC
600000
ENDCHAR
STARTCHAR uni5159
ENCODING -1
SWIDTH 1000 0
DWIDTH 24 0
BBX 21 21 2 -3
BITMAP
0600C0
040080
046100
FF8100
040100
040100
046100
7BC9F8
404700
404100
404100
404100
7FC100
120100
120100
120100
120100
220190
220010
420010
81FFF8
ENDCHAR
STARTCHAR uni515A
ENCODING -1
SWIDTH 1000 0
DWIDTH 24 0
BBX 22 22 1 -4
BITMAP
003040
0C20C0
022080
022100
002204
3FDDFC
400008
440190
C7FE80
040100
040100
040100
07FF80
008800
008800
008800
010804
010804
020804
040C04
1807FC
600000
ENDCHAR
STARTCHAR uni515B
ENCODING -1
SWIDTH 1000 0
DWIDTH 24 0
BBX 22 21 1 -3
BITMAP
060000
040038
0481C0
FFDE80
040080
040080
448080
7B8080
40BFFC
408080
408080
408080
7F8080
520080
120080
120080
120080
220188
220008
420008
81FFF8
ENDCHAR
STARTCHAR uni515C
ENCODING -1
SWIDTH 1000 0
DWIDTH 24 0
BBX 20 22 2 -4
BITMAP
006000
004000
188000
E3FDF0
820820
820820
820820
83F820
820820
820820
9A0820
E3F9E0
000000
031800
021000
021000
021010
021010
041010
081010
300FF0
C00000
ENDCHAR
STARTCHAR uni515D
ENCODING -1
SWIDTH 1000 0
DWIDTH 24 0
BBX 21 21 2 -3
BITMAP
0C0F80
080080
098C80
FE0840
081040
081020
992010
E74000
811FE0
810440
810440
810440
FF0440
240840
240840
241040
241040
242480
444390
840010
87FFF8
ENDCHAR
STARTCHAR uni515E
ENCODING -1
SWIDTH 1000 0
DWIDTH 24 0
BBX 22 21 1 -3
BITMAP
060000
040038
0881C0
7F5E00
080200
080210
4C82E0
739F00
408200
408208
40821C
4083E0
7FBE00
520200
120200
120208
12030C
2200F0
220008
420008
C3FFFC
ENDCHAR
STARTCHAR uni515F
ENCODING -1
SWIDTH 1000 0
DWIDTH 24 0
BBX 22 22 1 -4
BITMAP
0601C0
340D80
240900
240900
258918
5E17E0
441100
842100
042100
040100
FF9FFC
120240
120240
120440
120440
120440
120444
222844
22C844
471044
44207C
80C000
ENDCHAR
STARTCHAR uni5161
ENCODING -1
SWIDTH 1000 0
DWIDTH 24 0
BBX 21 21 2 -3
BITMAP
0C0000
082070
091F80
FE8400
080400
083FE0
992020
E72020
812020
812020
812020
813FE0
FF2020
242020
242020
242020
243060
242FA0
442030
440008
87FFF8
ENDCHAR
STARTCHAR uni5162
ENCODING -1
SWIDTH 1000 0
DWIDTH 24 0
BBX 22 22 1 -4
BITMAP
060180
040100
048108
FFDFFC
040100
040100
040100
7BCEF8
408810
408810
408810
7F8FF0
420040
1A0240
120240
120440
120440
126444
238844
261044
44207C
00C000
ENDCHAR
STARTCHAR uni5163
ENCODING -1
SWIDTH 1000 0
DWIDTH 24 0
BBX 22 21 1 -3
BITMAP
060008
041FF0
049000
7F5418
0417F0
041490
4C9490
7397F0
409490
409490
40A7F0
40A480
7FA080
1227F8
122080
122080
12408C
220F70
220000
42000C
C3FFFC
ENDCHAR
STARTCHAR uni5165
ENCODING -1
SWIDTH 1000 0
DWIDTH 24 0
BBX 22 20 1 -3
BITMAP
07F800
001000
001000
001000
001000
001000
001000
002800
002800
004800
004400
008400
010200
010100
020180
0400C0
080060
100030
60001C
800000
ENDCHAR
STARTCHAR uni5167
ENCODING -1
SWIDTH 1000 0
DWIDTH 24 0
BBX 19 22 3 -4
BITMAP
00C000
0F8000
008000
008000
FFFFE0
804040
80C040
80C040
812040
812040
821040
840840
840440
980740
A00040
800040
800040
800040
800040
800040
8003C0
800000
ENDCHAR
STARTCHAR uni5168
ENCODING -1
SWIDTH 1000 0
DWIDTH 24 0
BBX 21 21 2 -3
BITMAP
004000
1FE000
00E000
009000
010800
020600
040100
1800C0
200278
CFFD00
004000
004000
004000
004180
1FFE00
004000
004000
004000
004000
004060
7FFFF0
ENDCHAR
STARTCHAR uni5169
ENCODING -1
SWIDTH 1000 0
DWIDTH 24 0
BBX 22 21 1 -4
BITMAP
80001C
7FFFE0
001000
001000
203018
3FDFF8
201010
211110
271390
221110
231110
231310
251290
2494D0
28D470
201810
201010
201010
201010
2030F0
200000
ENDCHAR
STARTCHAR uni516B
ENCODING -1
SWIDTH 1000 0
DWIDTH 24 0
BBX 21 20 2 -3
BITMAP
000C00
001400
030800
030800
020800
020800
020800
020400
040400
040400
040200
080200
080100
080100
100080
100080
200040
400020
800018
800000
ENDCHAR
STARTCHAR uni516C
ENCODING -1
SWIDTH 1000 0
DWIDTH 24 0
BBX 22 20 1 -3
BITMAP
003E00
030200
020200
040200
040100
080080
100040
200060
206030
40801C
808000
010000
010000
020100
020080
040080
040040
081FE0
7FE020
200020
ENDCHAR
STARTCHAR uni516D
ENCODING -1
SWIDTH 1000 0
DWIDTH 24 0
BBX 21 19 2 -2
BITMAP
003000
002000
002000
002000
002010
FFDFE8
000000
000000
000000
038400
020200
020100
040180
080080
080040
100060
200020
400030
800010
ENDCHAR
STARTCHAR uni516E
ENCODING -1
SWIDTH 1000 0
DWIDTH 24 0
BBX 21 22 2 -4
BITMAP
003E00
060200
0C0200
080100
100080
200040
400330
9FFC18
040000
040000
040000
080100
0FFF80
080100
000100
000100
000100
000200
000200
000200
00EC00
001800
ENDCHAR
STARTCHAR uni5171
ENCODING -1
SWIDTH 1000 0
DWIDTH 24 0
BBX 21 22 2 -4
BITMAP
020000
030600
020400
020400
020400
020460
3FFF80
020400
020400
020400
020400
020400
020410
FFFFF8
000000
000000
030600
060180
0C00C0
100060
600020
800000
ENDCHAR
STARTCHAR uni5175
ENCODING -1
SWIDTH 1000 0
DWIDTH 24 0
BBX 22 22 1 -4
BITMAP
0001C0
000F00
07F000
040000
040000
040000
07FFF0
040200
040200
040200
040200
040200
040200
040208
FFFFFC
000000
000400
018300
0600C0
080020
300010
C00000
ENDCHAR
STARTCHAR uni5176
ENCODING -1
SWIDTH 1000 0
DWIDTH 24 0
BBX 21 22 2 -4
BITMAP
060300
040200
040200
040230
FFFFC0
040200
040200
07FE00
040200
040200
040200
07FE00
040200
040200
040218
FBFDE0
000000
030400
060300
0800C0
300060
C00000
ENDCHAR
STARTCHAR uni5177
ENCODING -1
SWIDTH 1000 0
DWIDTH 24 0
BBX 22 21 1 -4
BITMAP
0FFFC0
080080
080080
080080
0FFF80
080080
080080
0FFF80
080080
080080
080080
0FFF80
080080
080088
FFFFFC
000000
018600
0301C0
0C0060
300010
400000
ENDCHAR
STARTCHAR uni5178
ENCODING -1
SWIDTH 1000 0
DWIDTH 24 0
BBX 22 22 1 -4
BITMAP
00C600
008400
008400
008430
1FFFF0
108420
108420
108420
108420
1FFFE0
108420
108420
108420
108420
30842C
CF7BD0
000000
038700
0600C0
080030
300010
C00000
ENDCHAR
STARTCHAR uni517C
ENCODING -1
SWIDTH 1000 0
DWIDTH 24 0
BBX 22 22 1 -4
BITMAP
000600
038A00
020100
0400C0
1FFF30
60880C
008800
1FFFE0
008820
008848
FFFFFC
008840
008840
1FFFE0
038C00
028A00
048980
088840
108830
60880C
008800
008800
ENDCHAR
STARTCHAR uni5180
ENCODING -1
SWIDTH 1000 0
DWIDTH 24 0
BBX 21 22 2 -4
BITMAP
018C00
010870
7F0F80
010800
070C18
F903E0
000000
1FFFC0
104080
1FFF80
104080
102080
1FDF80
020800
7FFFF0
020800
020810
FFFFE8
000400
070380
180070
E00010
ENDCHAR
STARTCHAR uni5187
ENCODING -1
SWIDTH 1000 0
DWIDTH 24 0
BBX 22 22 1 -4
BITMAP
004000
008000
00800C
7FFFFC
010000
010000
020000
07FFE0
060040
0A0040
120040
220040
C20040
020040
020040
020040
020040
020040
020040
020040
0203C0
020000
ENDCHAR
STARTCHAR uni5189
ENCODING -1
SWIDTH 1000 0
DWIDTH 24 0
BBX 22 22 1 -4
BITMAP
001800
001000
101020
1FFFE0
101020
101020
101020
101020
1FFFE0
101020
101020
101020
10302C
FFCFF0
100020
100020
100020
100020
100020
100020
1003C0
100080
ENDCHAR
STARTCHAR uni518A
ENCODING -1
SWIDTH 1000 0
DWIDTH 24 0
BBX 21 21 2 -4
BITMAP
7FFFE0
410840
410840
410840
410840
410840
410840
410840
610878
DFFFC0
410840
410840
410840
410840
410840
410840
410840
410840
410840
4001C0
400000
ENDCHAR
STARTCHAR uni518D
ENCODING -1
SWIDTH 1000 0
DWIDTH 24 0
BBX 22 20 1 -3
BITMAP
00001C
7FFFE0
002000
002020
1FFFE0
102020
102020
102020
102060
1FFFA0
102020
102020
10206C
FFDFB0
100020
100020
100020
100020
100460
1003C0
ENDCHAR
STARTCHAR uni518F
ENCODING -1
SWIDTH 1000 0
DWIDTH 24 0
BBX 19 20 3 -3
BITMAP
FFFFE0
822040
822040
822040
822140
842140
843140
881E40
B00040
800C40
87FC40
840840
840840
840840
840840
840840
87F840
800040
800040
8003C0
ENDCHAR
STARTCHAR uni5191
ENCODING -1
SWIDTH 1000 0
DWIDTH 24 0
BBX 19 22 3 -4
BITMAP
00E000
008040
FEFFE0
808040
808040
FFFFC0
808040
808040
FF7FC0
000000
200380
3FFD00
200100
2FF900
200100
200100
2FF900
200100
200100
200100
200F00
200000
ENDCHAR
STARTCHAR uni5192
ENCODING -1
SWIDTH 1000 0
DWIDTH 24 0
BBX 19 20 3 -3
BITMAP
FFFFE0
800040
800240
9FFE40
800040
800040
9FFF40
800040
000000
3FFF00
200100
200100
3FFF00
200100
200100
300300
2FFD00
200100
200100
3FFF00
ENDCHAR
STARTCHAR uni5193
ENCODING -1
SWIDTH 1000 0
DWIDTH 24 0
BBX 22 22 1 -4
BITMAP
018300
010210
3FFFE0
010200
010220
1FFFD0
010200
010208
7EFDF0
002000
0FFFE0
082020
082020
7FFFFC
082020
082020
FFFFFC
080020
080020
080020
0801C0
080000
ENDCHAR
STARTCHAR uni5194
ENCODING -1
SWIDTH 1000 0
DWIDTH 24 0
BBX 22 21 1 -3
BITMAP
100020
1FFFE0
100020
100020
1FFFE0
100020
180020
17FFE0
000000
040038
FE3FC0
840200
840200
840208
84FFF4
840200
FC0200
840200
000200
000200
001E00
ENDCHAR
STARTCHAR uni5195
ENCODING -1
SWIDTH 1000 0
DWIDTH 24 0
BBX 21 22 2 -4
BITMAP
000080
1FFF80
200080
27FC80
200080
27FC80
200080
060000
07F800
081000
302040
7FFFE0
A04040
204040
204040
3FFFC0
20A008
00A008
012008
062008
181878
E00780
ENDCHAR
STARTCHAR uni5197
ENCODING -1
SWIDTH 1000 0
DWIDTH 24 0
BBX 22 20 1 -3
BITMAP
200018
3FFFE8
200010
400020
C00000
01FE00
010400
010400
010400
010400
010400
010400
010400
020400
020408
020408
040408
080404
10061C
6001E0
ENDCHAR
STARTCHAR uni5198
ENCODING -1
SWIDTH 1000 0
DWIDTH 24 0
BBX 22 22 1 -4
BITMAP
003000
002000
002000
002000
3FFFFC
402008
402010
402020
802000
003800
003000
005000
005000
005000
009000
009000
011008
021008
041008
08180C
3007F8
C00000
ENDCHAR
STARTCHAR uni519E
ENCODING -1
SWIDTH 1000 0
DWIDTH 24 0
BBX 22 21 1 -4
BITMAP
1FFFFC
200010
600020
C03000
002080
082080
062100
022200
002400
002838
3FF7C0
00A800
01A400
012200
062100
0820C0
102070
602010
002000
002000
002000
ENDCHAR
STARTCHAR uni51A0
ENCODING -1
SWIDTH 1000 0
DWIDTH 24 0
BBX 22 20 1 -3
BITMAP
200018
3FFFF0
400010
400000
00C060
0F0040
000048
001FF4
006040
3F8040
090C40
090440
090240
090040
110040
110048
1103C8
210008
418008
80FFF8
ENDCHAR
STARTCHAR uni51A2
ENCODING -1
SWIDTH 1000 0
DWIDTH 24 0
BBX 23 21 1 -3
BITMAP
200000
3FFFFC
400008
400010
C00060
0FFF80
004000
018000
064030
186040
60E180
059200
061C00
0E3400
314A00
408900
0308C0
040870
38081E
C01000
01F000
ENDCHAR
STARTCHAR uni51A4
ENCODING -1
SWIDTH 1000 0
DWIDTH 24 0
BBX 22 21 1 -4
BITMAP
3FFFF8
200008
400010
C7FF80
008100
010100
021F00
040400
3FFFF0
502020
102020
102020
1FFFE0
103020
005200
005180
009048
011008
06100C
180FFC
E00000
ENDCHAR
STARTCHAR uni51A5
ENCODING -1
SWIDTH 1000 0
DWIDTH 24 0
BBX 21 20 2 -3
BITMAP
3FFFF8
400010
400120
8FFF80
080100
080100
0FFF00
080100
080100
0FFF00
080100
003000
002018
FFDFE0
000000
030400
020300
040080
080060
700020
ENDCHAR
STARTCHAR uni51AA
ENCODING -1
SWIDTH 1000 0
DWIDTH 24 0
BBX 23 22 1 -4
BITMAP
200008
3FFFFC
408410
408CD0
0FF700
008480
0F7B80
080080
0FFF80
080080
0FFF80
008000
FFFFFC
020200
043180
0FFFF0
34209E
C42080
042080
042380
002000
002000
ENDCHAR
STARTCHAR uni51AC
ENCODING -1
SWIDTH 1000 0
DWIDTH 24 0
BBX 21 21 2 -3
BITMAP
018000
010000
020300
05FF00
0E0600
120400
210800
409000
807000
007000
008800
030700
0C01E0
31C038
C03000
000800
000040
000380
000C00
00F000
0F0000
ENDCHAR
STARTCHAR uni51B0
ENCODING -1
SWIDTH 1000 0
DWIDTH 24 0
BBX 22 22 1 -4
BITMAP
000600
800400
600400
300400
100418
000430
03F440
002780
082600
102600
104500
204500
204480
208440
C10420
410430
220418
24040C
200404
200400
003C00
000800
ENDCHAR
STARTCHAR uni51B1
ENCODING -1
SWIDTH 1000 0
DWIDTH 24 0
BBX 22 21 1 -4
BITMAP
C00018
21FFE0
301000
101000
002000
042060
083FE0
084040
084040
104040
104040
108040
208080
20FF80
E10080
200080
200080
200100
200108
27FFFC
200000
ENDCHAR
STARTCHAR uni51B6
ENCODING -1
SWIDTH 1000 0
DWIDTH 24 0
BBX 21 21 2 -3
BITMAP
000C00
800800
401000
201000
202080
042040
084020
08C010
109FF8
13E008
200000
200000
208070
40FFA0
C08020
408020
408020
408020
408020
40FFE0
008020
ENDCHAR
STARTCHAR uni51B7
ENCODING -1
SWIDTH 1000 0
DWIDTH 24 0
BBX 22 22 1 -4
BITMAP
000600
800C00
400A00
201100
102080
002040
044060
0881B0
091E0C
160004
100000
100030
21FFF0
201020
601020
201020
201020
201020
2010E0
201000
001000
001000
ENDCHAR
STARTCHAR uni51B9
ENCODING -1
SWIDTH 1000 0
DWIDTH 24 0
BBX 22 22 1 -4
BITMAP
001900
8010C0
401020
201000
101018
00FFE0
041000
081000
081020
081020
103060
102840
102840
202440
204480
E04380
208100
208280
210460
221838
24600C
200000
ENDCHAR
STARTCHAR uni51BC
ENCODING -1
SWIDTH 1000 0
DWIDTH 24 0
BBX 22 22 1 -4
BITMAP
000600
006400
C04400
204400
108430
10FFC0
050400
090400
080400
080408
13FFFC
101100
101100
201100
602100
202100
204104
204104
208104
210104
0201FC
0C0000
ENDCHAR
STARTCHAR uni51BD
ENCODING -1
SWIDTH 1000 0
DWIDTH 24 0
BBX 21 21 2 -3
BITMAP
000018
001C18
CFE010
608190
208110
010910
01FD10
120910
120910
241110
261110
299110
50A110
402110
C04110
408110
408010
410010
420010
440010
1800F0
ENDCHAR
STARTCHAR uni51BE
ENCODING -1
SWIDTH 1000 0
DWIDTH 24 0
BBX 22 22 1 -4
BITMAP
000600
000600
C00900
200900
101080
102040
044030
088018
097FCC
0A0000
100000
100000
108030
20FFF0
608020
208020
208020
208020
208020
208020
00FFE0
008020
ENDCHAR
STARTCHAR uni51C4
ENCODING -1
SWIDTH 1000 0
DWIDTH 24 0
BBX 21 22 2 -4
BITMAP
001C00
001000
87FFF8
401000
201040
01FFC0
001040
101858
13FFE0
201040
201840
21F7C0
402000
406018
47DFE0
C08100
418200
427600
400F00
4010E0
406030
1F8000
ENDCHAR
STARTCHAR uni51C5
ENCODING -1
SWIDTH 1000 0
DWIDTH 24 0
BBX 21 20 2 -3
BITMAP
83FFF8
420010
220610
220410
020410
0A04D0
127F10
120410
120410
220410
223FD0
222090
222090
422090
C22090
422090
423F90
420010
43FFF0
420010
ENDCHAR
STARTCHAR uni51C6
ENCODING -1
SWIDTH 1000 0
DWIDTH 24 0
BBX 22 21 1 -3
BITMAP
003080
402180
204100
204200
104218
00BFE0
088200
098200
0A8200
14C230
14BFC0
208200
208200
608200
C0FFF0
408200
208200
208200
208208
00FFFC
008000
ENDCHAR
STARTCHAR uni51C8
ENCODING -1
SWIDTH 1000 0
DWIDTH 24 0
BBX 21 22 2 -4
BITMAP
0000E0
800F00
40F000
208860
210410
020408
0A0008
15FFF0
100820
200820
200838
23FFE0
400820
400820
C00820
40FFE0
400800
400800
400800
400800
007800
001000
ENDCHAR
STARTCHAR uni51CA
ENCODING -1
SWIDTH 1000 0
DWIDTH 24 0
BBX 22 22 1 -4
BITMAP
000600
800400
610638
30FDC0
100400
00FFF0
080400
08040C
09FBF0
100000
108030
10FFF0
208420
208420
E08420
40FFE0
408020
208020
208020
208020
2081E0
008000
ENDCHAR
STARTCHAR uni51CB
ENCODING -1
SWIDTH 1000 0
DWIDTH 24 0
BBX 21 20 2 -3
BITMAP
01FFF8
C10008
210408
210488
013F48
010408
090408
1104C8
117B08
210008
210008
213FC8
422088
C22088
422088
423F88
422088
440008
040018
0800F0
ENDCHAR
STARTCHAR uni51CC
ENCODING -1
SWIDTH 1000 0
DWIDTH 24 0
BBX 22 22 2 -4
BITMAP
000C00
000800
800860
41FF80
200800
200810
0FF7E8
104200
104200
108218
2101F0
223000
446080
405FC0
C0C180
412100
461200
400C00
401E00
402180
01C07C
0E0000
ENDCHAR
STARTCHAR uni51CD
ENCODING -1
SWIDTH 1000 0
DWIDTH 24 0
BBX 23 22 1 -4
BITMAP
000600
800400
40040C
23FFF0
100400
000410
09FFF8
090410
090410
11FFF0
110410
210410
218C10
217FF0
401500
402480
404440
208460
210430
06040E
000400
000400
ENDCHAR
STARTCHAR uni51CE
ENCODING -1
SWIDTH 1000 0
DWIDTH 24 0
BBX 22 21 2 -3
BITMAP
000C00
000C00
C01200
202100
204080
00C060
090038
0AFF80
100800
100800
200800
200870
23FF80
400800
C10870
408840
408840
404880
404900
400818
07FFFC
ENDCHAR
STARTCHAR uni51D0
ENCODING -1
SWIDTH 1000 0
DWIDTH 24 0
BBX 22 21 1 -3
BITMAP
000008
03FFFC
C01100
201100
111108
01FFF8
051108
091108
092128
0941C8
110008
110018
21FFE8
200000
E00600
200410
21FFE8
200400
200400
200408
27FFFC
ENDCHAR
STARTCHAR uni51D4
ENCODING -1
SWIDTH 1000 0
DWIDTH 24 0
BBX 21 22 2 -4
BITMAP
800C00
401400
203200
302100
104080
00A760
031838
0080C0
00FF40
108040
20FFC0
208040
2080C0
20FF40
408000
C14060
417FA0
414020
424020
624020
207FE0
004000
ENDCHAR
STARTCHAR uni51D7
ENCODING -1
SWIDTH 1000 0
DWIDTH 24 0
BBX 22 22 2 -4
BITMAP
000600
018430
C10410
210420
21FFE0
010020
006300
00C200
088410
11FFE8
110400
130400
2D8670
217D80
210400
610430
C1FFC0
410400
410400
61FFFC
610000
010000
ENDCHAR
STARTCHAR uni51D8
ENCODING -1
SWIDTH 1000 0
DWIDTH 24 0
BBX 21 22 2 -4
BITMAP
033000
822038
4221C0
233900
22E100
022100
122100
13E118
2221E0
222120
222120
43E120
422120
422220
C22220
4FFA20
400220
436420
441420
480820
100820
000020
ENDCHAR
STARTCHAR uni51DC
ENCODING -1
SWIDTH 1000 0
DWIDTH 24 0
BBX 22 22 1 -4
BITMAP
000600
800408
47FBF4
200000
21FFF0
010010
013FA0
092120
093F20
110020
11FFF0
210000
2007E0
20FC00
60040C
27FFF0
201500
202480
20C460
03041C
0C0400
000400
ENDCHAR
STARTCHAR uni51DD
ENCODING -1
SWIDTH 1000 0
DWIDTH 24 0
BBX 22 21 1 -3
BITMAP
020000
8233FC
426010
238010
2200A0
021040
0BF820
100000
1307FC
120088
27F090
248080
288680
20B45C
43C4A0
408480
214480
212A80
220A80
041180
08207C
ENDCHAR
STARTCHAR uni51DE
ENCODING -1
SWIDTH 1000 0
DWIDTH 24 0
BBX 22 21 1 -4
BITMAP
87FBF8
444208
244208
244208
17FA08
041208
0413F8
0C1200
161200
25E200
444200
444208
04590C
07A0F8
000000
000000
108410
208208
208204
408204
800000
ENDCHAR
STARTCHAR uni51E0
ENCODING -1
SWIDTH 1000 0
DWIDTH 24 0
BBX 22 20 1 -3
BITMAP
020300
03FE00
020200
020200
020200
020200
020200
020200
020200
020200
020200
020200
020200
040200
040208
080208
100208
100208
20031C
C000E0
ENDCHAR
STARTCHAR uni51E1
ENCODING -1
SWIDTH 1000 0
DWIDTH 24 0
BBX 21 20 2 -3
BITMAP
080600
0FFE00
080400
080400
080400
080400
090400
088400
084400
082400
082400
082400
080400
080400
100408
100408
200408
200408
400608
8003F8
ENDCHAR
STARTCHAR uni51F0
ENCODING -1
SWIDTH 1000 0
DWIDTH 24 0
BBX 22 20 1 -3
BITMAP
3FFFE0
204040
204040
23FE40
220240
220240
23FE40
220240
220240
23FE40
220040
200120
2FFE20
202020
402020
47FF14
402014
802014
8020CC
1FDF04
ENDCHAR
STARTCHAR uni51F1
ENCODING -1
SWIDTH 1000 0
DWIDTH 24 0
BBX 23 21 1 -3
BITMAP
060000
646460
4447A0
444440
444440
7BC440
400440
002440
FFD440
000440
20C440
3F4440
204440
204440
3FC840
000840
118844
091044
03D044
FC2044
00403E
ENDCHAR
STARTCHAR uni51F3
ENCODING -1
SWIDTH 1000 0
DWIDTH 24 0
BBX 21 22 2 -4
BITMAP
004000
3FE300
009C40
310C80
061300
19E8F0
600118
8FFF00
080100
0FFF00
080000
020600
010400
000838
FFF7C0
000400
07FC00
040400
040410
080408
3003F8
400000
ENDCHAR
STARTCHAR uni51F5
ENCODING -1
SWIDTH 1000 0
DWIDTH 24 0
BBX 20 19 2 -2
BITMAP
400030
400030
400020
400020
400020
400020
400020
400020
400020
400020
400020
400020
400020
400020
400020
400020
400020
FFFFE0
C00020
ENDCHAR
STARTCHAR uni51F6
ENCODING -1
SWIDTH 1000 0
DWIDTH 24 0
BBX 20 20 2 -3
BITMAP
800200
C00310
800420
880420
840C20
820820
810820
80D020
803020
803020
804820
808C20
810620
820220
840320
980020
A00020
800020
FFFFE0
800030
ENDCHAR
STARTCHAR uni51F8
ENCODING -1
SWIDTH 1000 0
DWIDTH 24 0
BBX 20 21 2 -3
BITMAP
000400
07FC00
040400
040400
040400
040400
040400
040400
FC07F0
840410
800010
800010
800010
800010
800010
800010
800010
800010
800010
FFFFF0
800010
ENDCHAR
STARTCHAR uni51F9
ENCODING -1
SWIDTH 1000 0
DWIDTH 24 0
BBX 20 20 2 -3
BITMAP
830810
FF0FF0
820810
820810
820810
820810
820810
820810
820810
83F810
820810
800010
800010
800010
800010
800010
800010
800010
FFFFF0
800010
ENDCHAR
STARTCHAR uni51FA
ENCODING -1
SWIDTH 1000 0
DWIDTH 24 0
BBX 22 22 1 -4
BITMAP
001800
001000
301010
201010
201010
201010
201010
201010
201010
3FFFF0
001010
001000
001000
C0100C
801008
801008
801008
801008
801008
FFFFF8
800008
000008
ENDCHAR
STARTCHAR uni51FD
ENCODING -1
SWIDTH 1000 0
DWIDTH 24 0
BBX 22 21 1 -4
BITMAP
80001C
7FFFE0
008000
010000
011800
71E80C
4008C8
440988
430B08
410C08
400808
404808
408E08
430988
4C10C8
401048
40F008
402008
400018
7FFFF8
400000
ENDCHAR
STARTCHAR uni5200
ENCODING -1
SWIDTH 1000 0
DWIDTH 24 0
BBX 21 19 2 -3
BITMAP
7FFFF8
008030
008030
008030
008020
008020
008020
008020
010020
010020
010020
020020
020020
040020
080020
100040
200040
4008C0
800780
ENDCHAR
STARTCHAR uni5201
ENCODING -1
SWIDTH 1000 0
DWIDTH 24 0
BBX 19 19 3 -3
BITMAP
7FFFE0
000040
000040
000040
000040
000440
000840
001040
006040
008040
030040
0C0040
700040
C00040
800080
000080
000080
001980
000700
ENDCHAR
STARTCHAR uni5203
ENCODING -1
SWIDTH 1000 0
DWIDTH 24 0
BBX 20 20 2 -3
BITMAP
000030
3FFFF0
008020
008020
008020
108020
088020
048020
028020
018020
010020
010020
010020
020020
020040
040040
080040
100040
200F80
C00300
ENDCHAR
STARTCHAR uni5206
ENCODING -1
SWIDTH 1000 0
DWIDTH 24 0
BBX 22 22 1 -4
BITMAP
000200
010E00
030200
020200
040100
040100
080080
100040
200020
400198
8FFE84
008080
010080
010080
010080
020100
020100
040100
080100
100100
201E00
C00000
ENDCHAR
STARTCHAR uni5207
ENCODING -1
SWIDTH 1000 0
DWIDTH 24 0
BBX 22 22 1 -4
BITMAP
100000
10000C
103FF4
100404
100408
104408
11C408
1E0408
F00408
100408
100408
100808
100808
108808
109008
10D008
1F2008
002018
004010
008030
0101E0
060000
ENDCHAR
STARTCHAR uni5208
ENCODING -1
SWIDTH 1000 0
DWIDTH 24 0
BBX 22 21 1 -3
BITMAP
004008
00600C
004188
004108
004108
408108
208108
108108
0D0108
030108
030108
038108
02C108
046108
042108
081008
101008
200008
400008
800008
000078
ENDCHAR
STARTCHAR uni5209
ENCODING -1
SWIDTH 1000 0
DWIDTH 24 0
BBX 22 22 1 -4
BITMAP
0C000C
100008
100188
201108
3FF908
400108
400108
800108
008108
1FC108
010108
030108
020108
040108
080108
100108
100008
201008
201008
201808
1FF078
000010
ENDCHAR
STARTCHAR uni520A
ENCODING -1
SWIDTH 1000 0
DWIDTH 24 0
BBX 22 22 1 -4
BITMAP
00000C
003008
7FC188
020108
020108
020108
020108
020108
020108
FFF908
020108
020108
020108
020108
020108
020108
020008
020008
020008
020008
020078
020000
ENDCHAR
STARTCHAR uni520C
ENCODING -1
SWIDTH 1000 0
DWIDTH 24 0
BBX 22 21 1 -3
BITMAP
00C00C
008008
008188
008108
008108
009108
FFF908
008108
008108
008108
208108
108108
088108
088108
008108
008108
008008
008008
008008
008008
078078
ENDCHAR
STARTCHAR uni520E
ENCODING -1
SWIDTH 1000 0
DWIDTH 24 0
BBX 22 22 1 -4
BITMAP
0C000C
080008
080088
100088
1FFE88
124488
224488
444488
444488
888888
088888
110888
210888
420888
820888
040888
080808
100808
201808
001008
01E078
000010
ENDCHAR
STARTCHAR uni5210
ENCODING -1
SWIDTH 1000 0
DWIDTH 24 0
BBX 22 21 1 -3
BITMAP
00200C
3FF008
202008
202188
242108
222108
222108
212108
202108
202908
FFF108
202108
202108
202108
202108
202108
402008
402008
402008
802008
81E078
ENDCHAR
STARTCHAR uni5211
ENCODING -1
SWIDTH 1000 0
DWIDTH 24 0
BBX 22 21 1 -3
BITMAP
00000C
003808
3FC188
084108
084108
084108
084108
084108
084908
FFFD08
084108
084108
104108
104108
104108
104108
204008
204008
204008
404008
804078
ENDCHAR
STARTCHAR uni5212
ENCODING -1
SWIDTH 1000 0
DWIDTH 24 0
BBX 22 21 1 -3
BITMAP
0C000C
090008
088188
084108
084108
040108
043908
FFC108
040108
042108
046108
044108
048108
028108
030108
020108
050808
091008
109008
605008
003078
ENDCHAR
STARTCHAR uni5213
ENCODING -1
SWIDTH 1000 0
DWIDTH 24 0
BBX 22 22 1 -4
BITMAP
00000C
3FF008
0000C8
000088
000088
000088
000088
F7BC88
084088
084088
084088
084088
084088
104088
104088
104008
104808
207008
21C008
410008
800078
000010
ENDCHAR
STARTCHAR uni5216
ENCODING -1
SWIDTH 1000 0
DWIDTH 24 0
BBX 21 21 1 -3
BITMAP
000008
3FC008
204610
204410
204410
204410
20C410
3F4410
204410
204410
204410
204410
3FC410
204410
204410
204410
204010
404010
404010
44C010
8380F0
ENDCHAR
STARTCHAR uni5217
ENCODING -1
SWIDTH 1000 0
DWIDTH 24 0
BBX 22 21 1 -3
BITMAP
000008
00300C
7FC188
040108
080108
080108
0FF108
102108
202108
204108
504108
8C4108
068108
008108
010108
020108
020008
040008
080008
100008
6000F8
ENDCHAR
STARTCHAR uni521C
ENCODING -1
SWIDTH 1000 0
DWIDTH 24 0
BBX 22 22 1 -4
BITMAP
06C00C
048008
048008
0498C8
3FE888
049088
049088
049888
7FF888
448088
448088
448088
7FFC88
888C88
088888
088888
088808
10B808
109008
208008
408078
808010
ENDCHAR
STARTCHAR uni521D
ENCODING -1
SWIDTH 1000 0
DWIDTH 24 0
BBX 22 22 1 -4
BITMAP
0C0000
080000
08400C
083FF4
1B8208
650208
020208
020208
040408
04E408
0D0408
1B0408
298408
C88808
080808
080808
081008
082018
082010
084030
0981E0
080000
ENDCHAR
STARTCHAR uni521E
ENCODING -1
SWIDTH 1000 0
DWIDTH 24 0
BBX 22 22 1 -4
BITMAP
00000C
3FF808
201008
2010C8
201088
201088
201088
3FF088
201088
201088
201088
201088
201088
3FF088
201188
201088
201008
201008
201208
21EC08
FE0078
000010
ENDCHAR
STARTCHAR uni5221
ENCODING -1
SWIDTH 1000 0
DWIDTH 24 0
BBX 22 22 1 -4
BITMAP
00080C
3FFC04
200808
2008C8
200888
200888
3FF888
210888
210088
210088
210888
3FFC88
210088
210088
208088
208088
204008
204408
222408
3C1408
E00C78
000010
ENDCHAR
STARTCHAR uni5224
ENCODING -1
SWIDTH 1000 0
DWIDTH 24 0
BBX 22 21 1 -3
BITMAP
030008
03000C
120188
1A2108
121108
220908
420908
836108
1F8108
020108
020108
020108
02E108
3F0108
620108
020108
040008
040008
080008
100008
2000F8
ENDCHAR
STARTCHAR uni5225
ENCODING -1
SWIDTH 1000 0
DWIDTH 24 0
BBX 22 21 1 -3
BITMAP
00000C
7FF008
402188
402108
402108
402108
402108
7FE108
482108
080108
080108
0FF108
082108
082108
082108
102008
102008
202008
202008
404008
83C0F8
ENDCHAR
STARTCHAR uni5228
ENCODING -1
SWIDTH 1000 0
DWIDTH 24 0
BBX 22 21 1 -3
BITMAP
08000C
0C0008
180008
100888
3FF908
200908
401108
B19108
2F9108
211108
211108
211108
3F9108
201108
203108
20E188
200008
200808
200808
300C08
0FF078
ENDCHAR
STARTCHAR uni5229
ENCODING -1
SWIDTH 1000 0
DWIDTH 24 0
BBX 22 22 1 -4
BITMAP
00C008
03800C
7E0308
020208
020208
020208
022208
3FD208
060208
0E0208
0B8208
124208
122208
220208
420208
820208
020008
020008
020008
020008
060078
040000
ENDCHAR
STARTCHAR uni522A
ENCODING -1
SWIDTH 1000 0
DWIDTH 24 0
BBX 21 21 2 -3
BITMAP
000018
401810
7FE890
489090
489090
489090
489090
489090
489090
C89E90
7FF890
489090
489090
489090
489090
489090
489010
489010
489010
48B010
C010F0
ENDCHAR
STARTCHAR uni522E
ENCODING -1
SWIDTH 1000 0
DWIDTH 24 0
BBX 22 21 1 -3
BITMAP
00100C
007808
078188
3A0088
020108
020108
020908
FFF508
020108
020108
020108
020108
3FF108
201108
201108
201008
201008
201008
201008
3FF008
201078
ENDCHAR
STARTCHAR uni5230
ENCODING -1
SWIDTH 1000 0
DWIDTH 24 0
BBX 21 21 2 -3
BITMAP
000018
003010
FFC010
080310
080210
108210
206210
2FF210
D41210
040210
040210
040210
046210
7F8210
040210
040210
040010
046010
078010
F80010
8001E0
ENDCHAR
STARTCHAR uni5231
ENCODING -1
SWIDTH 1000 0
DWIDTH 24 0
BBX 22 21 1 -3
BITMAP
198000
110008
110FF8
110110
114110
FFE110
110110
110A18
110618
110214
110214
110210
FFE210
110210
110410
210410
210810
210820
411020
412220
8141C0
ENDCHAR
STARTCHAR uni5232
ENCODING -1
SWIDTH 1000 0
DWIDTH 24 0
BBX 21 22 2 -4
BITMAP
0C0018
080010
080610
088410
7F0410
080410
080410
084410
F78410
000410
0E0410
080410
088410
7F4410
080410
080410
082010
09C010
1E0010
E00010
0001E0
000040
ENDCHAR
STARTCHAR uni5233
ENCODING -1
SWIDTH 1000 0
DWIDTH 24 0
BBX 21 21 2 -3
BITMAP
060018
040010
041210
FFE310
0A0210
098210
104210
202210
C0C210
1F0210
000210
003210
FFC210
100210
202210
1FE210
004010
004010
004010
008010
0F00F0
ENDCHAR
STARTCHAR uni5235
ENCODING -1
SWIDTH 1000 0
DWIDTH 24 0
BBX 22 21 1 -3
BITMAP
002008
FFF00C
108308
108208
108208
108208
1F8208
108208
108208
108208
108208
1F8208
108208
108208
108208
178208
788008
408008
008008
008008
008078
ENDCHAR
STARTCHAR uni5236
ENCODING -1
SWIDTH 1000 0
DWIDTH 24 0
BBX 22 21 1 -3
BITMAP
01000C
190008
110008
2100C8
3FF888
410088
810088
010088
031C88
7DE088
010088
010088
3FF888
210888
210888
210888
210808
210808
213008
210008
030078
ENDCHAR
STARTCHAR uni5237
ENCODING -1
SWIDTH 1000 0
DWIDTH 24 0
BBX 22 22 1 -4
BITMAP
000008
3FF80C
201188
201188
201108
201108
3FF108
210108
210108
210108
3FF908
311108
511108
511108
511108
511108
511008
917008
911008
010008
010078
010000
ENDCHAR
STARTCHAR uni5238
ENCODING -1
SWIDTH 1000 0
DWIDTH 24 0
BBX 21 22 2 -4
BITMAP
006000
0C4100
1840C0
104020
6FFF20
809000
010800
010810
FEF7E8
040200
080100
0800C0
300360
47FF18
808200
010200
010200
020200
040200
080200
103C00
200000
ENDCHAR
STARTCHAR uni523A
ENCODING -1
SWIDTH 1000 0
DWIDTH 24 0
BBX 22 22 1 -4
BITMAP
03000C
020008
0219C8
7FE108
020108
020108
7FF908
421108
421108
421108
421108
421108
467108
078108
0A4108
122108
121008
221008
C20008
020008
0200F8
020000
ENDCHAR
STARTCHAR uni523B
ENCODING -1
SWIDTH 1000 0
DWIDTH 24 0
BBX 22 21 1 -3
BITMAP
01000C
010008
010888
FFFC88
020088
040088
082088
106088
304088
088088
051088
021888
042088
086088
304188
008188
014008
022008
0C1008
100808
E00078
ENDCHAR
STARTCHAR uni5241
ENCODING -1
SWIDTH 1000 0
DWIDTH 24 0
BBX 22 22 1 -4
BITMAP
00000C
0FE008
084088
084088
084088
084088
104088
104888
204888
407C88
030088
020088
FFFC88
070088
068088
0A4188
122008
221808
420C08
020008
020078
020000
ENDCHAR
STARTCHAR uni5243
ENCODING -1
SWIDTH 1000 0
DWIDTH 24 0
BBX 21 21 2 -3
BITMAP
204010
10C018
188310
010210
FFF210
042210
042210
042210
7FE210
442210
440210
841210
FFFA10
8C1210
0C1210
141210
242010
44E010
840010
040010
0600F0
ENDCHAR
STARTCHAR uni5244
ENCODING -1
SWIDTH 1000 0
DWIDTH 24 0
BBX 21 22 2 -4
BITMAP
000018
FFF010
000310
322210
226210
444210
488210
890210
488210
444210
222210
200210
002210
FFF210
040210
040210
040010
041010
05E010
7E0010
C000F0
000020
ENDCHAR
STARTCHAR uni5246
ENCODING -1
SWIDTH 1000 0
DWIDTH 24 0
BBX 22 21 1 -3
BITMAP
01800C
01000C
010088
3FF888
201108
201108
201108
3FF108
201108
201108
201108
3FF108
200108
200108
210108
20C008
206008
239008
3C1808
C00008
000078
ENDCHAR
STARTCHAR uni5247
ENCODING -1
SWIDTH 1000 0
DWIDTH 24 0
BBX 21 21 2 -3
BITMAP
004018
7FC010
404210
404210
404410
7FC410
404410
404410
404410
404410
7FC410
404410
404410
404410
7FC610
404610
180010
118010
204010
404010
8001F0
ENDCHAR
STARTCHAR uni5249
ENCODING -1
SWIDTH 1000 0
DWIDTH 24 0
BBX 22 21 1 -3
BITMAP
01800C
010008
1918C8
111088
111088
211088
211088
312888
492488
494488
850288
010088
011888
3FE088
010088
010088
010008
011C08
03E008
7C0008
400078
ENDCHAR
STARTCHAR uni524A
ENCODING -1
SWIDTH 1000 0
DWIDTH 24 0
BBX 22 22 1 -4
BITMAP
030008
02000C
1A4088
122188
221908
420908
821108
3DF108
202108
202108
202108
3FE108
202108
202108
3FE108
202108
202008
202008
202008
202008
20E078
200000
ENDCHAR
STARTCHAR uni524B
ENCODING -1
SWIDTH 1000 0
DWIDTH 24 0
BBX 22 21 1 -3
BITMAP
030000
02001C
021110
FFF910
020110
020110
223110
3DF110
202110
202110
202110
202110
3FE110
090110
090010
090010
090010
110074
110004
218004
40FFFC
ENDCHAR
STARTCHAR uni524C
ENCODING -1
SWIDTH 1000 0
DWIDTH 24 0
BBX 22 21 1 -3
BITMAP
01800C
010008
020188
FFFD08
020108
020108
031108
3FF108
221108
221108
221108
231108
3EF108
030108
058108
0A4108
122008
221008
420008
020008
030078
ENDCHAR
STARTCHAR uni524D
ENCODING -1
SWIDTH 1000 0
DWIDTH 24 0
BBX 22 22 1 -4
BITMAP
040180
020100
010200
00040C
FFFBF0
000000
004010
3FC618
204410
204410
20C410
3F4410
204410
204410
3FC410
204410
204410
204410
204010
204010
6380F0
200000
ENDCHAR
STARTCHAR uni524E
ENCODING -1
SWIDTH 1000 0
DWIDTH 24 0
BBX 21 22 2 -4
BITMAP
00C018
008010
310310
0E0210
070210
088210
104210
600210
070210
040210
046210
FF8210
060210
0D0210
148210
146210
242210
440010
840010
040010
0401F0
000020
ENDCHAR
STARTCHAR uni5252
ENCODING -1
SWIDTH 1000 0
DWIDTH 24 0
BBX 22 22 1 -4
BITMAP
1CC00C
088008
108188
98F908
778108
108108
108108
108108
189908
E76108
000108
202108
3FE108
202108
202108
202108
3FE008
202008
202008
3FE008
202078
200010
ENDCHAR
STARTCHAR uni5254
ENCODING -1
SWIDTH 1000 0
DWIDTH 24 0
BBX 22 21 1 -3
BITMAP
00000C
3FF008
202108
202188
3FE108
202108
202108
202108
3FE108
080108
100908
1FFD08
264908
C44908
088908
110908
220808
C41008
081008
103008
60E078
ENDCHAR
STARTCHAR uni5255
ENCODING -1
SWIDTH 1000 0
DWIDTH 24 0
BBX 22 22 1 -4
BITMAP
0CC00C
088008
088088
088088
088C88
38F088
088088
088088
088088
78F888
088088
088088
0A8088
0C8088
38FC88
E88088
108008
108008
208008
208008
408078
808000
ENDCHAR
STARTCHAR uni5256
ENCODING -1
SWIDTH 1000 0
DWIDTH 24 0
BBX 22 21 1 -3
BITMAP
03000C
020008
021088
FFF888
000108
203108
104108
104108
088108
009D08
7F6108
000108
000108
3FF108
202108
202108
202008
202008
202008
3FE008
202078
ENDCHAR
STARTCHAR uni525A
ENCODING -1
SWIDTH 1000 0
DWIDTH 24 0
BBX 21 22 2 -4
BITMAP
060018
043010
FFC110
040110
046110
7FE110
444110
444110
7FC110
040110
042110
7FE110
042110
042910
FFF110
042010
042010
7FE010
042010
040010
1C00F0
080000
ENDCHAR
STARTCHAR uni525B
ENCODING -1
SWIDTH 1000 0
DWIDTH 24 0
BBX 21 20 1 -3
BITMAP
7FFC08
400888
506888
48C888
448888
410888
5FE888
420888
420888
5A6888
524888
524888
524888
524888
524888
5DC888
504808
400808
400808
C07878
ENDCHAR
STARTCHAR uni525C
ENCODING -1
SWIDTH 1000 0
DWIDTH 24 0
BBX 23 22 0 -4
BITMAP
00C006
008004
008064
1FFE44
200444
200844
4C0044
080444
097E44
174444
124444
224444
324444
524444
844444
044844
084004
084004
104204
204304
407E3C
000008
ENDCHAR
STARTCHAR uni525D
ENCODING -1
SWIDTH 1000 0
DWIDTH 24 0
BBX 22 21 1 -3
BITMAP
06000C
080008
0FF188
082108
104108
104108
2F8108
008108
010908
FFF508
020108
621908
123108
094108
02C108
022108
3A1008
420808
420808
020008
0E0078
ENDCHAR
STARTCHAR uni525E
ENCODING -1
SWIDTH 1000 0
DWIDTH 24 0
BBX 22 21 1 -3
BITMAP
030008
02000C
021888
3FE088
050088
04C088
182088
201088
400088
FFFC88
001088
001088
7F1088
411088
411088
411188
411008
7F1008
001008
001008
00F078
ENDCHAR
STARTCHAR uni525F
ENCODING -1
SWIDTH 1000 0
DWIDTH 24 0
BBX 21 22 2 -4
BITMAP
000018
FFF810
081110
082110
492110
30E110
106110
289110
411110
860110
000110
080110
7FF910
091110
491110
30A110
18C010
2C4010
24E010
413010
8618F0
180000
ENDCHAR
STARTCHAR uni5261
ENCODING -1
SWIDTH 1000 0
DWIDTH 24 0
BBX 22 21 1 -3
BITMAP
03000C
021008
023108
226108
248108
260108
458108
086108
103108
200908
420108
020108
021908
222108
26C108
450008
048008
08C008
106008
201808
C00878
ENDCHAR
STARTCHAR uni5262
ENCODING -1
SWIDTH 1000 0
DWIDTH 24 0
BBX 22 21 1 -3
BITMAP
00080C
FFFC08
030008
0200C8
040088
1C0088
221888
C31088
032088
24C088
18C088
18A088
699088
029888
048888
088488
308408
C08008
008008
008008
070078
ENDCHAR
STARTCHAR uni5269
ENCODING -1
SWIDTH 1000 0
DWIDTH 24 0
BBX 22 22 1 -4
BITMAP
00380C
07C008
390088
0100C8
FFFE88
010088
093088
092488
792A88
093088
092488
392488
CB3E88
03C088
052088
091088
110808
210808
C10008
010008
010078
010000
ENDCHAR
STARTCHAR uni526A
ENCODING -1
SWIDTH 1000 0
DWIDTH 24 0
BBX 21 22 2 -4
BITMAP
040300
020600
020410
FDFBE8
008000
7FCC30
408820
7F8820
408820
408820
7F8820
408820
4380E0
410040
000020
7FFFF0
010020
010020
020040
0C0040
300F80
C00000
ENDCHAR
STARTCHAR uni526B
ENCODING -1
SWIDTH 1000 0
DWIDTH 24 0
BBX 22 22 1 -4
BITMAP
00C008
00840C
7FFE08
400008
463088
442088
563C88
4DE088
442088
442088
47E088
442088
401088
4FF888
441088
422088
424088
41C008
81C008
823008
0C1C78
700000
ENDCHAR
STARTCHAR uni526C
ENCODING -1
SWIDTH 1000 0
DWIDTH 24 0
BBX 22 22 1 -4
BITMAP
01800C
210808
210808
2108C8
210888
3EF888
000088
000088
FDFC88
020088
020088
040088
7FFC88
448888
448888
448888
448808
448808
448808
448808
449878
400000
ENDCHAR
STARTCHAR uni526D
ENCODING -1
SWIDTH 1000 0
DWIDTH 24 0
BBX 22 21 1 -3
BITMAP
200800
3FF80C
200808
200808
3FF888
200088
200888
2FF088
210088
222088
221088
2FE888
280088
208088
208088
409888
4FE008
408008
408008
808408
9F7A78
ENDCHAR
STARTCHAR uni526E
ENCODING -1
SWIDTH 1000 0
DWIDTH 24 0
BBX 22 21 1 -3
BITMAP
002000
3FF00C
202008
202008
2220C8
23E088
222088
222088
222088
7FFC88
400888
400888
4FC888
484888
488888
488888
4F8808
480808
400808
404808
C03878
ENDCHAR
STARTCHAR uni526F
ENCODING -1
SWIDTH 1000 0
DWIDTH 24 0
BBX 22 21 1 -3
BITMAP
000008
00180C
7FE108
000188
202108
3FE108
202108
202108
202108
3FE108
000108
000108
7FF908
821108
821108
421108
7FF008
821008
821008
C21008
BDF078
ENDCHAR
STARTCHAR uni5272
ENCODING -1
SWIDTH 1000 0
DWIDTH 24 0
BBX 22 22 1 -4
BITMAP
018008
01000C
030C08
7CF4C8
410888
816088
078088
190088
010088
3FF888
010088
011088
3FF888
000088
201088
3FF188
201008
201008
201008
201008
3FF078
000010
ENDCHAR
STARTCHAR uni5274
ENCODING -1
SWIDTH 1000 0
DWIDTH 24 0
BBX 22 21 1 -3
BITMAP
03000C
621008
421088
421088
421108
7FF108
401108
000908
FFF508
000108
203108
3FF108
202108
202108
3FE108
004188
186008
088008
00F008
3F0008
400078
ENDCHAR
STARTCHAR uni5275
ENCODING -1
SWIDTH 1000 0
DWIDTH 24 0
BBX 22 21 1 -3
BITMAP
03000C
068008
044188
083108
19D108
260108
C02108
3FF108
202108
202108
3FE108
202108
3FE108
202108
200108
303108
3FD008
501008
501008
901008
1FF078
ENDCHAR
STARTCHAR uni5277
ENCODING -1
SWIDTH 1000 0
DWIDTH 24 0
BBX 22 21 1 -3
BITMAP
018008
01080C
7FFC08
0020C8
06C088
01C088
062088
080C88
7FF088
408088
4D8088
490088
4FF888
510088
510088
419088
4FE008
410008
410808
83F008
9C0078
ENDCHAR
STARTCHAR uni5278
ENCODING -1
SWIDTH 1000 0
DWIDTH 24 0
BBX 22 22 1 -4
BITMAP
03800C
010008
FFFC88
020088
233088
3ED088
221088
3FF088
221088
3FF088
220088
021088
7FE888
404088
004088
FFFE88
104088
084008
044008
004008
03C078
008000
ENDCHAR
STARTCHAR uni527A
ENCODING -1
SWIDTH 1000 0
DWIDTH 24 0
BBX 22 22 1 -4
BITMAP
060300
04C400
3F061C
040DE0
FFEA20
0C1140
1700C0
24833C
440C08
041000
3FFFFC
200000
200000
200018
23FFF8
201010
202010
202010
204010
408030
8307E0
1C00C0
ENDCHAR
STARTCHAR uni527B
ENCODING -1
SWIDTH 1000 0
DWIDTH 24 0
BBX 21 21 1 -3
BITMAP
018008
310808
211808
211008
2310C8
3CF088
000088
468C88
7EF888
448888
448888
7CF888
448888
448888
448888
7CF888
448808
448808
450808
850808
8D1870
ENDCHAR
STARTCHAR uni527C
ENCODING -1
SWIDTH 1000 0
DWIDTH 24 0
BBX 22 22 1 -4
BITMAP
06000C
040008
083008
7FF888
400088
104088
248888
46FC88
F90088
030088
070088
08C088
313088
460C88
080088
10E088
030008
0C3808
304008
018008
0E0070
700000
ENDCHAR
STARTCHAR uni527D
ENCODING -1
SWIDTH 1000 0
DWIDTH 24 0
BBX 22 21 1 -3
BITMAP
00000C
000C08
7FF088
0480C8
44C888
7F7888
448888
448888
44C888
7B3888
000088
003088
1FC088
000088
FFFC88
010088
192008
111808
210C08
410408
070078
ENDCHAR
STARTCHAR uni527F
ENCODING -1
SWIDTH 1000 0
DWIDTH 24 0
BBX 22 21 1 -3
BITMAP
11100C
311008
4221C8
222108
111108
110108
203108
3FD108
211108
3FF108
211108
211108
3FF108
010108
FFFD08
070108
058008
096008
111008
610008
010078
ENDCHAR
STARTCHAR uni5280
ENCODING -1
SWIDTH 1000 0
DWIDTH 24 0
BBX 21 21 2 -3
BITMAP
004018
3FE010
050010
020310
FFFA10
0D1210
112210
610210
860210
001210
FFFA10
921210
925210
A1D210
E01210
9F9210
911010
911010
9F1010
801010
8060E0
ENDCHAR
STARTCHAR uni5281
ENCODING -1
SWIDTH 1000 0
DWIDTH 24 0
BBX 22 21 1 -3
BITMAP
08800C
18C008
108008
111188
3FF908
210108
610108
A13108
BFC108
210108
211108
3FF908
210108
210108
211908
3EE108
000008
041008
248808
444408
C24478
ENDCHAR
STARTCHAR uni5282
ENCODING -1
SWIDTH 1000 0
DWIDTH 24 0
BBX 22 21 1 -3
BITMAP
00000C
7FFEC8
4000C8
409888
491088
492088
42A088
3F3F88
424488
5A5488
529088
529088
529088
529088
5F9088
54A888
442808
444808
884408
888208
910338
ENDCHAR
STARTCHAR uni5283
ENCODING -1
SWIDTH 1000 0
DWIDTH 24 0
BBX 22 22 1 -4
BITMAP
03000C
031008
1FF0E8
021088
7FFE88
021088
1FF088
020088
3FF888
020088
030C88
FCF088
3FF888
221088
221088
3FF088
221008
3FF008
201008
003C08
FFC078
000010
ENDCHAR
STARTCHAR uni5284
ENCODING -1
SWIDTH 1000 0
DWIDTH 24 0
BBX 22 22 1 -4
BITMAP
30600C
204008
3E7E08
4890C8
491088
800088
030088
030088
04C088
082088
101088
2FE088
C00088
000088
3FF088
202088
202008
202008
202008
202008
3FE078
200000
ENDCHAR
STARTCHAR uni5287
ENCODING -1
SWIDTH 1000 0
DWIDTH 24 0
BBX 22 22 1 -4
BITMAP
03000C
021008
03E088
0200C8
7FFC88
420888
426088
5F8888
430888
40F088
400488
4FF888
430088
451C88
49B088
424088
4CF008
41CC08
824208
9C4008
81C078
008010
ENDCHAR
STARTCHAR uni5288
ENCODING -1
SWIDTH 1000 0
DWIDTH 24 0
BBX 22 22 1 -4
BITMAP
000180
3FC100
209FF8
208000
208C30
3F8240
203FFC
304100
3FC100
504198
504F60
9FC100
104100
000000
3FFFF0
004020
004020
008020
010020
020840
1C0780
600000
ENDCHAR
STARTCHAR uni5289
ENCODING -1
SWIDTH 1000 0
DWIDTH 24 0
BBX 22 21 1 -3
BITMAP
04000C
0AFE08
702408
2024C8
244488
224488
2E8888
F03888
018088
024088
043088
180C88
27E488
C10088
011888
1FE088
111808
092008
092008
03F808
7C0078
ENDCHAR
STARTCHAR uni528A
ENCODING -1
SWIDTH 1000 0
DWIDTH 24 0
BBX 22 22 1 -4
BITMAP
01800C
038008
026088
041888
180C88
28E488
C70088
000C88
3FFC88
292888
252888
210888
3EF888
000088
101088
1FF088
101008
101008
1FF008
101008
1FF078
100000
ENDCHAR
STARTCHAR uni528B
ENCODING -1
SWIDTH 1000 0
DWIDTH 24 0
BBX 22 22 1 -4
BITMAP
000008
0FE00C
104008
104088
084088
07C088
000088
7EFC88
448888
448888
448888
7CF888
000088
010088
FB7C88
058088
0D4008
092008
111008
610C08
810078
010000
ENDCHAR
STARTCHAR uni528C
ENCODING -1
SWIDTH 1000 0
DWIDTH 24 0
BBX 22 21 1 -3
BITMAP
01800C
090008
09F848
090048
090488
36FA88
005088
006888
3FFE88
404088
414088
5E4488
444888
4C4888
55B088
553088
622008
446008
489408
910C08
820C38
ENDCHAR
STARTCHAR uni528D
ENCODING -1
SWIDTH 1000 0
DWIDTH 24 0
BBX 22 21 1 -3
BITMAP
01800C
038008
024008
0430C8
081888
102C88
6FC088
800088
000088
3EFC88
228888
228888
228888
3EF888
000088
082088
082008
146008
225808
208C08
410478
ENDCHAR
STARTCHAR uni5291
ENCODING -1
SWIDTH 1000 0
DWIDTH 24 0
BBX 22 22 1 -4
BITMAP
01800C
010408
7EFA08
0040C8
0E4E88
74B088
49A088
492488
492E88
993288
010088
100888
100888
1FF888
100888
100888
1FF808
200808
200808
200808
400878
800800
ENDCHAR
STARTCHAR uni5293
ENCODING -1
SWIDTH 1000 0
DWIDTH 24 0
BBX 22 22 1 -4
BITMAP
020008
04000C
3BF008
202188
3FE108
302108
2FE108
3FE108
000108
7FF908
421108
7FF108
421108
431108
3CE108
000D08
FFF008
084008
104008
104008
604078
000010
ENDCHAR
STARTCHAR uni5296
ENCODING -1
SWIDTH 1000 0
DWIDTH 24 0
BBX 22 22 1 -4
BITMAP
0C000C
1F8008
110008
7FF8E8
201088
3FF088
000088
32C888
3CF088
228488
7C7C88
0C8088
178088
3FF888
E10888
210888
3FF808
230008
053008
090408
30FE38
400010
ENDCHAR
STARTCHAR uni5297
ENCODING -1
SWIDTH 1000 0
DWIDTH 24 0
BBX 22 22 1 -4
BITMAP
08200C
38E008
3EFCC8
492088
082088
3EDC88
285088
2E9488
490C88
101088
1FF088
101088
1FF088
101088
1FF088
101088
101008
1FF008
000008
0C7008
300C78
C00000
ENDCHAR
STARTCHAR uni5298
ENCODING -1
SWIDTH 1000 0
DWIDTH 24 0
BBX 23 22 0 -4
BITMAP
00C006
008304
3F7C34
260824
278B24
3E7C24
2DAE24
2D2C24
2D2C24
354FA4
360824
21B024
412224
4F3C24
412024
4F3E24
412004
43A104
5E3E04
822004
84203C
082000
ENDCHAR
STARTCHAR uni5299
ENCODING -1
SWIDTH 1000 0
DWIDTH 24 0
BBX 21 21 2 -3
BITMAP
0C0010
0FC018
104110
108110
1F8110
009D10
7F6110
76B110
194110
E73110
391910
430110
302110
BD2D10
E5F910
A52910
FDF810
A12010
242810
3C7410
C084F0
ENDCHAR
STARTCHAR uni529B
ENCODING -1
SWIDTH 1000 0
DWIDTH 24 0
BBX 20 22 2 -4
BITMAP
00C000
008000
008000
008000
008000
7FFFF0
008020
008020
008020
008020
008020
008020
010020
010020
010020
020060
060040
040040
080040
3018C0
400780
800000
ENDCHAR
STARTCHAR uni529F
ENCODING -1
SWIDTH 1000 0
DWIDTH 24 0
BBX 22 22 1 -4
BITMAP
000300
000200
000200
008200
7F4200
080200
083FFC
080208
080208
080208
080208
080408
080408
080408
098808
0E0808
F01008
001008
002010
00C010
0101F0
060000
ENDCHAR
STARTCHAR uni52A0
ENCODING -1
SWIDTH 1000 0
DWIDTH 24 0
BBX 22 21 1 -3
BITMAP
0C0000
080000
080000
080000
0827FC
7FE408
084408
084408
084408
084408
084408
084408
104408
104408
104408
104408
204408
204408
404408
4087F8
878408
ENDCHAR
STARTCHAR uni52A3
ENCODING -1
SWIDTH 1000 0
DWIDTH 24 0
BBX 22 22 1 -4
BITMAP
001800
001000
071040
041030
0C1008
0810CC
10F104
202600
400800
003000
00C000
0F1000
F01010
0FFFF8
002010
002010
004010
008020
010020
060020
1807C0
E00000
ENDCHAR
STARTCHAR uni52A6
ENCODING -1
SWIDTH 1000 0
DWIDTH 24 0
BBX 22 22 1 -4
BITMAP
003000
002000
7FFFF8
004010
004010
008010
010020
060760
1800C0
200000
0C0080
FFEFFC
084104
084108
084108
084108
084108
104208
104408
208808
439070
002000
ENDCHAR
STARTCHAR uni52A9
ENCODING -1
SWIDTH 1000 0
DWIDTH 24 0
BBX 22 21 1 -3
BITMAP
000300
000200
3FC200
208200
208200
20820C
209FFC
3F8208
208208
208208
208208
208208
3F8408
208408
208408
20A808
20C808
271008
782010
C04010
0181E0
ENDCHAR
STARTCHAR uni52AA
ENCODING -1
SWIDTH 1000 0
DWIDTH 24 0
BBX 22 22 1 -4
BITMAP
070000
040018
044FF8
7BE410
084420
108220
108140
2F0080
0381C0
044220
080C1C
306000
404000
3FFFE0
00C040
008040
008040
010040
0200C0
041080
180F00
E00000
ENDCHAR
STARTCHAR uni52AB
ENCODING -1
SWIDTH 1000 0
DWIDTH 24 0
BBX 22 22 1 -4
BITMAP
060180
040100
040100
040100
06E100
3D018C
040F74
040104
040104
042104
7FD104
080108
080108
088208
104208
104208
21A408
3E2808
C00818
001210
0061E0
008000
ENDCHAR
STARTCHAR uni52AC
ENCODING -1
SWIDTH 1000 0
DWIDTH 24 0
BBX 22 22 1 -4
BITMAP
1800C0
100080
100080
100080
3FF080
20108C
4013FC
402088
A32088
BD2108
212108
212108
212108
212108
3F2108
212208
002208
002408
006410
004810
0390F0
002000
ENDCHAR
STARTCHAR uni52AD
ENCODING -1
SWIDTH 1000 0
DWIDTH 24 0
BBX 22 22 1 -4
BITMAP
000180
FFE100
082100
084100
084104
1047FC
104104
204104
208104
C38104
000108
000108
7FE108
404108
404208
404208
404208
404408
404808
7FC810
401070
002000
ENDCHAR
STARTCHAR uni52AE
ENCODING -1
SWIDTH 1000 0
DWIDTH 24 0
BBX 22 22 1 -4
BITMAP
040180
040100
340100
440100
440100
44C10C
7F07F4
840108
840108
040108
046108
FF8108
0A0108
0A0208
0A0208
090208
110208
108408
20C808
206810
401070
802020
ENDCHAR
STARTCHAR uni52BB
ENCODING -1
SWIDTH 1000 0
DWIDTH 24 0
BBX 22 21 1 -3
BITMAP
000080
FFFC80
800080
800080
802080
9FD08C
8103F4
810088
810108
810108
8FF108
810108
810108
810108
810208
811208
9EE208
800208
800418
C03410
BFC8F0
ENDCHAR
STARTCHAR uni52BC
ENCODING -1
SWIDTH 1000 0
DWIDTH 24 0
BBX 21 21 2 -3
BITMAP
0C0100
080100
080100
086100
FF8100
080108
0807F8
080108
084108
F78108
000108
000210
008210
FFC210
808210
808410
808410
808810
808810
FF9010
80A0E0
ENDCHAR
STARTCHAR uni52BE
ENCODING -1
SWIDTH 1000 0
DWIDTH 24 0
BBX 22 22 1 -4
BITMAP
030180
020080
020080
FFF900
040100
080100
1047FC
508104
308108
090108
020108
043108
084208
104208
208208
C18408
024408
042808
081018
301010
4020F0
004000
ENDCHAR
STARTCHAR uni52C0
ENCODING -1
SWIDTH 1000 0
DWIDTH 24 0
BBX 22 21 1 -3
BITMAP
030080
020080
020100
FFF900
020100
020188
4233F8
7DF108
402108
402108
402108
402110
7FE210
090210
090210
090410
090810
1110F4
110044
210004
40FFFC
ENDCHAR
STARTCHAR uni52C1
ENCODING -1
SWIDTH 1000 0
DWIDTH 24 0
BBX 22 20 1 -3
BITMAP
803180
7FC100
333100
226100
44410C
4887FC
888108
448108
264108
222108
000108
002108
3FD208
040208
040208
040408
046808
078810
F81110
0060F0
ENDCHAR
STARTCHAR uni52C2
ENCODING -1
SWIDTH 1000 0
DWIDTH 24 0
BBX 22 21 1 -3
BITMAP
020180
1A0100
220100
220100
26E100
5B07FC
420108
820108
020108
023108
FDC108
000108
000108
206108
3FE108
204208
204208
204210
204410
204430
3FE860
ENDCHAR
STARTCHAR uni52C3
ENCODING -1
SWIDTH 1000 0
DWIDTH 24 0
BBX 22 22 1 -4
BITMAP
030080
020080
021080
7FF880
020080
020088
3FF9FC
401108
400108
9FE108
004108
018108
030108
023208
03C208
7E0408
420408
020808
021010
021010
0E20F0
004000
ENDCHAR
STARTCHAR uni52C7
ENCODING -1
SWIDTH 1000 0
DWIDTH 24 0
BBX 20 21 2 -4
BITMAP
1FFF80
000200
00CC00
003000
3FFFE0
202040
202040
3FFFC0
202040
202040
3FFFC0
202060
006000
004000
7FFFF0
008020
008020
010020
060460
1803C0
E00000
ENDCHAR
STARTCHAR uni52C9
ENCODING -1
SWIDTH 1000 0
DWIDTH 24 0
BBX 22 22 1 -4
BITMAP
0C0100
080100
08C100
17C100
210100
410108
4227F8
FFE108
422110
422110
422110
462210
7DE210
050210
050410
090810
090810
1110E4
112044
210004
41E0FC
801F00
ENDCHAR
STARTCHAR uni52CD
ENCODING -1
SWIDTH 1000 0
DWIDTH 24 0
BBX 22 22 1 -4
BITMAP
0300C0
020080
020080
063080
79C080
00099C
0006EC
3FE088
204088
204108
204108
204108
3FE108
020108
020208
3A8208
224208
422408
422808
860810
0C30F0
004000
ENDCHAR
STARTCHAR uni52D2
ENCODING -1
SWIDTH 1000 0
DWIDTH 24 0
BBX 22 22 1 -4
BITMAP
108100
108100
FFE100
108100
108100
11810C
3E9FF4
040108
444108
7FC108
444108
444208
7FC208
444208
040208
046408
7F8408
040808
041010
042230
0441E0
040000
ENDCHAR
STARTCHAR uni52D3
ENCODING -1
SWIDTH 1000 0
DWIDTH 24 0
BBX 22 21 1 -3
BITMAP
718080
410080
413080
7D6080
418080
41008C
4113FC
411088
791088
C0E108
060108
040108
3FE108
202108
204108
204208
3FC208
204208
204410
204810
3FC8F0
ENDCHAR
STARTCHAR uni52D5
ENCODING -1
SWIDTH 1000 0
DWIDTH 24 0
BBX 22 22 1 -4
BITMAP
006080
078080
3A0080
021080
FFF880
020080
4233FC
7FE088
422108
422108
7FE108
422108
422108
7FE108
020208
022208
3FC208
020408
020818
3FC810
4010F0
002000
ENDCHAR
STARTCHAR uni52D6
ENCODING -1
SWIDTH 1000 0
DWIDTH 24 0
BBX 21 22 2 -4
BITMAP
002100
FFE100
802100
812100
9EA100
802100
8127F8
BFA110
802110
000210
7FC210
404210
404210
7FC210
404210
404410
404410
7FC810
404820
405020
7FD1E0
002000
ENDCHAR
STARTCHAR uni52D7
ENCODING -1
SWIDTH 1000 0
DWIDTH 24 0
BBX 21 22 2 -4
BITMAP
000040
0FFFC0
080080
080080
0FFF80
080080
180080
1FFFC0
000200
7F8200
410200
417FF8
630410
5D0410
410410
410410
7F0410
410810
419010
7E3030
C041E0
008000
ENDCHAR
STARTCHAR uni52D8
ENCODING -1
SWIDTH 1000 0
DWIDTH 24 0
BBX 22 21 1 -3
BITMAP
186080
104080
105880
FFE080
104080
10408C
1FC7FC
104088
104088
1FC108
104108
104108
FFF908
450108
452108
492208
48F208
500408
400410
7FF810
4010F0
ENDCHAR
STARTCHAR uni52D9
ENCODING -1
SWIDTH 1000 0
DWIDTH 24 0
BBX 22 22 1 -4
BITMAP
000600
FFC400
01880C
010FF0
161C20
0C2440
040240
000180
7FE1C0
0C8630
0D080C
157200
140200
247FF8
240410
440410
840410
840810
040810
041010
1C61E0
008000
ENDCHAR
STARTCHAR uni52DB
ENCODING -1
SWIDTH 1000 0
DWIDTH 24 0
BBX 22 22 1 -4
BITMAP
000180
3FE180
204080
204080
204080
3FC100
0007FC
7FF108
402108
402108
7FE108
402108
402108
402108
7FE208
402208
402208
7FE408
010418
18C810
6010F0
800000
ENDCHAR
STARTCHAR uni52DD
ENCODING -1
SWIDTH 1000 0
DWIDTH 24 0
BBX 22 22 1 -4
BITMAP
000200
7E3440
422430
424408
428468
421B80
660900
5A1080
42BFFC
426020
424030
424418
7E840C
430C60
4237A0
420820
420820
821020
821040
822040
9C4380
008000
ENDCHAR
STARTCHAR uni52DE
ENCODING -1
SWIDTH 1000 0
DWIDTH 24 0
BBX 22 22 1 -4
BITMAP
030080
020100
126138
1389C0
220900
250180
04C260
086410
100800
3FFFFC
400008
403010
802000
002060
0FFFE0
004040
004040
008040
010040
020080
0C0F80
700000
ENDCHAR
STARTCHAR uni52DF
ENCODING -1
SWIDTH 1000 0
DWIDTH 24 0
BBX 23 22 1 -4
BITMAP
018300
010218
7FFFE0
010200
0800C0
0FFF40
080040
0FFFC0
080040
0800C0
0FFF40
008008
FFFFFC
022100
0420C0
1860B0
23DF9E
408080
008100
030100
0C1F00
700400
ENDCHAR
STARTCHAR uni52E2
ENCODING -1
SWIDTH 1000 0
DWIDTH 24 0
BBX 22 22 1 -4
BITMAP
020080
024080
3F8080
020090
FFF3F8
090110
112110
22C710
024110
3F8294
02020C
063C0C
79C004
003000
002018
3FFFF8
004010
004010
008010
030030
0C01E0
700000
ENDCHAR
STARTCHAR uni52E3
ENCODING -1
SWIDTH 1000 0
DWIDTH 24 0
BBX 22 22 1 -4
BITMAP
030080
021080
7FE080
020080
427080
3F808C
0213F4
FDE884
000084
3FF084
202104
3FE104
202104
202108
3FE208
202208
3FE208
202408
088408
104818
602870
801000
ENDCHAR
STARTCHAR uni52E4
ENCODING -1
SWIDTH 1000 0
DWIDTH 24 0
BBX 21 21 2 -3
BITMAP
108100
109100
FFE100
108100
108100
3F8118
0406E8
7FE208
442210
442210
7FE210
040210
040210
7FE410
040410
044410
7F8810
040810
043030
FFE020
8061E0
ENDCHAR
STARTCHAR uni52E6
ENCODING -1
SWIDTH 1000 0
DWIDTH 24 0
BBX 22 22 1 -4
BITMAP
1910C0
221080
446080
222080
111080
00008C
3FF3F4
221084
221084
3FF084
221084
3FF104
221108
020908
FFF108
070208
0AC208
122408
221408
420818
8210F0
026000
ENDCHAR
STARTCHAR uni52E9
ENCODING -1
SWIDTH 1000 0
DWIDTH 24 0
BBX 22 22 1 -4
BITMAP
64C180
448100
44B100
7FC100
448100
47810C
4007FC
606108
5F8108
002108
7FE108
402108
7FE108
402208
402208
7FE208
402408
7FE408
400810
198810
6070F0
800000
ENDCHAR
STARTCHAR uni52EB
ENCODING -1
SWIDTH 1000 0
DWIDTH 24 0
BBX 21 21 2 -3
BITMAP
018300
1E0200
E80200
488200
290200
290218
FFCFF0
180210
1E0210
298210
484210
880210
008410
7F8410
488410
488410
7F8820
488820
489020
7F9020
40A1C0
ENDCHAR
STARTCHAR uni52EF
ENCODING -1
SWIDTH 1000 0
DWIDTH 24 0
BBX 22 22 1 -4
BITMAP
0300C0
0200C0
FFF880
000080
7FF080
4010CC
4F93B4
489084
499084
461088
7FF088
000088
3FE088
204088
204108
3FC108
204108
204208
3FC208
002410
7FC4F0
000800
ENDCHAR
STARTCHAR uni52F0
ENCODING -1
SWIDTH 1000 0
DWIDTH 24 0
BBX 22 21 1 -3
BITMAP
060000
040818
046FE8
1FC888
044888
084888
084FF8
10C888
218888
000888
30CF78
208000
269180
7DF340
249220
249608
249A04
451A14
452A10
8E2A10
9A61F0
ENDCHAR
STARTCHAR uni52F1
ENCODING -1
SWIDTH 1000 0
DWIDTH 24 0
BBX 21 21 2 -3
BITMAP
198180
110100
FFF100
110100
110100
406100
7FA7F8
442110
7FE110
442110
442110
7FE110
040110
842210
FFE210
842210
85A210
9AA410
802430
802820
80E1E0
ENDCHAR
STARTCHAR uni52F3
ENCODING -1
SWIDTH 1000 0
DWIDTH 24 0
BBX 23 22 1 -4
BITMAP
0020C0
03D080
3E0080
020080
FFF880
020084
0233FE
7FD084
5A5084
4A9084
421084
7FF084
020084
423104
3FC104
027908
7D8208
402208
249408
448808
441070
800020
ENDCHAR
STARTCHAR uni52F4
ENCODING -1
SWIDTH 1000 0
DWIDTH 24 0
BBX 23 21 1 -3
BITMAP
040040
046040
078040
7FF840
441040
44C040
7F03FE
47F844
400044
503084
5FD084
512084
5FE088
512088
5EF088
410108
869108
A40908
A42208
442210
07E4F0
ENDCHAR
STARTCHAR uni52F5
ENCODING -1
SWIDTH 1000 0
DWIDTH 24 0
BBX 22 21 1 -3
BITMAP
000040
7FFC40
400040
426840
5FF040
424040
4813FC
4FF044
489044
4FF044
489088
4FF088
408088
718C88
5EF888
90A908
91F908
961908
900A08
101C18
100470
ENDCHAR
STARTCHAR uni52F7
ENCODING -1
SWIDTH 1000 0
DWIDTH 24 0
BBX 23 21 1 -3
BITMAP
0300C0
020880
FDF080
041080
7DF080
451080
7DF7FE
400084
0C8084
7FF884
088084
08B084
1FC104
088904
7F7108
081108
312208
50C208
90A408
1F1818
7010F0
ENDCHAR
STARTCHAR uni52F8
ENCODING -1
SWIDTH 1000 0
DWIDTH 24 0
BBX 22 22 1 -4
BITMAP
0C40C0
085C80
3FE080
084080
669880
5AE88C
4289F4
7EF884
000084
18C084
111084
1FE108
310108
513108
9FC108
110208
11F208
1F0408
110408
11B818
3E4870
001000
ENDCHAR
STARTCHAR uni52FA
ENCODING -1
SWIDTH 1000 0
DWIDTH 24 0
BBX 20 22 2 -4
BITMAP
060000
040000
040000
080010
0FFFF0
100010
100010
200010
200010
400010
800410
1FFA10
000020
000020
000020
000020
000020
000020
000060
000040
000FC0
000100
ENDCHAR
STARTCHAR uni52FB
ENCODING -1
SWIDTH 1000 0
DWIDTH 24 0
BBX 20 21 2 -3
BITMAP
040000
060000
0C0000
080000
0FFFF0
100020
100020
200020
201020
5FF820
800020
000020
000020
000020
000C20
1FF040
000040
000040
000040
000080
000F80
ENDCHAR
STARTCHAR uni52FC
ENCODING -1
SWIDTH 1000 0
DWIDTH 24 0
BBX 21 22 2 -4
BITMAP
060000
0C0000
080000
0FFFF8
100010
200010
200010
460010
840010
040010
066010
1DE010
044010
044010
084420
084420
102620
101820
200020
C00060
000EC0
000180
ENDCHAR
STARTCHAR uni52FE
ENCODING -1
SWIDTH 1000 0
DWIDTH 24 0
BBX 22 21 1 -3
BITMAP
030000
020000
060000
040008
07FFFC
080008
100008
104008
20C008
408008
808008
010008
011008
020810
020410
041E10
1FE210
100010
000010
000030
0003E0
ENDCHAR
STARTCHAR uni52FF
ENCODING -1
SWIDTH 1000 0
DWIDTH 24 0
BBX 22 21 1 -3
BITMAP
030000
020000
040000
040008
0FFFFC
084108
104108
104208
208208
408208
810408
020408
020808
040810
081010
102010
004010
004010
008030
030020
0407E0
ENDCHAR
STARTCHAR uni5305
ENCODING -1
SWIDTH 1000 0
DWIDTH 24 0
BBX 22 21 1 -3
BITMAP
030000
060000
040000
040030
0BFFF0
100020
100020
240820
47F820
440820
840820
040820
040820
07F820
040040
0403C0
040084
040004
040008
040004
07FFFC
ENDCHAR
STARTCHAR uni5306
ENCODING -1
SWIDTH 1000 0
DWIDTH 24 0
BBX 22 22 1 -4
BITMAP
038000
020000
020000
040000
07FFFC
082108
104108
104108
208208
438208
818408
026408
021808
040C08
081608
302310
004110
00C010
010010
020030
0407E0
0000C0
ENDCHAR
STARTCHAR uni5308
ENCODING -1
SWIDTH 1000 0
DWIDTH 24 0
BBX 22 21 1 -3
BITMAP
030000
020000
040000
04000C
0BFFFC
080008
100C08
220808
499108
887108
082108
085108
088908
090908
0A0108
080108
080108
0FFF10
000010
000030
0003E0
ENDCHAR
STARTCHAR uni5309
ENCODING -1
SWIDTH 1000 0
DWIDTH 24 0
BBX 22 22 1 -4
BITMAP
060000
0C0000
0FFFFC
100008
100008
200208
4FFF08
804008
044008
064C08
084208
084308
104008
004088
7FFF48
004008
004008
004010
004010
004010
0040E0
004040
ENDCHAR
STARTCHAR uni530A
ENCODING -1
SWIDTH 1000 0
DWIDTH 24 0
BBX 22 22 1 -4
BITMAP
060000
040000
080000
0FFFFC
100008
202008
242308
422208
812408
012408
002888
1FF708
006008
00B808
01A408
012308
022188
042090
082010
302010
0023E0
000040
ENDCHAR
STARTCHAR uni530B
ENCODING -1
SWIDTH 1000 0
DWIDTH 24 0
BBX 22 22 1 -4
BITMAP
060000
040000
080008
0FFFFC
100008
220008
240008
440608
8BF808
104008
004008
004188
3FFE08
004008
084308
104208
084210
0FBE10
180210
000010
0001E0
000040
ENDCHAR
STARTCHAR uni530D
ENCODING -1
SWIDTH 1000 0
DWIDTH 24 0
BBX 22 21 1 -3
BITMAP
070000
040000
04000C
0BFFFC
084808
104408
204188
3FFE08
404008
804308
0FFE08
084208
084208
0FFE08
084208
084208
0FFE08
084218
084210
085210
184EF0
ENDCHAR
STARTCHAR uni530E
ENCODING -1
SWIDTH 1000 0
DWIDTH 24 0
BBX 22 22 1 -4
BITMAP
0C0000
180000
10000C
3FFFFC
20C008
410208
9FFF08
022008
041808
18C608
608188
1FFC08
108808
108808
1FF808
108808
1FF908
108910
108110
00FF90
000130
0000E0
ENDCHAR
STARTCHAR uni530F
ENCODING -1
SWIDTH 1000 0
DWIDTH 24 0
BBX 22 21 1 -3
BITMAP
060600
040600
044400
7FA400
0C0C0C
0B0BF4
109004
205008
C32BC8
1C0C48
000848
00E848
FF0848
100FC8
3FC808
208810
008870
008800
008804
010804
0F0FFC
ENDCHAR
STARTCHAR uni5310
ENCODING -1
SWIDTH 1000 0
DWIDTH 24 0
BBX 22 22 1 -4
BITMAP
060000
040000
0C001C
0BFFE8
100108
1FFE08
200008
440C08
87F408
040408
07FC08
040408
100108
1FFF08
104108
104108
1FFF08
104110
184310
17BD10
0001B0
000060
ENDCHAR
STARTCHAR uni5311
ENCODING -1
SWIDTH 1000 0
DWIDTH 24 0
BBX 22 23 1 -4
BITMAP
040000
060000
040000
08000C
0FFFF4
140004
240004
3D9F84
530084
910084
1F0084
111F88
1F1008
115008
119188
7F1E88
430088
050088
090108
310108
070F10
0002F0
000020
ENDCHAR
STARTCHAR uni5312
ENCODING -1
SWIDTH 1000 0
DWIDTH 24 0
BBX 22 22 1 -4
BITMAP
0C0000
080000
100000
1FFFFC
200008
4C1808
0C1708
7BF808
099008
018008
024008
043008
082808
31C708
C00008
100C08
1FF808
100810
100810
100810
1FF8E0
000800
ENDCHAR
STARTCHAR uni5315
ENCODING -1
SWIDTH 1000 0
DWIDTH 24 0
BBX 18 21 4 -3
BITMAP
800000
C00000
800000
800000
800200
800700
800C00
801800
802000
80C000
830000
9C0000
E00000
800000
800000
800000
800080
800080
800080
C001C0
3FFF00
ENDCHAR
STARTCHAR uni5316
ENCODING -1
SWIDTH 1000 0
DWIDTH 24 0
BBX 22 22 1 -4
BITMAP
011800
021000
021000
041000
041000
081018
0C1030
181060
281080
281100
481600
881800
083000
08D000
081000
081004
081004
081004
081004
081004
080FFC
080000
ENDCHAR
STARTCHAR uni5317
ENCODING -1
SWIDTH 1000 0
DWIDTH 24 0
BBX 21 22 2 -4
BITMAP
018C00
010800
010800
010800
010800
010800
020830
7E0FC0
010800
010800
010800
010800
010800
010800
030800
070800
190810
E10810
810810
010C18
0307F8
020000
ENDCHAR
STARTCHAR uni5319
ENCODING -1
SWIDTH 1000 0
DWIDTH 24 0
BBX 22 21 1 -3
BITMAP
000200
3FE200
204200
204200
3FC200
204218
204230
3FC240
200380
003200
7FC200
020200
120200
322208
23C208
220208
3203FC
4A0000
460000
81C004
803FF8
ENDCHAR
STARTCHAR uni531A
ENCODING -1
SWIDTH 1000 0
DWIDTH 24 0
BBX 20 20 2 -3
BITMAP
4000E0
7FFF00
400000
400000
400000
400000
400000
400000
400000
400000
400000
400000
400000
400000
400000
400000
400000
400030
FFFFC0
C00000
ENDCHAR
STARTCHAR uni531C
ENCODING -1
SWIDTH 1000 0
DWIDTH 24 0
BBX 20 21 2 -4
BITMAP
800070
FFFF80
803000
862000
8420C0
8423C0
843C80
87E080
BC2080
842080
842080
842380
842100
842020
840020
870070
80FF80
800000
800030
FFFFC0
800000
ENDCHAR
STARTCHAR uni531D
ENCODING -1
SWIDTH 1000 0
DWIDTH 24 0
BBX 20 22 2 -4
BITMAP
000020
BFFFF0
C00000
803000
802000
802000
8BFFC0
8C2080
882080
882080
882080
882080
882080
882080
882080
882380
882000
802000
802000
800030
FFFFC0
800000
ENDCHAR
STARTCHAR uni531F
ENCODING -1
SWIDTH 1000 0
DWIDTH 24 0
BBX 21 21 2 -4
BITMAP
FFFFF8
800000
803000
802040
BFFFF0
800000
800000
81FE00
810400
810400
810400
810400
810400
820400
820420
840430
8803E0
B00000
800018
FFFFE0
800000
ENDCHAR
STARTCHAR uni5320
ENCODING -1
SWIDTH 1000 0
DWIDTH 24 0
BBX 20 20 2 -3
BITMAP
800070
FFFF80
800300
801E00
87E000
840000
840000
840000
87FFE0
840800
840800
840800
840800
880800
880800
900800
900800
800800
800030
FFFFC0
ENDCHAR
STARTCHAR uni5321
ENCODING -1
SWIDTH 1000 0
DWIDTH 24 0
BBX 21 22 2 -4
BITMAP
000020
FFFFF0
800000
800000
800080
9FFF00
802000
802000
802000
802100
8FFF80
802000
802000
802000
802000
8020C0
9FDF00
800000
800000
800010
FFFFE8
800000
ENDCHAR
STARTCHAR uni5322
ENCODING -1
SWIDTH 1000 0
DWIDTH 24 0
BBX 20 22 2 -4
BITMAP
000020
FFFFF0
800000
818000
810000
83FFE0
844440
884440
908440
808840
810840
821040
842040
882040
B04080
818080
820080
8C0F80
800200
800030
FFFFC0
800000
ENDCHAR
STARTCHAR uni5323
ENCODING -1
SWIDTH 1000 0
DWIDTH 24 0
BBX 21 22 2 -4
BITMAP
000020
FFFFF0
800000
800000
87FFC0
841040
841040
841040
87FFC0
841040
841040
841040
841040
8FFFC0
8C1000
801000
801000
803000
803000
800018
FFFFE0
800000
ENDCHAR
STARTCHAR uni532A
ENCODING -1
SWIDTH 1000 0
DWIDTH 24 0
BBX 20 22 2 -4
BITMAP
000020
FFFFF0
800000
80CC00
808800
808860
8F8F80
808800
808800
9F8FC0
808800
808800
818800
8F0860
910F80
810800
820800
840800
980800
800030
FFFFC0
800000
ENDCHAR
STARTCHAR uni532D
ENCODING -1
SWIDTH 1000 0
DWIDTH 24 0
BBX 21 22 2 -4
BITMAP
000010
FFFFF8
820000
820200
A2E200
9F0200
820240
9FCFC0
924240
924240
9FC240
924440
924440
9FC440
820450
826850
BF8850
821058
822030
820000
800038
FFFFC0
ENDCHAR
STARTCHAR uni532F
ENCODING -1
SWIDTH 1000 0
DWIDTH 24 0
BBX 21 22 2 -4
BITMAP
000020
FFFFF0
800000
A03180
982200
884200
804470
84FF80
E48400
958440
8A7FA0
888400
888400
887FE0
B08400
908400
908420
88FBD0
88C000
800018
FFFFE0
800000
ENDCHAR
STARTCHAR uni5330
ENCODING -1
SWIDTH 1000 0
DWIDTH 24 0
BBX 21 22 2 -4
BITMAP
000020
FFFFF0
800000
8FCFC0
884840
884840
8FCFC0
800000
8FFFC0
882080
8C2080
8BFF80
882080
8FFF80
802000
802020
BFFFD0
802000
802000
800018
FFFFE0
800000
ENDCHAR
STARTCHAR uni5331
ENCODING -1
SWIDTH 1000 0
DWIDTH 24 0
BBX 21 22 2 -4
BITMAP
000030
FFFFC0
802000
8FFF80
882080
882100
8FFE00
802030
BFDFC0
840180
87FF00
840100
87FF00
840100
87FF00
840100
87FF00
818600
860180
880010
FFFFF8
800000
ENDCHAR
STARTCHAR uni5334
ENCODING -1
SWIDTH 1000 0
DWIDTH 24 0
BBX 21 22 2 -4
BITMAP
000020
FFFFF0
800200
860620
8FEDD0
888880
900000
87FF80
840080
87FF80
840080
87FF80
840080
87FF80
808420
BFFFF0
810400
820400
8C0400
800030
FFFFF8
800000
ENDCHAR
STARTCHAR uni5337
ENCODING -1
SWIDTH 1000 0
DWIDTH 24 0
BBX 21 22 2 -4
BITMAP
000030
FFFFC0
800000
8FE7F0
884410
8FC7F0
884410
8FC7F0
884410
8FC3F0
830C00
87FFF0
841000
8C1060
B7FF80
841060
87FF80
841030
87EFC0
840010
FFFFF8
800000
ENDCHAR
STARTCHAR uni5339
ENCODING -1
SWIDTH 1000 0
DWIDTH 24 0
BBX 22 19 1 -2
BITMAP
00001C
FFFFE0
210800
210800
210800
210800
210800
210800
210800
210800
220820
220820
240820
240FF0
280000
300000
200000
200000
1FFFF8
ENDCHAR
STARTCHAR uni533C
ENCODING -1
SWIDTH 1000 0
DWIDTH 24 0
BBX 21 22 2 -4
BITMAP
000020
FFFFF0
800000
806000
805000
808800
810400
820300
8402E0
9BFC00
800000
800000
87FF80
840100
840100
840100
840100
87FF00
840100
800010
FFFFE8
800000
ENDCHAR
STARTCHAR uni533D
ENCODING -1
SWIDTH 1000 0
DWIDTH 24 0
BBX 20 21 2 -4
BITMAP
800030
FFFFC0
87FF80
840100
840100
87FF00
840100
840100
87FF00
804000
808030
9F7FC0
820200
860400
8DE800
801C00
806380
8F8080
900030
FFFFF0
800000
ENDCHAR
STARTCHAR uni533E
ENCODING -1
SWIDTH 1000 0
DWIDTH 24 0
BBX 22 21 1 -3
BITMAP
000008
FFFFFC
400000
400FE0
43F000
420020
43FFF0
420020
420020
43FFE0
420000
45FFF0
451110
451110
45FFF0
451110
491110
491170
410020
200000
1FFFFC
ENDCHAR
STARTCHAR uni533F
ENCODING -1
SWIDTH 1000 0
DWIDTH 24 0
BBX 22 20 1 -3
BITMAP
80001C
7FFFE0
20C300
208230
2FFFC0
208200
20B200
202000
206018
27DFE0
208000
2180C0
22FFC0
248080
288080
208080
20FF80
208080
3E0038
01FFC0
ENDCHAR
STARTCHAR uni5340
ENCODING -1
SWIDTH 1000 0
DWIDTH 24 0
BBX 22 20 1 -3
BITMAP
00001C
FFFFE0
200100
20FF00
208100
208100
208100
20FF00
208100
200000
27E7F0
242420
242420
242420
242420
242420
27E7E0
200000
3C0078
03FF80
ENDCHAR
STARTCHAR uni5341
ENCODING -1
SWIDTH 1000 0
DWIDTH 24 0
BBX 22 21 1 -3
BITMAP
001800
001000
001000
001000
001000
001000
001000
001000
00100C
FFFFF0
001000
001000
001000
001000
001000
001000
001000
001000
001000
001000
001000
ENDCHAR
STARTCHAR uni5343
ENCODING -1
SWIDTH 1000 0
DWIDTH 24 0
BBX 21 22 2 -4
BITMAP
000180
001E00
03E000
3C4000
004000
004000
004000
004000
004030
FFFFC8
004000
004000
004000
004000
004000
004000
004000
004000
004000
004000
004000
004000
ENDCHAR
STARTCHAR uni5344
ENCODING -1
SWIDTH 1000 0
DWIDTH 24 0
BBX 20 21 2 -3
BITMAP
040200
060200
040200
040200
040200
040200
040200
040200
040200
040230
FFFFC0
040200
040200
040200
040200
040200
040200
040200
040200
040200
040200
ENDCHAR
STARTCHAR uni5345
ENCODING -1
SWIDTH 1000 0
DWIDTH 24 0
BBX 22 21 1 -3
BITMAP
080040
083060
082040
082040
082040
082040
082040
082040
08204C
FFFFF0
082040
082040
082040
102040
102040
102040
102040
202040
202040
402040
402040
ENDCHAR
STARTCHAR uni5347
ENCODING -1
SWIDTH 1000 0
DWIDTH 24 0
BBX 22 22 1 -4
BITMAP
000100
007180
018100
070100
FA0100
020100
020100
020100
020108
FFFFFC
030100
020100
020100
020100
020100
040100
040100
080100
100100
200100
400100
000100
ENDCHAR
STARTCHAR uni5348
ENCODING -1
SWIDTH 1000 0
DWIDTH 24 0
BBX 22 22 1 -4
BITMAP
030000
020000
040000
040070
0BFF80
101000
201000
401000
001000
001000
001008
FFFFFC
001000
001000
001000
001000
001000
001000
001000
001000
001000
003000
ENDCHAR
STARTCHAR uni5349
ENCODING -1
SWIDTH 1000 0
DWIDTH 24 0
BBX 22 22 1 -4
BITMAP
003000
002000
002000
002030
3FFFC0
002000
002000
032180
022100
020100
020100
02011C
FFFFE0
020100
020100
040100
040100
080100
080100
100100
200100
000100
ENDCHAR
STARTCHAR uni534A
ENCODING -1
SWIDTH 1000 0
DWIDTH 24 0
BBX 21 22 2 -4
BITMAP
003000
002000
0E2300
082080
102060
302030
202010
C02180
0FFE00
002000
002000
002000
002010
FFFFF8
002000
002000
002000
002000
002000
002000
002000
002000
ENDCHAR
STARTCHAR uni534C
ENCODING -1
SWIDTH 1000 0
DWIDTH 24 0
BBX 22 21 1 -3
BITMAP
080060
08C660
088440
088440
088440
088440
088440
088440
08844C
FFFFFC
088440
108440
108440
108440
108440
108440
208440
208440
208440
408C40
808C40
ENDCHAR
STARTCHAR uni534D
ENCODING -1
SWIDTH 1000 0
DWIDTH 24 0
BBX 21 20 2 -3
BITMAP
FFE030
002030
002020
002020
002020
002020
002020
002020
002020
7FFFE0
402000
402000
402000
402000
402000
402000
402000
402010
403FF8
C02000
ENDCHAR
STARTCHAR uni5351
ENCODING -1
SWIDTH 1000 0
DWIDTH 24 0
BBX 22 22 1 -4
BITMAP
007000
004000
1FFFF0
101020
101020
101020
1FFFE0
101020
102020
102020
186020
17DFE0
008400
010400
060400
00041C
FFFFE0
000400
000400
000400
000400
000400
ENDCHAR
STARTCHAR uni5352
ENCODING -1
SWIDTH 1000 0
DWIDTH 24 0
BBX 22 22 1 -4
BITMAP
003800
002000
003018
3FCFE0
030080
020100
040100
040300
0B02C0
108420
205810
400000
003000
002008
FFFFFC
002000
002000
002000
002000
002000
002000
002000
ENDCHAR
STARTCHAR uni5353
ENCODING -1
SWIDTH 1000 0
DWIDTH 24 0
BBX 22 22 1 -4
BITMAP
003800
002010
003FF8
002000
002000
0FFFE0
100040
100040
080040
0FFFC0
100040
100040
1FFFC0
102040
002000
002008
FFFFFC
002000
002000
002000
002000
002000
ENDCHAR
STARTCHAR uni5354
ENCODING -1
SWIDTH 1000 0
DWIDTH 24 0
BBX 21 21 2 -3
BITMAP
300800
201000
221860
21F7A0
201020
242040
F84040
2087C0
210080
220000
210180
210100
2FFFF8
211108
211108
211110
222110
222210
242210
242430
28C8E0
ENDCHAR
STARTCHAR uni5357
ENCODING -1
SWIDTH 1000 0
DWIDTH 24 0
BBX 21 22 2 -4
BITMAP
007000
004000
004018
FFFFE0
004000
004000
406070
7F9FA0
420620
410820
410820
4FFF20
404020
404020
404220
47FD20
404020
404020
404020
404020
4040E0
400040
ENDCHAR
STARTCHAR uni535A
ENCODING -1
SWIDTH 1000 0
DWIDTH 24 0
BBX 22 22 1 -4
BITMAP
3806C0
300420
20041C
23FFE0
200400
24FFF0
FE8410
208410
20FFF0
208410
208410
20FFF0
208410
208060
20004C
21FFF0
204040
202040
201040
200040
2003C0
200080
ENDCHAR
STARTCHAR uni535C
ENCODING -1
SWIDTH 1000 0
DWIDTH 24 0
BBX 11 22 10 -4
BITMAP
C000
8000
8000
8000
8000
8000
8000
8000
E000
9800
8600
8180
80C0
8060
8000
8000
8000
8000
8000
8000
8000
8000
ENDCHAR
STARTCHAR uni535E
ENCODING -1
SWIDTH 1000 0
DWIDTH 24 0
BBX 21 22 2 -4
BITMAP
010000
008000
004000
002000
000000
000038
FFFFC0
004000
004000
004000
007000
004C00
004200
004180
0040C0
004040
004000
004000
004000
004000
004000
004000
ENDCHAR
STARTCHAR uni5360
ENCODING -1
SWIDTH 1000 0
DWIDTH 24 0
BBX 18 21 3 -3
BITMAP
018000
010000
010000
010000
0100C0
01FF00
010000
010000
010000
010000
010080
7EFF80
400080
400080
400080
400080
400080
400080
400080
400180
FFFE80
ENDCHAR
STARTCHAR uni5361
ENCODING -1
SWIDTH 1000 0
DWIDTH 24 0
BBX 22 22 1 -4
BITMAP
003000
002000
002000
002020
003FF0
002000
002000
002000
002008
FFFFFC
002000
002000
003800
002600
002100
0020C0
002060
002000
002000
002000
002000
002000
ENDCHAR
STARTCHAR uni5363
ENCODING -1
SWIDTH 1000 0
DWIDTH 24 0
BBX 19 22 3 -4
BITMAP
00C000
008000
00C060
00BF80
008000
008000
FFFFE0
800040
800040
800040
FFF840
801040
801040
801040
801040
FFF040
800040
800040
800040
800040
FFFFC0
800040
ENDCHAR
STARTCHAR uni5366
ENCODING -1
SWIDTH 1000 0
DWIDTH 24 0
BBX 22 22 1 -4
BITMAP
030180
020100
020100
023100
3FC100
020100
020100
021100
FFF980
000160
030110
02010C
021104
7FF900
020100
020100
020100
020900
07F100
FC0100
800100
000100
ENDCHAR
STARTCHAR uni536C
ENCODING -1
SWIDTH 1000 0
DWIDTH 24 0
BBX 20 22 2 -4
BITMAP
00C000
030010
5C0FF0
600810
400810
400810
400810
400810
400810
400810
400810
400810
400810
410810
460810
780810
C008F0
000820
000800
000800
000800
000800
ENDCHAR
STARTCHAR uni536E
ENCODING -1
SWIDTH 1000 0
DWIDTH 24 0
BBX 22 21 1 -3
BITMAP
0000E0
001F00
3FE000
200000
200008
3FFFFC
200000
200000
2300C0
23FF40
220040
220040
220080
220080
220080
220780
220008
420008
420008
81000C
80FFF0
ENDCHAR
STARTCHAR uni536F
ENCODING -1
SWIDTH 1000 0
DWIDTH 24 0
BBX 21 22 2 -4
BITMAP
008000
030000
0C07F8
700410
408410
408410
408410
408410
408410
408410
408410
408410
410410
410410
470410
790410
C104F0
020420
040400
040400
080C00
300C00
ENDCHAR
STARTCHAR uni5370
ENCODING -1
SWIDTH 1000 0
DWIDTH 24 0
BBX 20 21 2 -3
BITMAP
030000
060000
981FF0
E01020
801020
801020
801020
801020
811020
FE9020
801020
801020
801020
801020
801020
801020
8391E0
FC1060
801000
001000
001000
ENDCHAR
STARTCHAR uni5371
ENCODING -1
SWIDTH 1000 0
DWIDTH 24 0
BBX 22 21 1 -3
BITMAP
038000
020000
07FE00
0C0400
08C400
303800
60000C
1FFFF0
100000
100000
10FFC0
108080
108080
108080
208080
208980
208708
208008
408008
40800C
807FF8
ENDCHAR
STARTCHAR uni5372
ENCODING -1
SWIDTH 1000 0
DWIDTH 24 0
BBX 22 21 1 -4
BITMAP
7FF3FC
082208
082208
082208
082208
102208
102208
204208
43C208
800208
000208
3FF208
202208
202208
202208
2022F8
202218
202200
3FE200
202200
200200
ENDCHAR
STARTCHAR uni5373
ENCODING -1
SWIDTH 1000 0
DWIDTH 24 0
BBX 22 20 1 -3
BITMAP
3FE3FC
204208
204208
204208
204208
3FC208
204208
204208
204208
3FC208
200208
200208
210208
208208
20C208
234278
3C4218
E00200
000600
000600
ENDCHAR
STARTCHAR uni5375
ENCODING -1
SWIDTH 1000 0
DWIDTH 24 0
BBX 22 22 1 -4
BITMAP
006000
01840C
2E07FC
304408
204408
204408
204408
244488
224448
224448
224428
204428
204408
20C408
238408
3C8408
E084F8
010418
010400
020400
0C0400
300400
ENDCHAR
STARTCHAR uni5377
ENCODING -1
SWIDTH 1000 0
DWIDTH 24 0
BBX 22 21 1 -3
BITMAP
021000
062180
0C2060
082010
37FFC8
404800
008400
008208
FFFFFC
020100
0400C0
080060
13FF30
22010C
C20200
020200
021200
020C20
020020
020020
01FFE0
ENDCHAR
STARTCHAR uni5378
ENCODING -1
SWIDTH 1000 0
DWIDTH 24 0
BBX 22 22 1 -4
BITMAP
080000
100008
1003FC
3FF208
220208
420208
020208
020208
7FF208
020208
020208
3A0208
223208
23C208
220208
220208
220A08
227278
2F8218
F00200
000200
000200
ENDCHAR
STARTCHAR uni5379
ENCODING -1
SWIDTH 1000 0
DWIDTH 24 0
BBX 22 22 1 -4
BITMAP
030000
0203FC
040208
042208
7FF208
492208
492208
492208
492208
492208
492208
492208
492208
492208
492208
492208
492208
49F268
FE0218
800200
000200
000200
ENDCHAR
STARTCHAR uni537B
ENCODING -1
SWIDTH 1000 0
DWIDTH 24 0
BBX 22 21 1 -3
BITMAP
040000
0CC3FC
082204
101204
201204
420204
030204
048204
044204
082204
101204
201204
E02204
1FE204
202204
202204
20227C
202218
302200
3FE200
200200
ENDCHAR
STARTCHAR uni537C
ENCODING -1
SWIDTH 1000 0
DWIDTH 24 0
BBX 22 21 1 -3
BITMAP
000C00
000800
019FE0
7E1040
242080
242108
247EF4
24A000
242000
242018
2427F8
242410
242410
242410
242410
2524E0
464404
4C4408
404408
80440C
0083FC
ENDCHAR
STARTCHAR uni537F
ENCODING -1
SWIDTH 1000 0
DWIDTH 24 0
BBX 22 22 1 -4
BITMAP
061800
0C1004
3022FC
40DE84
468284
448284
448684
44FA84
448284
448284
44FE84
448084
448084
448484
4CFA84
748084
C88084
088698
10F880
108080
208080
408080
ENDCHAR
STARTCHAR uni5382
ENCODING -1
SWIDTH 1000 0
DWIDTH 24 0
BBX 22 20 1 -3
BITMAP
20001C
3FFFE0
200000
200000
200000
200000
200000
200000
200000
200000
200000
200000
200000
200000
200000
400000
400000
400000
800000
800000
ENDCHAR
STARTCHAR uni5384
ENCODING -1
SWIDTH 1000 0
DWIDTH 24 0
BBX 22 21 1 -3
BITMAP
000010
3FFFF8
200000
200000
200000
200000
21FFC0
210040
210040
210080
210080
210080
210080
210080
210F80
210200
410008
410008
410008
41C01C
803FE0
ENDCHAR
STARTCHAR uni538A
ENCODING -1
SWIDTH 1000 0
DWIDTH 24 0
BBX 22 21 1 -3
BITMAP
000008
3FFFFC
200000
200010
23FFF8
200100
20C100
208100
210100
210100
210118
21FFE0
200D00
200900
201100
406100
408100
430100
4C0100
800100
000F00
ENDCHAR
STARTCHAR uni538E
ENCODING -1
SWIDTH 1000 0
DWIDTH 24 0
BBX 22 20 1 -3
BITMAP
3FFFFC
200000
200060
200780
23FC00
220400
220400
220400
220418
23FFE0
220200
220200
420200
420100
421984
43E084
4E0068
880038
80008C
0FFFC0
ENDCHAR
STARTCHAR uni538F
ENCODING -1
SWIDTH 1000 0
DWIDTH 24 0
BBX 22 22 1 -4
BITMAP
000008
3FFFFC
200000
208000
210000
210000
210038
22FFC0
242000
242000
281030
201FC0
202000
202000
201030
201FC0
402000
402000
402000
402000
803000
002000
ENDCHAR
STARTCHAR uni5392
ENCODING -1
SWIDTH 1000 0
DWIDTH 24 0
BBX 22 21 1 -3
BITMAP
000010
3FFFF8
200000
20E000
208000
208010
21FFF0
220800
240800
280800
200808
27FFFC
200800
230830
230830
420820
420820
420820
420820
83F7E0
820020
ENDCHAR
STARTCHAR uni5394
ENCODING -1
SWIDTH 1000 0
DWIDTH 24 0
BBX 22 21 1 -3
BITMAP
000008
3FFFFC
200000
200000
200018
27FFE0
202000
202040
204020
2040E0
21FF30
210810
200800
200800
200830
41FFC0
400800
400800
400800
800808
8FFFFC
ENDCHAR
STARTCHAR uni5396
ENCODING -1
SWIDTH 1000 0
DWIDTH 24 0
BBX 21 20 1 -3
BITMAP
3FFFF8
200000
20C100
208080
208040
208018
27FFE0
208000
20A0C0
20A180
20A200
212C70
2120C0
212100
412618
422020
4220C0
442308
882408
903FF8
ENDCHAR
STARTCHAR uni5397
ENCODING -1
SWIDTH 1000 0
DWIDTH 24 0
BBX 22 21 1 -4
BITMAP
3FFFFC
200000
200C00
200800
241870
23E780
2080C0
208180
204100
200208
2FFDF4
200800
200800
200800
47FFF0
400800
400800
400800
800800
800800
000800
ENDCHAR
STARTCHAR uni5398
ENCODING -1
SWIDTH 1000 0
DWIDTH 24 0
BBX 22 20 1 -3
BITMAP
200018
3FFFE0
200000
220030
23FFF0
220820
220820
23FFE0
220820
220820
220820
23FFE0
220820
200800
200830
43FFC0
400800
400800
800808
9FFFFC
ENDCHAR
STARTCHAR uni5399
ENCODING -1
SWIDTH 1000 0
DWIDTH 24 0
BBX 22 22 1 -4
BITMAP
000018
7FFFE0
400000
400C00
400810
4FFFF8
400800
400800
43FFE0
420820
420820
43FFE0
420820
420820
43FFE0
400800
400808
5FFFFC
800800
800800
800800
000800
ENDCHAR
STARTCHAR uni539A
ENCODING -1
SWIDTH 1000 0
DWIDTH 24 0
BBX 22 22 1 -4
BITMAP
000010
3FFFF8
200000
220020
23FFE0
220020
23FFE0
220020
220020
23FFE0
220000
200040
23FFE0
200100
200E00
400808
4FFFFC
400800
400800
800800
807800
001000
ENDCHAR
STARTCHAR uni539C
ENCODING -1
SWIDTH 1000 0
DWIDTH 24 0
BBX 22 20 1 -3
BITMAP
3FFFFC
200000
2001E0
23FE00
200800
200810
27FFE8
208880
208880
208880
2188DC
26FFA0
208880
208880
408890
477F60
400800
400800
800808
07F7F0
ENDCHAR
STARTCHAR uni539D
ENCODING -1
SWIDTH 1000 0
DWIDTH 24 0
BBX 22 21 1 -4
BITMAP
7FFFFC
400000
406180
404100
404110
47FFF8
404100
404100
404100
4FFFFC
400000
400000
41FFE0
410040
410040
41FFC0
410040
810040
81FFC0
810040
010040
ENDCHAR
STARTCHAR uni539E
ENCODING -1
SWIDTH 1000 0
DWIDTH 24 0
BBX 22 21 1 -3
BITMAP
000008
3FFFFC
200000
200000
202300
202200
202218
27E3E0
202200
202200
202210
27E3E8
202200
202200
405A08
40E3FC
4F4200
408200
808200
810200
020200
ENDCHAR
ENDFONT
